ISO-10303-21;
HEADER;
/* Generated by software containing ST-Developer
 * from STEP Tools, Inc. (www.steptools.com) 
 */
/* OPTION: using custom renumber hook */

FILE_DESCRIPTION(
/* description */ ('STEP AP214',
'CAx-IF Rec.Pracs.---User Defined Attributes---1.5---2016-08-15'),
/* implementation_level */ '2;1');

FILE_NAME(
/* name */ '6a7e0c7cca83b69d0ab77b12',
/* time_stamp */ '2026-08-13T18:27:08Z',
/* author */ (''),
/* organization */ (''),
/* preprocessor_version */ 'ST-DEVELOPER v20',
/* originating_system */ 'ONSHAPE BY PTC INC, 1.219',
/* authorisation */ '  ');

FILE_SCHEMA (('AUTOMOTIVE_DESIGN {1 0 10303 214 3 1 1}'));
ENDSEC;

DATA;
#10=PROPERTY_DEFINITION_REPRESENTATION(#14,#12);
#11=PROPERTY_DEFINITION_REPRESENTATION(#15,#13);
#12=REPRESENTATION('',(#16),#758);
#13=REPRESENTATION('',(#17),#758);
#14=PROPERTY_DEFINITION('pmi validation property','',#763);
#15=PROPERTY_DEFINITION('pmi validation property','',#763);
#16=VALUE_REPRESENTATION_ITEM('number of annotations',COUNT_MEASURE(0.));
#17=VALUE_REPRESENTATION_ITEM('number of views',COUNT_MEASURE(0.));
#18=SHAPE_REPRESENTATION_RELATIONSHIP('','',#55,#19);
#19=ADVANCED_BREP_SHAPE_REPRESENTATION('',(#53),#758);
#20=PLANE('',#59);
#21=PLANE('',#60);
#22=ORIENTED_EDGE('',*,*,#26,.F.);
#23=ORIENTED_EDGE('',*,*,#27,.T.);
#24=ORIENTED_EDGE('',*,*,#26,.T.);
#25=ORIENTED_EDGE('',*,*,#27,.F.);
#26=EDGE_CURVE('',#28,#28,#30,.T.);
#27=EDGE_CURVE('',#29,#29,#31,.T.);
#28=VERTEX_POINT('',#752);
#29=VERTEX_POINT('',#754);
#30=CIRCLE('',#57,0.000375);
#31=CIRCLE('',#58,0.000375);
#32=EDGE_LOOP('',(#22));
#33=EDGE_LOOP('',(#23));
#34=EDGE_LOOP('',(#24));
#35=EDGE_LOOP('',(#25));
#36=FACE_BOUND('',#32,.T.);
#37=FACE_BOUND('',#33,.T.);
#38=FACE_BOUND('',#34,.T.);
#39=FACE_BOUND('',#35,.T.);
#40=(
BOUNDED_SURFACE()
B_SPLINE_SURFACE(3,2,((#72,#73,#74,#75,#76,#77,#78,#79,#80,#81,#82,#83,
#84,#85,#86,#87,#88,#89,#90,#91,#92,#93,#94,#95,#96,#97,#98,#99,#100,#101,
#102,#103,#104,#105,#106,#107,#108,#109,#110,#111,#112,#113,#114,#115,#116,
#117,#118,#119,#120,#121,#122,#123,#124,#125,#126,#127,#128,#129,#130,#131,
#132,#133,#134,#135,#136,#137,#138,#139,#140,#141,#142,#143,#144,#145,#146,
#147,#148,#149,#150,#151,#152,#153,#154,#155,#156,#157,#158,#159,#160,#161,
#162,#163,#164,#165,#166,#167,#168),(#169,#170,#171,#172,#173,#174,#175,
#176,#177,#178,#179,#180,#181,#182,#183,#184,#185,#186,#187,#188,#189,#190,
#191,#192,#193,#194,#195,#196,#197,#198,#199,#200,#201,#202,#203,#204,#205,
#206,#207,#208,#209,#210,#211,#212,#213,#214,#215,#216,#217,#218,#219,#220,
#221,#222,#223,#224,#225,#226,#227,#228,#229,#230,#231,#232,#233,#234,#235,
#236,#237,#238,#239,#240,#241,#242,#243,#244,#245,#246,#247,#248,#249,#250,
#251,#252,#253,#254,#255,#256,#257,#258,#259,#260,#261,#262,#263,#264,#265),
(#266,#267,#268,#269,#270,#271,#272,#273,#274,#275,#276,#277,#278,#279,
#280,#281,#282,#283,#284,#285,#286,#287,#288,#289,#290,#291,#292,#293,#294,
#295,#296,#297,#298,#299,#300,#301,#302,#303,#304,#305,#306,#307,#308,#309,
#310,#311,#312,#313,#314,#315,#316,#317,#318,#319,#320,#321,#322,#323,#324,
#325,#326,#327,#328,#329,#330,#331,#332,#333,#334,#335,#336,#337,#338,#339,
#340,#341,#342,#343,#344,#345,#346,#347,#348,#349,#350,#351,#352,#353,#354,
#355,#356,#357,#358,#359,#360,#361,#362),(#363,#364,#365,#366,#367,#368,
#369,#370,#371,#372,#373,#374,#375,#376,#377,#378,#379,#380,#381,#382,#383,
#384,#385,#386,#387,#388,#389,#390,#391,#392,#393,#394,#395,#396,#397,#398,
#399,#400,#401,#402,#403,#404,#405,#406,#407,#408,#409,#410,#411,#412,#413,
#414,#415,#416,#417,#418,#419,#420,#421,#422,#423,#424,#425,#426,#427,#428,
#429,#430,#431,#432,#433,#434,#435,#436,#437,#438,#439,#440,#441,#442,#443,
#444,#445,#446,#447,#448,#449,#450,#451,#452,#453,#454,#455,#456,#457,#458,
#459),(#460,#461,#462,#463,#464,#465,#466,#467,#468,#469,#470,#471,#472,
#473,#474,#475,#476,#477,#478,#479,#480,#481,#482,#483,#484,#485,#486,#487,
#488,#489,#490,#491,#492,#493,#494,#495,#496,#497,#498,#499,#500,#501,#502,
#503,#504,#505,#506,#507,#508,#509,#510,#511,#512,#513,#514,#515,#516,#517,
#518,#519,#520,#521,#522,#523,#524,#525,#526,#527,#528,#529,#530,#531,#532,
#533,#534,#535,#536,#537,#538,#539,#540,#541,#542,#543,#544,#545,#546,#547,
#548,#549,#550,#551,#552,#553,#554,#555,#556),(#557,#558,#559,#560,#561,
#562,#563,#564,#565,#566,#567,#568,#569,#570,#571,#572,#573,#574,#575,#576,
#577,#578,#579,#580,#581,#582,#583,#584,#585,#586,#587,#588,#589,#590,#591,
#592,#593,#594,#595,#596,#597,#598,#599,#600,#601,#602,#603,#604,#605,#606,
#607,#608,#609,#610,#611,#612,#613,#614,#615,#616,#617,#618,#619,#620,#621,
#622,#623,#624,#625,#626,#627,#628,#629,#630,#631,#632,#633,#634,#635,#636,
#637,#638,#639,#640,#641,#642,#643,#644,#645,#646,#647,#648,#649,#650,#651,
#652,#653),(#654,#655,#656,#657,#658,#659,#660,#661,#662,#663,#664,#665,
#666,#667,#668,#669,#670,#671,#672,#673,#674,#675,#676,#677,#678,#679,#680,
#681,#682,#683,#684,#685,#686,#687,#688,#689,#690,#691,#692,#693,#694,#695,
#696,#697,#698,#699,#700,#701,#702,#703,#704,#705,#706,#707,#708,#709,#710,
#711,#712,#713,#714,#715,#716,#717,#718,#719,#720,#721,#722,#723,#724,#725,
#726,#727,#728,#729,#730,#731,#732,#733,#734,#735,#736,#737,#738,#739,#740,
#741,#742,#743,#744,#745,#746,#747,#748,#749,#750)),.UNSPECIFIED.,.T.,.F.,
 .F.)
B_SPLINE_SURFACE_WITH_KNOTS((4,3,4),(3,2,2,2,2,2,2,2,2,2,2,2,2,2,2,2,2,
2,2,2,2,2,2,2,2,2,2,2,2,2,2,2,2,2,2,2,2,2,2,2,2,2,2,2,2,2,2,2,3),(0.,0.5,
1.),(0.,0.0208333333333333,0.0416666666666667,0.0625,0.0833333333333333,
0.104166666666667,0.125,0.145833333333333,0.166666666666667,0.1875,0.208333333333334,
0.229166666666666,0.25,0.270833333333334,0.291666666666667,0.3125,0.333333333333334,
0.354166666666667,0.375,0.395833333333334,0.416666666666667,0.4375,0.458333333333333,
0.479166666666667,0.5,0.520833333333333,0.541666666666667,0.5625,0.583333333333333,
0.604166666666667,0.625,0.645833333333333,0.666666666666667,0.6875,0.708333333333333,
0.729166666666667,0.75,0.770833333333333,0.791666666666667,0.8125,0.833333333333333,
0.854166666666667,0.875,0.895833333333333,0.916666666666667,0.9375,0.958333333333333,
0.979166666666667,1.),.UNSPECIFIED.)
GEOMETRIC_REPRESENTATION_ITEM()
RATIONAL_B_SPLINE_SURFACE(((1.,0.866025403784439,1.,0.866025403784439,1.,
0.866025403784439,1.,0.866025403784439,1.,0.866025403784439,1.,0.866025403784439,
1.,0.866025403784439,1.,0.866025403784439,1.,0.866025403784439,1.,0.866025403784439,
1.,0.866025403784439,1.,0.866025403784439,1.,0.866025403784439,1.,0.866025403784439,
1.,0.866025403784439,1.,0.866025403784439,1.,0.866025403784439,1.,0.866025403784439,
1.,0.866025403784439,1.,0.866025403784439,1.,0.866025403784439,1.,0.866025403784439,
1.,0.866025403784439,1.,0.866025403784439,1.,0.866025403784439,1.,0.866025403784439,
1.,0.866025403784439,1.,0.866025403784439,1.,0.866025403784439,1.,0.866025403784439,
1.,0.866025403784439,1.,0.866025403784439,1.,0.866025403784439,1.,0.866025403784439,
1.,0.866025403784439,1.,0.866025403784439,1.,0.866025403784439,1.,0.866025403784439,
1.,0.866025403784439,1.,0.866025403784439,1.,0.866025403784439,1.,0.866025403784439,
1.,0.866025403784439,1.,0.866025403784439,1.,0.866025403784439,1.,0.866025403784439,
1.,0.866025403784439,1.,0.866025403784439,1.),(0.333333333333334,0.288675134594813,
0.333333333333334,0.288675134594813,0.333333333333334,0.288675134594813,
0.333333333333334,0.288675134594813,0.333333333333334,0.288675134594813,
0.333333333333334,0.288675134594813,0.333333333333334,0.288675134594813,
0.333333333333334,0.288675134594813,0.333333333333334,0.288675134594813,
0.333333333333334,0.288675134594813,0.333333333333334,0.288675134594813,
0.333333333333334,0.288675134594813,0.333333333333334,0.288675134594813,
0.333333333333334,0.288675134594813,0.333333333333334,0.288675134594813,
0.333333333333334,0.288675134594813,0.333333333333334,0.288675134594813,
0.333333333333334,0.288675134594813,0.333333333333334,0.288675134594813,
0.333333333333334,0.288675134594813,0.333333333333334,0.288675134594813,
0.333333333333334,0.288675134594813,0.333333333333334,0.288675134594813,
0.333333333333334,0.288675134594813,0.333333333333334,0.288675134594813,
0.333333333333334,0.288675134594813,0.333333333333334,0.288675134594813,
0.333333333333334,0.288675134594813,0.333333333333334,0.288675134594813,
0.333333333333334,0.288675134594813,0.333333333333334,0.288675134594813,
0.333333333333334,0.288675134594813,0.333333333333334,0.288675134594813,
0.333333333333334,0.288675134594813,0.333333333333334,0.288675134594813,
0.333333333333334,0.288675134594813,0.333333333333334,0.288675134594813,
0.333333333333334,0.288675134594813,0.333333333333334,0.288675134594813,
0.333333333333334,0.288675134594813,0.333333333333334,0.288675134594813,
0.333333333333334,0.288675134594813,0.333333333333334,0.288675134594813,
0.333333333333334,0.288675134594813,0.333333333333334,0.288675134594813,
0.333333333333334,0.288675134594813,0.333333333333334,0.288675134594813,
0.333333333333334,0.288675134594813,0.333333333333334),(0.333333333333334,
0.288675134594813,0.333333333333334,0.288675134594813,0.333333333333334,
0.288675134594813,0.333333333333334,0.288675134594813,0.333333333333334,
0.288675134594813,0.333333333333334,0.288675134594813,0.333333333333334,
0.288675134594813,0.333333333333334,0.288675134594813,0.333333333333334,
0.288675134594813,0.333333333333334,0.288675134594813,0.333333333333334,
0.288675134594813,0.333333333333334,0.288675134594813,0.333333333333334,
0.288675134594813,0.333333333333334,0.288675134594813,0.333333333333334,
0.288675134594813,0.333333333333334,0.288675134594813,0.333333333333334,
0.288675134594813,0.333333333333334,0.288675134594813,0.333333333333334,
0.288675134594813,0.333333333333334,0.288675134594813,0.333333333333334,
0.288675134594813,0.333333333333334,0.288675134594813,0.333333333333334,
0.288675134594813,0.333333333333334,0.288675134594813,0.333333333333334,
0.288675134594813,0.333333333333334,0.288675134594813,0.333333333333334,
0.288675134594813,0.333333333333334,0.288675134594813,0.333333333333334,
0.288675134594813,0.333333333333334,0.288675134594813,0.333333333333334,
0.288675134594813,0.333333333333334,0.288675134594813,0.333333333333334,
0.288675134594813,0.333333333333334,0.288675134594813,0.333333333333334,
0.288675134594813,0.333333333333334,0.288675134594813,0.333333333333334,
0.288675134594813,0.333333333333334,0.288675134594813,0.333333333333334,
0.288675134594813,0.333333333333334,0.288675134594813,0.333333333333334,
0.288675134594813,0.333333333333334,0.288675134594813,0.333333333333334,
0.288675134594813,0.333333333333334,0.288675134594813,0.333333333333334,
0.288675134594813,0.333333333333334,0.288675134594813,0.333333333333334,
0.288675134594813,0.333333333333334,0.288675134594813,0.333333333333334),
(1.,0.866025403784439,1.,0.866025403784439,1.,0.866025403784439,1.,0.866025403784439,
1.,0.866025403784439,1.,0.866025403784439,1.,0.866025403784439,1.,0.866025403784439,
1.,0.866025403784439,1.,0.866025403784439,1.,0.866025403784439,1.,0.866025403784439,
1.,0.866025403784439,1.,0.866025403784439,1.,0.866025403784439,1.,0.866025403784439,
1.,0.866025403784439,1.,0.866025403784439,1.,0.866025403784439,1.,0.866025403784439,
1.,0.866025403784439,1.,0.866025403784439,1.,0.866025403784439,1.,0.866025403784439,
1.,0.866025403784439,1.,0.866025403784439,1.,0.866025403784439,1.,0.866025403784439,
1.,0.866025403784439,1.,0.866025403784439,1.,0.866025403784439,1.,0.866025403784439,
1.,0.866025403784439,1.,0.866025403784439,1.,0.866025403784439,1.,0.866025403784439,
1.,0.866025403784439,1.,0.866025403784439,1.,0.866025403784439,1.,0.866025403784439,
1.,0.866025403784439,1.,0.866025403784439,1.,0.866025403784439,1.,0.866025403784439,
1.,0.866025403784439,1.,0.866025403784439,1.,0.866025403784439,1.,0.866025403784439,
1.),(0.333333333333334,0.288675134594813,0.333333333333334,0.288675134594813,
0.333333333333334,0.288675134594813,0.333333333333334,0.288675134594813,
0.333333333333334,0.288675134594813,0.333333333333334,0.288675134594813,
0.333333333333334,0.288675134594813,0.333333333333334,0.288675134594813,
0.333333333333334,0.288675134594813,0.333333333333334,0.288675134594813,
0.333333333333334,0.288675134594813,0.333333333333334,0.288675134594813,
0.333333333333334,0.288675134594813,0.333333333333334,0.288675134594813,
0.333333333333334,0.288675134594813,0.333333333333334,0.288675134594813,
0.333333333333334,0.288675134594813,0.333333333333334,0.288675134594813,
0.333333333333334,0.288675134594813,0.333333333333334,0.288675134594813,
0.333333333333334,0.288675134594813,0.333333333333334,0.288675134594813,
0.333333333333334,0.288675134594813,0.333333333333334,0.288675134594813,
0.333333333333334,0.288675134594813,0.333333333333334,0.288675134594813,
0.333333333333334,0.288675134594813,0.333333333333334,0.288675134594813,
0.333333333333334,0.288675134594813,0.333333333333334,0.288675134594813,
0.333333333333334,0.288675134594813,0.333333333333334,0.288675134594813,
0.333333333333334,0.288675134594813,0.333333333333334,0.288675134594813,
0.333333333333334,0.288675134594813,0.333333333333334,0.288675134594813,
0.333333333333334,0.288675134594813,0.333333333333334,0.288675134594813,
0.333333333333334,0.288675134594813,0.333333333333334,0.288675134594813,
0.333333333333334,0.288675134594813,0.333333333333334,0.288675134594813,
0.333333333333334,0.288675134594813,0.333333333333334,0.288675134594813,
0.333333333333334,0.288675134594813,0.333333333333334,0.288675134594813,
0.333333333333334,0.288675134594813,0.333333333333334,0.288675134594813,
0.333333333333334),(0.333333333333334,0.288675134594813,0.333333333333334,
0.288675134594813,0.333333333333334,0.288675134594813,0.333333333333334,
0.288675134594813,0.333333333333334,0.288675134594813,0.333333333333334,
0.288675134594813,0.333333333333334,0.288675134594813,0.333333333333334,
0.288675134594813,0.333333333333334,0.288675134594813,0.333333333333334,
0.288675134594813,0.333333333333334,0.288675134594813,0.333333333333334,
0.288675134594813,0.333333333333334,0.288675134594813,0.333333333333334,
0.288675134594813,0.333333333333334,0.288675134594813,0.333333333333334,
0.288675134594813,0.333333333333334,0.288675134594813,0.333333333333334,
0.288675134594813,0.333333333333334,0.288675134594813,0.333333333333334,
0.288675134594813,0.333333333333334,0.288675134594813,0.333333333333334,
0.288675134594813,0.333333333333334,0.288675134594813,0.333333333333334,
0.288675134594813,0.333333333333334,0.288675134594813,0.333333333333334,
0.288675134594813,0.333333333333334,0.288675134594813,0.333333333333334,
0.288675134594813,0.333333333333334,0.288675134594813,0.333333333333334,
0.288675134594813,0.333333333333334,0.288675134594813,0.333333333333334,
0.288675134594813,0.333333333333334,0.288675134594813,0.333333333333334,
0.288675134594813,0.333333333333334,0.288675134594813,0.333333333333334,
0.288675134594813,0.333333333333334,0.288675134594813,0.333333333333334,
0.288675134594813,0.333333333333334,0.288675134594813,0.333333333333334,
0.288675134594813,0.333333333333334,0.288675134594813,0.333333333333334,
0.288675134594813,0.333333333333334,0.288675134594813,0.333333333333334,
0.288675134594813,0.333333333333334,0.288675134594813,0.333333333333334,
0.288675134594813,0.333333333333334,0.288675134594813,0.333333333333334,
0.288675134594813,0.333333333333334),(1.,0.866025403784439,1.,0.866025403784439,
1.,0.866025403784439,1.,0.866025403784439,1.,0.866025403784439,1.,0.866025403784439,
1.,0.866025403784439,1.,0.866025403784439,1.,0.866025403784439,1.,0.866025403784439,
1.,0.866025403784439,1.,0.866025403784439,1.,0.866025403784439,1.,0.866025403784439,
1.,0.866025403784439,1.,0.866025403784439,1.,0.866025403784439,1.,0.866025403784439,
1.,0.866025403784439,1.,0.866025403784439,1.,0.866025403784439,1.,0.866025403784439,
1.,0.866025403784439,1.,0.866025403784439,1.,0.866025403784439,1.,0.866025403784439,
1.,0.866025403784439,1.,0.866025403784439,1.,0.866025403784439,1.,0.866025403784439,
1.,0.866025403784439,1.,0.866025403784439,1.,0.866025403784439,1.,0.866025403784439,
1.,0.866025403784439,1.,0.866025403784439,1.,0.866025403784439,1.,0.866025403784439,
1.,0.866025403784439,1.,0.866025403784439,1.,0.866025403784439,1.,0.866025403784439,
1.,0.866025403784439,1.,0.866025403784439,1.,0.866025403784439,1.,0.866025403784439,
1.,0.866025403784439,1.,0.866025403784439,1.)))
REPRESENTATION_ITEM('')
SURFACE()
);
#41=ADVANCED_FACE('',(#36,#37),#40,.T.);
#42=ADVANCED_FACE('',(#38),#20,.T.);
#43=ADVANCED_FACE('',(#39),#21,.F.);
#44=CLOSED_SHELL('',(#41,#42,#43));
#45=STYLED_ITEM('',(#46),#53);
#46=PRESENTATION_STYLE_ASSIGNMENT((#47));
#47=SURFACE_STYLE_USAGE(.BOTH.,#48);
#48=SURFACE_SIDE_STYLE('',(#49));
#49=SURFACE_STYLE_FILL_AREA(#50);
#50=FILL_AREA_STYLE('',(#51));
#51=FILL_AREA_STYLE_COLOUR('',#52);
#52=COLOUR_RGB('',0.6,0.580392156862745,0.529411764705882);
#53=MANIFOLD_SOLID_BREP('Compression Spring',#44);
#54=SHAPE_DEFINITION_REPRESENTATION(#763,#55);
#55=SHAPE_REPRESENTATION('Compression Spring',(#56),#758);
#56=AXIS2_PLACEMENT_3D('',#71,#61,#62);
#57=AXIS2_PLACEMENT_3D('',#751,#63,#64);
#58=AXIS2_PLACEMENT_3D('',#753,#65,#66);
#59=AXIS2_PLACEMENT_3D('',#755,#67,#68);
#60=AXIS2_PLACEMENT_3D('',#756,#69,#70);
#61=DIRECTION('',(0.,0.,1.));
#62=DIRECTION('',(1.,0.,0.));
#63=DIRECTION('',(-9.64235609918747E-16,0.989930246148044,0.141556023401596));
#64=DIRECTION('',(0.,-0.141556023401596,0.989930246148044));
#65=DIRECTION('',(-9.64235609918747E-16,0.989930246148044,0.141556023401596));
#66=DIRECTION('',(0.,-0.141556023401596,0.989930246148044));
#67=DIRECTION('',(-9.64235609918747E-16,0.989930246148044,0.141556023401596));
#68=DIRECTION('',(-1.,-9.54525994671575E-16,-1.36493358562311E-16));
#69=DIRECTION('',(-9.64235609918747E-16,0.989930246148044,0.141556023401596));
#70=DIRECTION('',(-1.,-9.54525994671575E-16,-1.36493358562311E-16));
#71=CARTESIAN_POINT('',(0.,0.,0.));
#72=CARTESIAN_POINT('',(0.0025,-5.30835087755986E-5,0.000371223842305517));
#73=CARTESIAN_POINT('',(0.00253064777808112,0.00139029216419847,0.000558723842305516));
#74=CARTESIAN_POINT('',(0.00129597166712168,0.0021385217550733,0.000746223842305516));
#75=CARTESIAN_POINT('',(6.12955561622435E-5,0.00288675134594813,0.000933723842305516));
#76=CARTESIAN_POINT('',(-0.00120402833287832,0.0021916052638489,0.00112122384230552));
#77=CARTESIAN_POINT('',(-0.00246935222191888,0.00149645918174966,0.00130872384230551));
#78=CARTESIAN_POINT('',(-0.0025,5.30835087755989E-5,0.00149622384230552));
#79=CARTESIAN_POINT('',(-0.00253064777808112,-0.00139029216419846,0.00168372384230552));
#80=CARTESIAN_POINT('',(-0.00129597166712168,-0.0021385217550733,0.00187122384230552));
#81=CARTESIAN_POINT('',(-6.12955561622439E-5,-0.00288675134594813,0.00205872384230551));
#82=CARTESIAN_POINT('',(0.00120402833287832,-0.0021916052638489,0.00224622384230552));
#83=CARTESIAN_POINT('',(0.00246935222191888,-0.00149645918174966,0.00243372384230552));
#84=CARTESIAN_POINT('',(0.0025,-5.30835087755986E-5,0.00262122384230552));
#85=CARTESIAN_POINT('',(0.00253064777808112,0.00139029216419847,0.00280872384230552));
#86=CARTESIAN_POINT('',(0.00129597166712168,0.0021385217550733,0.00299622384230551));
#87=CARTESIAN_POINT('',(6.12955561622435E-5,0.00288675134594813,0.00318372384230552));
#88=CARTESIAN_POINT('',(-0.00120402833287832,0.0021916052638489,0.00337122384230552));
#89=CARTESIAN_POINT('',(-0.00246935222191888,0.00149645918174966,0.00355872384230552));
#90=CARTESIAN_POINT('',(-0.0025,5.30835087755989E-5,0.00374622384230552));
#91=CARTESIAN_POINT('',(-0.00253064777808112,-0.00139029216419846,0.00393372384230552));
#92=CARTESIAN_POINT('',(-0.00129597166712168,-0.0021385217550733,0.00412122384230552));
#93=CARTESIAN_POINT('',(-6.12955561622439E-5,-0.00288675134594813,0.00430872384230552));
#94=CARTESIAN_POINT('',(0.00120402833287832,-0.0021916052638489,0.00449622384230552));
#95=CARTESIAN_POINT('',(0.00246935222191888,-0.00149645918174966,0.00468372384230552));
#96=CARTESIAN_POINT('',(0.0025,-5.30835087755986E-5,0.00487122384230552));
#97=CARTESIAN_POINT('',(0.00253064777808112,0.00139029216419847,0.00505872384230552));
#98=CARTESIAN_POINT('',(0.00129597166712168,0.0021385217550733,0.00524622384230552));
#99=CARTESIAN_POINT('',(6.12955561622435E-5,0.00288675134594813,0.00543372384230552));
#100=CARTESIAN_POINT('',(-0.00120402833287832,0.0021916052638489,0.00562122384230552));
#101=CARTESIAN_POINT('',(-0.00246935222191888,0.00149645918174966,0.00580872384230551));
#102=CARTESIAN_POINT('',(-0.0025,5.30835087755989E-5,0.00599622384230552));
#103=CARTESIAN_POINT('',(-0.00253064777808112,-0.00139029216419846,0.00618372384230552));
#104=CARTESIAN_POINT('',(-0.00129597166712168,-0.0021385217550733,0.00637122384230552));
#105=CARTESIAN_POINT('',(-6.12955561622439E-5,-0.00288675134594813,0.00655872384230552));
#106=CARTESIAN_POINT('',(0.00120402833287832,-0.0021916052638489,0.00674622384230552));
#107=CARTESIAN_POINT('',(0.00246935222191888,-0.00149645918174966,0.00693372384230552));
#108=CARTESIAN_POINT('',(0.0025,-5.30835087755986E-5,0.00712122384230552));
#109=CARTESIAN_POINT('',(0.00253064777808112,0.00139029216419847,0.00730872384230552));
#110=CARTESIAN_POINT('',(0.00129597166712168,0.0021385217550733,0.00749622384230552));
#111=CARTESIAN_POINT('',(6.12955561622435E-5,0.00288675134594813,0.00768372384230552));
#112=CARTESIAN_POINT('',(-0.00120402833287832,0.0021916052638489,0.00787122384230552));
#113=CARTESIAN_POINT('',(-0.00246935222191888,0.00149645918174966,0.00805872384230552));
#114=CARTESIAN_POINT('',(-0.0025,5.30835087755989E-5,0.00824622384230552));
#115=CARTESIAN_POINT('',(-0.00253064777808112,-0.00139029216419846,0.00843372384230551));
#116=CARTESIAN_POINT('',(-0.00129597166712168,-0.0021385217550733,0.00862122384230552));
#117=CARTESIAN_POINT('',(-6.12955561622439E-5,-0.00288675134594813,0.00880872384230552));
#118=CARTESIAN_POINT('',(0.00120402833287832,-0.0021916052638489,0.00899622384230552));
#119=CARTESIAN_POINT('',(0.00246935222191888,-0.00149645918174966,0.00918372384230551));
#120=CARTESIAN_POINT('',(0.0025,-5.30835087755986E-5,0.00937122384230552));
#121=CARTESIAN_POINT('',(0.00253064777808112,0.00139029216419847,0.00955872384230552));
#122=CARTESIAN_POINT('',(0.00129597166712168,0.0021385217550733,0.00974622384230552));
#123=CARTESIAN_POINT('',(6.12955561622435E-5,0.00288675134594813,0.00993372384230551));
#124=CARTESIAN_POINT('',(-0.00120402833287832,0.0021916052638489,0.0101212238423055));
#125=CARTESIAN_POINT('',(-0.00246935222191888,0.00149645918174966,0.0103087238423055));
#126=CARTESIAN_POINT('',(-0.0025,5.30835087755989E-5,0.0104962238423055));
#127=CARTESIAN_POINT('',(-0.00253064777808112,-0.00139029216419846,0.0106837238423055));
#128=CARTESIAN_POINT('',(-0.00129597166712168,-0.0021385217550733,0.0108712238423055));
#129=CARTESIAN_POINT('',(-6.12955561622439E-5,-0.00288675134594813,0.0110587238423055));
#130=CARTESIAN_POINT('',(0.00120402833287832,-0.0021916052638489,0.0112462238423055));
#131=CARTESIAN_POINT('',(0.00246935222191888,-0.00149645918174966,0.0114337238423055));
#132=CARTESIAN_POINT('',(0.0025,-5.30835087755986E-5,0.0116212238423055));
#133=CARTESIAN_POINT('',(0.00253064777808112,0.00139029216419847,0.0118087238423055));
#134=CARTESIAN_POINT('',(0.00129597166712168,0.0021385217550733,0.0119962238423055));
#135=CARTESIAN_POINT('',(6.12955561622435E-5,0.00288675134594813,0.0121837238423055));
#136=CARTESIAN_POINT('',(-0.00120402833287832,0.0021916052638489,0.0123712238423055));
#137=CARTESIAN_POINT('',(-0.00246935222191888,0.00149645918174966,0.0125587238423055));
#138=CARTESIAN_POINT('',(-0.0025,5.30835087755989E-5,0.0127462238423055));
#139=CARTESIAN_POINT('',(-0.00253064777808112,-0.00139029216419846,0.0129337238423055));
#140=CARTESIAN_POINT('',(-0.00129597166712168,-0.0021385217550733,0.0131212238423055));
#141=CARTESIAN_POINT('',(-6.12955561622439E-5,-0.00288675134594813,0.0133087238423055));
#142=CARTESIAN_POINT('',(0.00120402833287832,-0.0021916052638489,0.0134962238423055));
#143=CARTESIAN_POINT('',(0.00246935222191888,-0.00149645918174966,0.0136837238423055));
#144=CARTESIAN_POINT('',(0.0025,-5.30835087755986E-5,0.0138712238423055));
#145=CARTESIAN_POINT('',(0.00253064777808112,0.00139029216419847,0.0140587238423055));
#146=CARTESIAN_POINT('',(0.00129597166712168,0.0021385217550733,0.0142462238423055));
#147=CARTESIAN_POINT('',(6.12955561622435E-5,0.00288675134594813,0.0144337238423055));
#148=CARTESIAN_POINT('',(-0.00120402833287832,0.0021916052638489,0.0146212238423055));
#149=CARTESIAN_POINT('',(-0.00246935222191888,0.00149645918174966,0.0148087238423055));
#150=CARTESIAN_POINT('',(-0.0025,5.30835087755989E-5,0.0149962238423055));
#151=CARTESIAN_POINT('',(-0.00253064777808112,-0.00139029216419846,0.0151837238423055));
#152=CARTESIAN_POINT('',(-0.00129597166712168,-0.0021385217550733,0.0153712238423055));
#153=CARTESIAN_POINT('',(-6.12955561622439E-5,-0.00288675134594813,0.0155587238423055));
#154=CARTESIAN_POINT('',(0.00120402833287832,-0.0021916052638489,0.0157462238423055));
#155=CARTESIAN_POINT('',(0.00246935222191888,-0.00149645918174966,0.0159337238423055));
#156=CARTESIAN_POINT('',(0.0025,-5.30835087755986E-5,0.0161212238423055));
#157=CARTESIAN_POINT('',(0.00253064777808112,0.00139029216419847,0.0163087238423055));
#158=CARTESIAN_POINT('',(0.00129597166712168,0.0021385217550733,0.0164962238423055));
#159=CARTESIAN_POINT('',(6.12955561622435E-5,0.00288675134594813,0.0166837238423055));
#160=CARTESIAN_POINT('',(-0.00120402833287832,0.0021916052638489,0.0168712238423055));
#161=CARTESIAN_POINT('',(-0.00246935222191888,0.00149645918174966,0.0170587238423055));
#162=CARTESIAN_POINT('',(-0.0025,5.30835087755989E-5,0.0172462238423055));
#163=CARTESIAN_POINT('',(-0.00253064777808112,-0.00139029216419846,0.0174337238423055));
#164=CARTESIAN_POINT('',(-0.00129597166712168,-0.0021385217550733,0.0176212238423055));
#165=CARTESIAN_POINT('',(-6.12955561622439E-5,-0.00288675134594813,0.0178087238423055));
#166=CARTESIAN_POINT('',(0.00120402833287832,-0.0021916052638489,0.0179962238423055));
#167=CARTESIAN_POINT('',(0.00246935222191888,-0.00149645918174966,0.0181837238423055));
#168=CARTESIAN_POINT('',(0.0025,-5.30835087755986E-5,0.0183712238423055));
#169=CARTESIAN_POINT('',(0.00325,-5.30835087755979E-5,0.000371223842305516));
#170=CARTESIAN_POINT('',(0.00328064777808112,0.00182330486609069,0.000558723842305516));
#171=CARTESIAN_POINT('',(0.00167097166712168,0.00278804080791163,0.000746223842305516));
#172=CARTESIAN_POINT('',(6.12955561622428E-5,0.00375277674973257,0.000933723842305517));
#173=CARTESIAN_POINT('',(-0.00157902833287832,0.00284112431668722,0.00112122384230552));
#174=CARTESIAN_POINT('',(-0.00321935222191888,0.00192947188364188,0.00130872384230552));
#175=CARTESIAN_POINT('',(-0.00325,5.30835087755983E-5,0.00149622384230552));
#176=CARTESIAN_POINT('',(-0.00328064777808112,-0.00182330486609069,0.00168372384230552));
#177=CARTESIAN_POINT('',(-0.00167097166712168,-0.00278804080791162,0.00187122384230552));
#178=CARTESIAN_POINT('',(-6.12955561622433E-5,-0.00375277674973257,0.00205872384230551));
#179=CARTESIAN_POINT('',(0.00157902833287832,-0.00284112431668722,0.00224622384230552));
#180=CARTESIAN_POINT('',(0.00321935222191888,-0.00192947188364188,0.00243372384230552));
#181=CARTESIAN_POINT('',(0.00325,-5.30835087755979E-5,0.00262122384230552));
#182=CARTESIAN_POINT('',(0.00328064777808112,0.00182330486609069,0.00280872384230552));
#183=CARTESIAN_POINT('',(0.00167097166712168,0.00278804080791163,0.00299622384230552));
#184=CARTESIAN_POINT('',(6.12955561622428E-5,0.00375277674973257,0.00318372384230552));
#185=CARTESIAN_POINT('',(-0.00157902833287832,0.00284112431668722,0.00337122384230552));
#186=CARTESIAN_POINT('',(-0.00321935222191888,0.00192947188364188,0.00355872384230551));
#187=CARTESIAN_POINT('',(-0.00325,5.30835087755983E-5,0.00374622384230552));
#188=CARTESIAN_POINT('',(-0.00328064777808112,-0.00182330486609069,0.00393372384230552));
#189=CARTESIAN_POINT('',(-0.00167097166712168,-0.00278804080791162,0.00412122384230551));
#190=CARTESIAN_POINT('',(-6.12955561622433E-5,-0.00375277674973257,0.00430872384230551));
#191=CARTESIAN_POINT('',(0.00157902833287832,-0.00284112431668722,0.00449622384230551));
#192=CARTESIAN_POINT('',(0.00321935222191888,-0.00192947188364188,0.00468372384230552));
#193=CARTESIAN_POINT('',(0.00325,-5.30835087755979E-5,0.00487122384230551));
#194=CARTESIAN_POINT('',(0.00328064777808112,0.00182330486609069,0.00505872384230551));
#195=CARTESIAN_POINT('',(0.00167097166712168,0.00278804080791163,0.00524622384230551));
#196=CARTESIAN_POINT('',(6.12955561622428E-5,0.00375277674973257,0.00543372384230552));
#197=CARTESIAN_POINT('',(-0.00157902833287832,0.00284112431668722,0.00562122384230551));
#198=CARTESIAN_POINT('',(-0.00321935222191888,0.00192947188364188,0.00580872384230552));
#199=CARTESIAN_POINT('',(-0.00325,5.30835087755983E-5,0.00599622384230551));
#200=CARTESIAN_POINT('',(-0.00328064777808112,-0.00182330486609069,0.00618372384230552));
#201=CARTESIAN_POINT('',(-0.00167097166712168,-0.00278804080791162,0.00637122384230551));
#202=CARTESIAN_POINT('',(-6.12955561622433E-5,-0.00375277674973257,0.00655872384230552));
#203=CARTESIAN_POINT('',(0.00157902833287832,-0.00284112431668722,0.00674622384230551));
#204=CARTESIAN_POINT('',(0.00321935222191888,-0.00192947188364188,0.00693372384230552));
#205=CARTESIAN_POINT('',(0.00325,-5.30835087755979E-5,0.00712122384230551));
#206=CARTESIAN_POINT('',(0.00328064777808112,0.00182330486609069,0.00730872384230552));
#207=CARTESIAN_POINT('',(0.00167097166712168,0.00278804080791163,0.00749622384230551));
#208=CARTESIAN_POINT('',(6.12955561622428E-5,0.00375277674973257,0.00768372384230552));
#209=CARTESIAN_POINT('',(-0.00157902833287832,0.00284112431668722,0.00787122384230551));
#210=CARTESIAN_POINT('',(-0.00321935222191888,0.00192947188364188,0.00805872384230552));
#211=CARTESIAN_POINT('',(-0.00325,5.30835087755983E-5,0.00824622384230551));
#212=CARTESIAN_POINT('',(-0.00328064777808112,-0.00182330486609069,0.00843372384230552));
#213=CARTESIAN_POINT('',(-0.00167097166712168,-0.00278804080791162,0.00862122384230551));
#214=CARTESIAN_POINT('',(-6.12955561622433E-5,-0.00375277674973257,0.00880872384230552));
#215=CARTESIAN_POINT('',(0.00157902833287832,-0.00284112431668722,0.00899622384230551));
#216=CARTESIAN_POINT('',(0.00321935222191888,-0.00192947188364188,0.00918372384230552));
#217=CARTESIAN_POINT('',(0.00325,-5.30835087755979E-5,0.00937122384230551));
#218=CARTESIAN_POINT('',(0.00328064777808112,0.00182330486609069,0.00955872384230553));
#219=CARTESIAN_POINT('',(0.00167097166712168,0.00278804080791163,0.00974622384230551));
#220=CARTESIAN_POINT('',(6.12955561622428E-5,0.00375277674973257,0.00993372384230552));
#221=CARTESIAN_POINT('',(-0.00157902833287832,0.00284112431668722,0.0101212238423055));
#222=CARTESIAN_POINT('',(-0.00321935222191888,0.00192947188364188,0.0103087238423055));
#223=CARTESIAN_POINT('',(-0.00325,5.30835087755983E-5,0.0104962238423055));
#224=CARTESIAN_POINT('',(-0.00328064777808112,-0.00182330486609069,0.0106837238423055));
#225=CARTESIAN_POINT('',(-0.00167097166712168,-0.00278804080791162,0.0108712238423055));
#226=CARTESIAN_POINT('',(-6.12955561622433E-5,-0.00375277674973257,0.0110587238423055));
#227=CARTESIAN_POINT('',(0.00157902833287832,-0.00284112431668722,0.0112462238423055));
#228=CARTESIAN_POINT('',(0.00321935222191888,-0.00192947188364188,0.0114337238423055));
#229=CARTESIAN_POINT('',(0.00325,-5.30835087755979E-5,0.0116212238423055));
#230=CARTESIAN_POINT('',(0.00328064777808112,0.00182330486609069,0.0118087238423055));
#231=CARTESIAN_POINT('',(0.00167097166712168,0.00278804080791163,0.0119962238423055));
#232=CARTESIAN_POINT('',(6.12955561622428E-5,0.00375277674973257,0.0121837238423055));
#233=CARTESIAN_POINT('',(-0.00157902833287832,0.00284112431668722,0.0123712238423055));
#234=CARTESIAN_POINT('',(-0.00321935222191888,0.00192947188364188,0.0125587238423055));
#235=CARTESIAN_POINT('',(-0.00325,5.30835087755983E-5,0.0127462238423055));
#236=CARTESIAN_POINT('',(-0.00328064777808112,-0.00182330486609069,0.0129337238423055));
#237=CARTESIAN_POINT('',(-0.00167097166712168,-0.00278804080791162,0.0131212238423055));
#238=CARTESIAN_POINT('',(-6.12955561622433E-5,-0.00375277674973257,0.0133087238423055));
#239=CARTESIAN_POINT('',(0.00157902833287832,-0.00284112431668722,0.0134962238423055));
#240=CARTESIAN_POINT('',(0.00321935222191888,-0.00192947188364188,0.0136837238423055));
#241=CARTESIAN_POINT('',(0.00325,-5.30835087755979E-5,0.0138712238423055));
#242=CARTESIAN_POINT('',(0.00328064777808112,0.00182330486609069,0.0140587238423055));
#243=CARTESIAN_POINT('',(0.00167097166712168,0.00278804080791163,0.0142462238423055));
#244=CARTESIAN_POINT('',(6.12955561622428E-5,0.00375277674973257,0.0144337238423055));
#245=CARTESIAN_POINT('',(-0.00157902833287832,0.00284112431668722,0.0146212238423055));
#246=CARTESIAN_POINT('',(-0.00321935222191888,0.00192947188364188,0.0148087238423055));
#247=CARTESIAN_POINT('',(-0.00325,5.30835087755983E-5,0.0149962238423055));
#248=CARTESIAN_POINT('',(-0.00328064777808112,-0.00182330486609069,0.0151837238423055));
#249=CARTESIAN_POINT('',(-0.00167097166712168,-0.00278804080791162,0.0153712238423055));
#250=CARTESIAN_POINT('',(-6.12955561622433E-5,-0.00375277674973257,0.0155587238423055));
#251=CARTESIAN_POINT('',(0.00157902833287832,-0.00284112431668722,0.0157462238423055));
#252=CARTESIAN_POINT('',(0.00321935222191888,-0.00192947188364188,0.0159337238423055));
#253=CARTESIAN_POINT('',(0.00325,-5.30835087755979E-5,0.0161212238423055));
#254=CARTESIAN_POINT('',(0.00328064777808112,0.00182330486609069,0.0163087238423055));
#255=CARTESIAN_POINT('',(0.00167097166712168,0.00278804080791163,0.0164962238423055));
#256=CARTESIAN_POINT('',(6.12955561622428E-5,0.00375277674973257,0.0166837238423055));
#257=CARTESIAN_POINT('',(-0.00157902833287832,0.00284112431668722,0.0168712238423055));
#258=CARTESIAN_POINT('',(-0.00321935222191888,0.00192947188364188,0.0170587238423055));
#259=CARTESIAN_POINT('',(-0.00325,5.30835087755983E-5,0.0172462238423055));
#260=CARTESIAN_POINT('',(-0.00328064777808112,-0.00182330486609069,0.0174337238423055));
#261=CARTESIAN_POINT('',(-0.00167097166712168,-0.00278804080791162,0.0176212238423055));
#262=CARTESIAN_POINT('',(-6.12955561622433E-5,-0.00375277674973257,0.0178087238423055));
#263=CARTESIAN_POINT('',(0.00157902833287832,-0.00284112431668722,0.0179962238423055));
#264=CARTESIAN_POINT('',(0.00321935222191888,-0.00192947188364188,0.0181837238423055));
#265=CARTESIAN_POINT('',(0.00325,-5.30835087755979E-5,0.0183712238423055));
#266=CARTESIAN_POINT('',(0.00325,5.30835087755992E-5,-0.000371223842305516));
#267=CARTESIAN_POINT('',(0.00321935222191888,0.00192947188364188,-0.000183723842305516));
#268=CARTESIAN_POINT('',(0.00157902833287832,0.00284112431668722,3.77615769448392E-6));
#269=CARTESIAN_POINT('',(-6.1295556162244E-5,0.00375277674973257,0.000191276157694484));
#270=CARTESIAN_POINT('',(-0.00167097166712168,0.00278804080791162,0.000378776157694484));
#271=CARTESIAN_POINT('',(-0.00328064777808112,0.00182330486609069,0.000566276157694483));
#272=CARTESIAN_POINT('',(-0.00325,-5.30835087755989E-5,0.000753776157694483));
#273=CARTESIAN_POINT('',(-0.00321935222191888,-0.00192947188364188,0.000941276157694484));
#274=CARTESIAN_POINT('',(-0.00157902833287832,-0.00284112431668722,0.00112877615769448));
#275=CARTESIAN_POINT('',(6.12955561622435E-5,-0.00375277674973257,0.00131627615769448));
#276=CARTESIAN_POINT('',(0.00167097166712168,-0.00278804080791163,0.00150377615769448));
#277=CARTESIAN_POINT('',(0.00328064777808112,-0.00182330486609069,0.00169127615769448));
#278=CARTESIAN_POINT('',(0.00325,5.30835087755992E-5,0.00187877615769448));
#279=CARTESIAN_POINT('',(0.00321935222191888,0.00192947188364188,0.00206627615769448));
#280=CARTESIAN_POINT('',(0.00157902833287832,0.00284112431668722,0.00225377615769448));
#281=CARTESIAN_POINT('',(-6.1295556162244E-5,0.00375277674973257,0.00244127615769448));
#282=CARTESIAN_POINT('',(-0.00167097166712168,0.00278804080791162,0.00262877615769448));
#283=CARTESIAN_POINT('',(-0.00328064777808112,0.00182330486609069,0.00281627615769448));
#284=CARTESIAN_POINT('',(-0.00325,-5.30835087755989E-5,0.00300377615769448));
#285=CARTESIAN_POINT('',(-0.00321935222191888,-0.00192947188364188,0.00319127615769448));
#286=CARTESIAN_POINT('',(-0.00157902833287832,-0.00284112431668722,0.00337877615769448));
#287=CARTESIAN_POINT('',(6.12955561622435E-5,-0.00375277674973257,0.00356627615769449));
#288=CARTESIAN_POINT('',(0.00167097166712168,-0.00278804080791163,0.00375377615769448));
#289=CARTESIAN_POINT('',(0.00328064777808112,-0.00182330486609069,0.00394127615769448));
#290=CARTESIAN_POINT('',(0.00325,5.30835087755992E-5,0.00412877615769448));
#291=CARTESIAN_POINT('',(0.00321935222191888,0.00192947188364188,0.00431627615769448));
#292=CARTESIAN_POINT('',(0.00157902833287832,0.00284112431668722,0.00450377615769448));
#293=CARTESIAN_POINT('',(-6.1295556162244E-5,0.00375277674973257,0.00469127615769448));
#294=CARTESIAN_POINT('',(-0.00167097166712168,0.00278804080791162,0.00487877615769448));
#295=CARTESIAN_POINT('',(-0.00328064777808112,0.00182330486609069,0.00506627615769448));
#296=CARTESIAN_POINT('',(-0.00325,-5.30835087755989E-5,0.00525377615769448));
#297=CARTESIAN_POINT('',(-0.00321935222191888,-0.00192947188364188,0.00544127615769448));
#298=CARTESIAN_POINT('',(-0.00157902833287832,-0.00284112431668722,0.00562877615769448));
#299=CARTESIAN_POINT('',(6.12955561622435E-5,-0.00375277674973257,0.00581627615769448));
#300=CARTESIAN_POINT('',(0.00167097166712168,-0.00278804080791163,0.00600377615769448));
#301=CARTESIAN_POINT('',(0.00328064777808112,-0.00182330486609069,0.00619127615769448));
#302=CARTESIAN_POINT('',(0.00325,5.30835087755992E-5,0.00637877615769448));
#303=CARTESIAN_POINT('',(0.00321935222191888,0.00192947188364188,0.00656627615769448));
#304=CARTESIAN_POINT('',(0.00157902833287832,0.00284112431668722,0.00675377615769448));
#305=CARTESIAN_POINT('',(-6.1295556162244E-5,0.00375277674973257,0.00694127615769448));
#306=CARTESIAN_POINT('',(-0.00167097166712168,0.00278804080791162,0.00712877615769448));
#307=CARTESIAN_POINT('',(-0.00328064777808112,0.00182330486609069,0.00731627615769448));
#308=CARTESIAN_POINT('',(-0.00325,-5.30835087755989E-5,0.00750377615769448));
#309=CARTESIAN_POINT('',(-0.00321935222191888,-0.00192947188364188,0.00769127615769448));
#310=CARTESIAN_POINT('',(-0.00157902833287832,-0.00284112431668722,0.00787877615769448));
#311=CARTESIAN_POINT('',(6.12955561622435E-5,-0.00375277674973257,0.00806627615769448));
#312=CARTESIAN_POINT('',(0.00167097166712168,-0.00278804080791163,0.00825377615769448));
#313=CARTESIAN_POINT('',(0.00328064777808112,-0.00182330486609069,0.00844127615769448));
#314=CARTESIAN_POINT('',(0.00325,5.30835087755992E-5,0.00862877615769448));
#315=CARTESIAN_POINT('',(0.00321935222191888,0.00192947188364188,0.00881627615769448));
#316=CARTESIAN_POINT('',(0.00157902833287832,0.00284112431668722,0.00900377615769448));
#317=CARTESIAN_POINT('',(-6.1295556162244E-5,0.00375277674973257,0.00919127615769448));
#318=CARTESIAN_POINT('',(-0.00167097166712168,0.00278804080791162,0.00937877615769448));
#319=CARTESIAN_POINT('',(-0.00328064777808112,0.00182330486609069,0.00956627615769448));
#320=CARTESIAN_POINT('',(-0.00325,-5.30835087755989E-5,0.00975377615769448));
#321=CARTESIAN_POINT('',(-0.00321935222191888,-0.00192947188364188,0.00994127615769448));
#322=CARTESIAN_POINT('',(-0.00157902833287832,-0.00284112431668722,0.0101287761576945));
#323=CARTESIAN_POINT('',(6.12955561622435E-5,-0.00375277674973257,0.0103162761576945));
#324=CARTESIAN_POINT('',(0.00167097166712168,-0.00278804080791163,0.0105037761576945));
#325=CARTESIAN_POINT('',(0.00328064777808112,-0.00182330486609069,0.0106912761576945));
#326=CARTESIAN_POINT('',(0.00325,5.30835087755992E-5,0.0108787761576945));
#327=CARTESIAN_POINT('',(0.00321935222191888,0.00192947188364188,0.0110662761576945));
#328=CARTESIAN_POINT('',(0.00157902833287832,0.00284112431668722,0.0112537761576945));
#329=CARTESIAN_POINT('',(-6.1295556162244E-5,0.00375277674973257,0.0114412761576945));
#330=CARTESIAN_POINT('',(-0.00167097166712168,0.00278804080791162,0.0116287761576945));
#331=CARTESIAN_POINT('',(-0.00328064777808112,0.00182330486609069,0.0118162761576945));
#332=CARTESIAN_POINT('',(-0.00325,-5.30835087755989E-5,0.0120037761576945));
#333=CARTESIAN_POINT('',(-0.00321935222191888,-0.00192947188364188,0.0121912761576945));
#334=CARTESIAN_POINT('',(-0.00157902833287832,-0.00284112431668722,0.0123787761576945));
#335=CARTESIAN_POINT('',(6.12955561622435E-5,-0.00375277674973257,0.0125662761576945));
#336=CARTESIAN_POINT('',(0.00167097166712168,-0.00278804080791163,0.0127537761576945));
#337=CARTESIAN_POINT('',(0.00328064777808112,-0.00182330486609069,0.0129412761576945));
#338=CARTESIAN_POINT('',(0.00325,5.30835087755992E-5,0.0131287761576945));
#339=CARTESIAN_POINT('',(0.00321935222191888,0.00192947188364188,0.0133162761576945));
#340=CARTESIAN_POINT('',(0.00157902833287832,0.00284112431668722,0.0135037761576945));
#341=CARTESIAN_POINT('',(-6.1295556162244E-5,0.00375277674973257,0.0136912761576945));
#342=CARTESIAN_POINT('',(-0.00167097166712168,0.00278804080791162,0.0138787761576945));
#343=CARTESIAN_POINT('',(-0.00328064777808112,0.00182330486609069,0.0140662761576945));
#344=CARTESIAN_POINT('',(-0.00325,-5.30835087755989E-5,0.0142537761576945));
#345=CARTESIAN_POINT('',(-0.00321935222191888,-0.00192947188364188,0.0144412761576945));
#346=CARTESIAN_POINT('',(-0.00157902833287832,-0.00284112431668722,0.0146287761576945));
#347=CARTESIAN_POINT('',(6.12955561622435E-5,-0.00375277674973257,0.0148162761576945));
#348=CARTESIAN_POINT('',(0.00167097166712168,-0.00278804080791163,0.0150037761576945));
#349=CARTESIAN_POINT('',(0.00328064777808112,-0.00182330486609069,0.0151912761576945));
#350=CARTESIAN_POINT('',(0.00325,5.30835087755992E-5,0.0153787761576945));
#351=CARTESIAN_POINT('',(0.00321935222191888,0.00192947188364188,0.0155662761576945));
#352=CARTESIAN_POINT('',(0.00157902833287832,0.00284112431668722,0.0157537761576945));
#353=CARTESIAN_POINT('',(-6.1295556162244E-5,0.00375277674973257,0.0159412761576945));
#354=CARTESIAN_POINT('',(-0.00167097166712168,0.00278804080791162,0.0161287761576945));
#355=CARTESIAN_POINT('',(-0.00328064777808112,0.00182330486609069,0.0163162761576945));
#356=CARTESIAN_POINT('',(-0.00325,-5.30835087755989E-5,0.0165037761576945));
#357=CARTESIAN_POINT('',(-0.00321935222191888,-0.00192947188364188,0.0166912761576945));
#358=CARTESIAN_POINT('',(-0.00157902833287832,-0.00284112431668722,0.0168787761576945));
#359=CARTESIAN_POINT('',(6.12955561622435E-5,-0.00375277674973257,0.0170662761576945));
#360=CARTESIAN_POINT('',(0.00167097166712168,-0.00278804080791163,0.0172537761576945));
#361=CARTESIAN_POINT('',(0.00328064777808112,-0.00182330486609069,0.0174412761576945));
#362=CARTESIAN_POINT('',(0.00325,5.30835087755992E-5,0.0176287761576945));
#363=CARTESIAN_POINT('',(0.0025,5.30835087755986E-5,-0.000371223842305517));
#364=CARTESIAN_POINT('',(0.00246935222191888,0.00149645918174966,-0.000183723842305516));
#365=CARTESIAN_POINT('',(0.00120402833287832,0.0021916052638489,3.7761576944837E-6));
#366=CARTESIAN_POINT('',(-6.12955561622432E-5,0.00288675134594813,0.000191276157694483));
#367=CARTESIAN_POINT('',(-0.00129597166712168,0.0021385217550733,0.000378776157694484));
#368=CARTESIAN_POINT('',(-0.00253064777808112,0.00139029216419847,0.000566276157694484));
#369=CARTESIAN_POINT('',(-0.0025,-5.30835087755983E-5,0.000753776157694484));
#370=CARTESIAN_POINT('',(-0.00246935222191888,-0.00149645918174966,0.000941276157694484));
#371=CARTESIAN_POINT('',(-0.00120402833287832,-0.0021916052638489,0.00112877615769448));
#372=CARTESIAN_POINT('',(6.12955561622428E-5,-0.00288675134594813,0.00131627615769448));
#373=CARTESIAN_POINT('',(0.00129597166712168,-0.0021385217550733,0.00150377615769449));
#374=CARTESIAN_POINT('',(0.00253064777808112,-0.00139029216419847,0.00169127615769448));
#375=CARTESIAN_POINT('',(0.0025,5.30835087755986E-5,0.00187877615769449));
#376=CARTESIAN_POINT('',(0.00246935222191888,0.00149645918174966,0.00206627615769448));
#377=CARTESIAN_POINT('',(0.00120402833287832,0.0021916052638489,0.00225377615769448));
#378=CARTESIAN_POINT('',(-6.12955561622432E-5,0.00288675134594813,0.00244127615769449));
#379=CARTESIAN_POINT('',(-0.00129597166712168,0.0021385217550733,0.00262877615769448));
#380=CARTESIAN_POINT('',(-0.00253064777808112,0.00139029216419847,0.00281627615769449));
#381=CARTESIAN_POINT('',(-0.0025,-5.30835087755983E-5,0.00300377615769448));
#382=CARTESIAN_POINT('',(-0.00246935222191888,-0.00149645918174966,0.00319127615769449));
#383=CARTESIAN_POINT('',(-0.00120402833287832,-0.0021916052638489,0.00337877615769448));
#384=CARTESIAN_POINT('',(6.12955561622428E-5,-0.00288675134594813,0.00356627615769449));
#385=CARTESIAN_POINT('',(0.00129597166712168,-0.0021385217550733,0.00375377615769448));
#386=CARTESIAN_POINT('',(0.00253064777808112,-0.00139029216419847,0.00394127615769448));
#387=CARTESIAN_POINT('',(0.0025,5.30835087755986E-5,0.00412877615769448));
#388=CARTESIAN_POINT('',(0.00246935222191888,0.00149645918174966,0.00431627615769448));
#389=CARTESIAN_POINT('',(0.00120402833287832,0.0021916052638489,0.00450377615769448));
#390=CARTESIAN_POINT('',(-6.12955561622432E-5,0.00288675134594813,0.00469127615769448));
#391=CARTESIAN_POINT('',(-0.00129597166712168,0.0021385217550733,0.00487877615769449));
#392=CARTESIAN_POINT('',(-0.00253064777808112,0.00139029216419847,0.00506627615769448));
#393=CARTESIAN_POINT('',(-0.0025,-5.30835087755983E-5,0.00525377615769448));
#394=CARTESIAN_POINT('',(-0.00246935222191888,-0.00149645918174966,0.00544127615769449));
#395=CARTESIAN_POINT('',(-0.00120402833287832,-0.0021916052638489,0.00562877615769448));
#396=CARTESIAN_POINT('',(6.12955561622428E-5,-0.00288675134594813,0.00581627615769448));
#397=CARTESIAN_POINT('',(0.00129597166712168,-0.0021385217550733,0.00600377615769449));
#398=CARTESIAN_POINT('',(0.00253064777808112,-0.00139029216419847,0.00619127615769449));
#399=CARTESIAN_POINT('',(0.0025,5.30835087755986E-5,0.00637877615769448));
#400=CARTESIAN_POINT('',(0.00246935222191888,0.00149645918174966,0.00656627615769449));
#401=CARTESIAN_POINT('',(0.00120402833287832,0.0021916052638489,0.00675377615769449));
#402=CARTESIAN_POINT('',(-6.12955561622432E-5,0.00288675134594813,0.00694127615769448));
#403=CARTESIAN_POINT('',(-0.00129597166712168,0.0021385217550733,0.00712877615769449));
#404=CARTESIAN_POINT('',(-0.00253064777808112,0.00139029216419847,0.00731627615769449));
#405=CARTESIAN_POINT('',(-0.0025,-5.30835087755983E-5,0.00750377615769449));
#406=CARTESIAN_POINT('',(-0.00246935222191888,-0.00149645918174966,0.00769127615769448));
#407=CARTESIAN_POINT('',(-0.00120402833287832,-0.0021916052638489,0.00787877615769449));
#408=CARTESIAN_POINT('',(6.12955561622428E-5,-0.00288675134594813,0.00806627615769449));
#409=CARTESIAN_POINT('',(0.00129597166712168,-0.0021385217550733,0.00825377615769449));
#410=CARTESIAN_POINT('',(0.00253064777808112,-0.00139029216419847,0.00844127615769448));
#411=CARTESIAN_POINT('',(0.0025,5.30835087755986E-5,0.00862877615769449));
#412=CARTESIAN_POINT('',(0.00246935222191888,0.00149645918174966,0.00881627615769449));
#413=CARTESIAN_POINT('',(0.00120402833287832,0.0021916052638489,0.00900377615769449));
#414=CARTESIAN_POINT('',(-6.12955561622432E-5,0.00288675134594813,0.00919127615769448));
#415=CARTESIAN_POINT('',(-0.00129597166712168,0.0021385217550733,0.00937877615769449));
#416=CARTESIAN_POINT('',(-0.00253064777808112,0.00139029216419847,0.00956627615769449));
#417=CARTESIAN_POINT('',(-0.0025,-5.30835087755983E-5,0.00975377615769449));
#418=CARTESIAN_POINT('',(-0.00246935222191888,-0.00149645918174966,0.00994127615769448));
#419=CARTESIAN_POINT('',(-0.00120402833287832,-0.0021916052638489,0.0101287761576945));
#420=CARTESIAN_POINT('',(6.12955561622428E-5,-0.00288675134594813,0.0103162761576945));
#421=CARTESIAN_POINT('',(0.00129597166712168,-0.0021385217550733,0.0105037761576945));
#422=CARTESIAN_POINT('',(0.00253064777808112,-0.00139029216419847,0.0106912761576945));
#423=CARTESIAN_POINT('',(0.0025,5.30835087755986E-5,0.0108787761576945));
#424=CARTESIAN_POINT('',(0.00246935222191888,0.00149645918174966,0.0110662761576945));
#425=CARTESIAN_POINT('',(0.00120402833287832,0.0021916052638489,0.0112537761576945));
#426=CARTESIAN_POINT('',(-6.12955561622432E-5,0.00288675134594813,0.0114412761576945));
#427=CARTESIAN_POINT('',(-0.00129597166712168,0.0021385217550733,0.0116287761576945));
#428=CARTESIAN_POINT('',(-0.00253064777808112,0.00139029216419847,0.0118162761576945));
#429=CARTESIAN_POINT('',(-0.0025,-5.30835087755983E-5,0.0120037761576945));
#430=CARTESIAN_POINT('',(-0.00246935222191888,-0.00149645918174966,0.0121912761576945));
#431=CARTESIAN_POINT('',(-0.00120402833287832,-0.0021916052638489,0.0123787761576945));
#432=CARTESIAN_POINT('',(6.12955561622428E-5,-0.00288675134594813,0.0125662761576945));
#433=CARTESIAN_POINT('',(0.00129597166712168,-0.0021385217550733,0.0127537761576945));
#434=CARTESIAN_POINT('',(0.00253064777808112,-0.00139029216419847,0.0129412761576945));
#435=CARTESIAN_POINT('',(0.0025,5.30835087755986E-5,0.0131287761576945));
#436=CARTESIAN_POINT('',(0.00246935222191888,0.00149645918174966,0.0133162761576945));
#437=CARTESIAN_POINT('',(0.00120402833287832,0.0021916052638489,0.0135037761576945));
#438=CARTESIAN_POINT('',(-6.12955561622432E-5,0.00288675134594813,0.0136912761576945));
#439=CARTESIAN_POINT('',(-0.00129597166712168,0.0021385217550733,0.0138787761576945));
#440=CARTESIAN_POINT('',(-0.00253064777808112,0.00139029216419847,0.0140662761576945));
#441=CARTESIAN_POINT('',(-0.0025,-5.30835087755983E-5,0.0142537761576945));
#442=CARTESIAN_POINT('',(-0.00246935222191888,-0.00149645918174966,0.0144412761576945));
#443=CARTESIAN_POINT('',(-0.00120402833287832,-0.0021916052638489,0.0146287761576945));
#444=CARTESIAN_POINT('',(6.12955561622428E-5,-0.00288675134594813,0.0148162761576945));
#445=CARTESIAN_POINT('',(0.00129597166712168,-0.0021385217550733,0.0150037761576945));
#446=CARTESIAN_POINT('',(0.00253064777808112,-0.00139029216419847,0.0151912761576945));
#447=CARTESIAN_POINT('',(0.0025,5.30835087755986E-5,0.0153787761576945));
#448=CARTESIAN_POINT('',(0.00246935222191888,0.00149645918174966,0.0155662761576945));
#449=CARTESIAN_POINT('',(0.00120402833287832,0.0021916052638489,0.0157537761576945));
#450=CARTESIAN_POINT('',(-6.12955561622432E-5,0.00288675134594813,0.0159412761576945));
#451=CARTESIAN_POINT('',(-0.00129597166712168,0.0021385217550733,0.0161287761576945));
#452=CARTESIAN_POINT('',(-0.00253064777808112,0.00139029216419847,0.0163162761576945));
#453=CARTESIAN_POINT('',(-0.0025,-5.30835087755983E-5,0.0165037761576945));
#454=CARTESIAN_POINT('',(-0.00246935222191888,-0.00149645918174966,0.0166912761576945));
#455=CARTESIAN_POINT('',(-0.00120402833287832,-0.0021916052638489,0.0168787761576945));
#456=CARTESIAN_POINT('',(6.12955561622428E-5,-0.00288675134594813,0.0170662761576945));
#457=CARTESIAN_POINT('',(0.00129597166712168,-0.0021385217550733,0.0172537761576945));
#458=CARTESIAN_POINT('',(0.00253064777808112,-0.00139029216419847,0.0174412761576945));
#459=CARTESIAN_POINT('',(0.0025,5.30835087755986E-5,0.0176287761576945));
#460=CARTESIAN_POINT('',(0.00175,5.30835087755979E-5,-0.000371223842305517));
#461=CARTESIAN_POINT('',(0.00171935222191888,0.00106344647985744,-0.000183723842305517));
#462=CARTESIAN_POINT('',(0.000829028332878319,0.00154208621101057,3.77615769448343E-6));
#463=CARTESIAN_POINT('',(-6.12955561622424E-5,0.00202072594216369,0.000191276157694484));
#464=CARTESIAN_POINT('',(-0.000920971667121682,0.00148900270223497,0.000378776157694483));
#465=CARTESIAN_POINT('',(-0.00178064777808112,0.000957279462306248,0.000566276157694483));
#466=CARTESIAN_POINT('',(-0.00175,-5.30835087755976E-5,0.000753776157694483));
#467=CARTESIAN_POINT('',(-0.00171935222191888,-0.00106344647985744,0.000941276157694484));
#468=CARTESIAN_POINT('',(-0.000829028332878319,-0.00154208621101057,0.00112877615769448));
#469=CARTESIAN_POINT('',(6.12955561622423E-5,-0.00202072594216369,0.00131627615769448));
#470=CARTESIAN_POINT('',(0.00092097166712168,-0.00148900270223497,0.00150377615769448));
#471=CARTESIAN_POINT('',(0.00178064777808112,-0.000957279462306248,0.00169127615769448));
#472=CARTESIAN_POINT('',(0.00175,5.30835087755979E-5,0.00187877615769448));
#473=CARTESIAN_POINT('',(0.00171935222191888,0.00106344647985744,0.00206627615769448));
#474=CARTESIAN_POINT('',(0.000829028332878319,0.00154208621101057,0.00225377615769448));
#475=CARTESIAN_POINT('',(-6.12955561622424E-5,0.00202072594216369,0.00244127615769448));
#476=CARTESIAN_POINT('',(-0.000920971667121682,0.00148900270223497,0.00262877615769448));
#477=CARTESIAN_POINT('',(-0.00178064777808112,0.000957279462306248,0.00281627615769448));
#478=CARTESIAN_POINT('',(-0.00175,-5.30835087755976E-5,0.00300377615769448));
#479=CARTESIAN_POINT('',(-0.00171935222191888,-0.00106344647985744,0.00319127615769448));
#480=CARTESIAN_POINT('',(-0.000829028332878319,-0.00154208621101057,0.00337877615769448));
#481=CARTESIAN_POINT('',(6.12955561622423E-5,-0.00202072594216369,0.00356627615769449));
#482=CARTESIAN_POINT('',(0.00092097166712168,-0.00148900270223497,0.00375377615769448));
#483=CARTESIAN_POINT('',(0.00178064777808112,-0.000957279462306248,0.00394127615769448));
#484=CARTESIAN_POINT('',(0.00175,5.30835087755979E-5,0.00412877615769448));
#485=CARTESIAN_POINT('',(0.00171935222191888,0.00106344647985744,0.00431627615769448));
#486=CARTESIAN_POINT('',(0.000829028332878319,0.00154208621101057,0.00450377615769448));
#487=CARTESIAN_POINT('',(-6.12955561622424E-5,0.00202072594216369,0.00469127615769448));
#488=CARTESIAN_POINT('',(-0.000920971667121682,0.00148900270223497,0.00487877615769448));
#489=CARTESIAN_POINT('',(-0.00178064777808112,0.000957279462306248,0.00506627615769448));
#490=CARTESIAN_POINT('',(-0.00175,-5.30835087755976E-5,0.00525377615769448));
#491=CARTESIAN_POINT('',(-0.00171935222191888,-0.00106344647985744,0.00544127615769448));
#492=CARTESIAN_POINT('',(-0.000829028332878319,-0.00154208621101057,0.00562877615769448));
#493=CARTESIAN_POINT('',(6.12955561622423E-5,-0.00202072594216369,0.00581627615769448));
#494=CARTESIAN_POINT('',(0.00092097166712168,-0.00148900270223497,0.00600377615769448));
#495=CARTESIAN_POINT('',(0.00178064777808112,-0.000957279462306248,0.00619127615769448));
#496=CARTESIAN_POINT('',(0.00175,5.30835087755979E-5,0.00637877615769448));
#497=CARTESIAN_POINT('',(0.00171935222191888,0.00106344647985744,0.00656627615769448));
#498=CARTESIAN_POINT('',(0.000829028332878319,0.00154208621101057,0.00675377615769448));
#499=CARTESIAN_POINT('',(-6.12955561622424E-5,0.00202072594216369,0.00694127615769448));
#500=CARTESIAN_POINT('',(-0.000920971667121682,0.00148900270223497,0.00712877615769448));
#501=CARTESIAN_POINT('',(-0.00178064777808112,0.000957279462306248,0.00731627615769448));
#502=CARTESIAN_POINT('',(-0.00175,-5.30835087755976E-5,0.00750377615769448));
#503=CARTESIAN_POINT('',(-0.00171935222191888,-0.00106344647985744,0.00769127615769448));
#504=CARTESIAN_POINT('',(-0.000829028332878319,-0.00154208621101057,0.00787877615769448));
#505=CARTESIAN_POINT('',(6.12955561622423E-5,-0.00202072594216369,0.00806627615769448));
#506=CARTESIAN_POINT('',(0.00092097166712168,-0.00148900270223497,0.00825377615769448));
#507=CARTESIAN_POINT('',(0.00178064777808112,-0.000957279462306248,0.00844127615769448));
#508=CARTESIAN_POINT('',(0.00175,5.30835087755979E-5,0.00862877615769448));
#509=CARTESIAN_POINT('',(0.00171935222191888,0.00106344647985744,0.00881627615769448));
#510=CARTESIAN_POINT('',(0.000829028332878319,0.00154208621101057,0.00900377615769448));
#511=CARTESIAN_POINT('',(-6.12955561622424E-5,0.00202072594216369,0.00919127615769448));
#512=CARTESIAN_POINT('',(-0.000920971667121682,0.00148900270223497,0.00937877615769448));
#513=CARTESIAN_POINT('',(-0.00178064777808112,0.000957279462306248,0.00956627615769448));
#514=CARTESIAN_POINT('',(-0.00175,-5.30835087755976E-5,0.00975377615769448));
#515=CARTESIAN_POINT('',(-0.00171935222191888,-0.00106344647985744,0.00994127615769448));
#516=CARTESIAN_POINT('',(-0.000829028332878319,-0.00154208621101057,0.0101287761576945));
#517=CARTESIAN_POINT('',(6.12955561622423E-5,-0.00202072594216369,0.0103162761576945));
#518=CARTESIAN_POINT('',(0.00092097166712168,-0.00148900270223497,0.0105037761576945));
#519=CARTESIAN_POINT('',(0.00178064777808112,-0.000957279462306248,0.0106912761576945));
#520=CARTESIAN_POINT('',(0.00175,5.30835087755979E-5,0.0108787761576945));
#521=CARTESIAN_POINT('',(0.00171935222191888,0.00106344647985744,0.0110662761576945));
#522=CARTESIAN_POINT('',(0.000829028332878319,0.00154208621101057,0.0112537761576945));
#523=CARTESIAN_POINT('',(-6.12955561622424E-5,0.00202072594216369,0.0114412761576945));
#524=CARTESIAN_POINT('',(-0.000920971667121682,0.00148900270223497,0.0116287761576945));
#525=CARTESIAN_POINT('',(-0.00178064777808112,0.000957279462306248,0.0118162761576945));
#526=CARTESIAN_POINT('',(-0.00175,-5.30835087755976E-5,0.0120037761576945));
#527=CARTESIAN_POINT('',(-0.00171935222191888,-0.00106344647985744,0.0121912761576945));
#528=CARTESIAN_POINT('',(-0.000829028332878319,-0.00154208621101057,0.0123787761576945));
#529=CARTESIAN_POINT('',(6.12955561622423E-5,-0.00202072594216369,0.0125662761576945));
#530=CARTESIAN_POINT('',(0.00092097166712168,-0.00148900270223497,0.0127537761576945));
#531=CARTESIAN_POINT('',(0.00178064777808112,-0.000957279462306248,0.0129412761576945));
#532=CARTESIAN_POINT('',(0.00175,5.30835087755979E-5,0.0131287761576945));
#533=CARTESIAN_POINT('',(0.00171935222191888,0.00106344647985744,0.0133162761576945));
#534=CARTESIAN_POINT('',(0.000829028332878319,0.00154208621101057,0.0135037761576945));
#535=CARTESIAN_POINT('',(-6.12955561622424E-5,0.00202072594216369,0.0136912761576945));
#536=CARTESIAN_POINT('',(-0.000920971667121682,0.00148900270223497,0.0138787761576945));
#537=CARTESIAN_POINT('',(-0.00178064777808112,0.000957279462306248,0.0140662761576945));
#538=CARTESIAN_POINT('',(-0.00175,-5.30835087755976E-5,0.0142537761576945));
#539=CARTESIAN_POINT('',(-0.00171935222191888,-0.00106344647985744,0.0144412761576945));
#540=CARTESIAN_POINT('',(-0.000829028332878319,-0.00154208621101057,0.0146287761576945));
#541=CARTESIAN_POINT('',(6.12955561622423E-5,-0.00202072594216369,0.0148162761576945));
#542=CARTESIAN_POINT('',(0.00092097166712168,-0.00148900270223497,0.0150037761576945));
#543=CARTESIAN_POINT('',(0.00178064777808112,-0.000957279462306248,0.0151912761576945));
#544=CARTESIAN_POINT('',(0.00175,5.30835087755979E-5,0.0153787761576945));
#545=CARTESIAN_POINT('',(0.00171935222191888,0.00106344647985744,0.0155662761576945));
#546=CARTESIAN_POINT('',(0.000829028332878319,0.00154208621101057,0.0157537761576945));
#547=CARTESIAN_POINT('',(-6.12955561622424E-5,0.00202072594216369,0.0159412761576945));
#548=CARTESIAN_POINT('',(-0.000920971667121682,0.00148900270223497,0.0161287761576945));
#549=CARTESIAN_POINT('',(-0.00178064777808112,0.000957279462306248,0.0163162761576945));
#550=CARTESIAN_POINT('',(-0.00175,-5.30835087755976E-5,0.0165037761576945));
#551=CARTESIAN_POINT('',(-0.00171935222191888,-0.00106344647985744,0.0166912761576945));
#552=CARTESIAN_POINT('',(-0.000829028332878319,-0.00154208621101057,0.0168787761576945));
#553=CARTESIAN_POINT('',(6.12955561622423E-5,-0.00202072594216369,0.0170662761576945));
#554=CARTESIAN_POINT('',(0.00092097166712168,-0.00148900270223497,0.0172537761576945));
#555=CARTESIAN_POINT('',(0.00178064777808112,-0.000957279462306248,0.0174412761576945));
#556=CARTESIAN_POINT('',(0.00175,5.30835087755979E-5,0.0176287761576945));
#557=CARTESIAN_POINT('',(0.00175,-5.30835087755992E-5,0.000371223842305516));
#558=CARTESIAN_POINT('',(0.00178064777808112,0.000957279462306247,0.000558723842305516));
#559=CARTESIAN_POINT('',(0.000920971667121683,0.00148900270223497,0.000746223842305516));
#560=CARTESIAN_POINT('',(6.12955561622443E-5,0.00202072594216369,0.000933723842305517));
#561=CARTESIAN_POINT('',(-0.000829028332878316,0.00154208621101057,0.00112122384230552));
#562=CARTESIAN_POINT('',(-0.00171935222191888,0.00106344647985745,0.00130872384230552));
#563=CARTESIAN_POINT('',(-0.00175,5.30835087755995E-5,0.00149622384230552));
#564=CARTESIAN_POINT('',(-0.00178064777808112,-0.000957279462306245,0.00168372384230552));
#565=CARTESIAN_POINT('',(-0.000920971667121683,-0.00148900270223497,0.00187122384230552));
#566=CARTESIAN_POINT('',(-6.12955561622447E-5,-0.00202072594216369,0.00205872384230551));
#567=CARTESIAN_POINT('',(0.000829028332878316,-0.00154208621101057,0.00224622384230552));
#568=CARTESIAN_POINT('',(0.00171935222191888,-0.00106344647985745,0.00243372384230552));
#569=CARTESIAN_POINT('',(0.00175,-5.30835087755992E-5,0.00262122384230552));
#570=CARTESIAN_POINT('',(0.00178064777808112,0.000957279462306247,0.00280872384230552));
#571=CARTESIAN_POINT('',(0.000920971667121683,0.00148900270223497,0.00299622384230552));
#572=CARTESIAN_POINT('',(6.12955561622443E-5,0.00202072594216369,0.00318372384230552));
#573=CARTESIAN_POINT('',(-0.000829028332878316,0.00154208621101057,0.00337122384230552));
#574=CARTESIAN_POINT('',(-0.00171935222191888,0.00106344647985745,0.00355872384230551));
#575=CARTESIAN_POINT('',(-0.00175,5.30835087755995E-5,0.00374622384230552));
#576=CARTESIAN_POINT('',(-0.00178064777808112,-0.000957279462306245,0.00393372384230552));
#577=CARTESIAN_POINT('',(-0.000920971667121683,-0.00148900270223497,0.00412122384230551));
#578=CARTESIAN_POINT('',(-6.12955561622447E-5,-0.00202072594216369,0.00430872384230551));
#579=CARTESIAN_POINT('',(0.000829028332878316,-0.00154208621101057,0.00449622384230551));
#580=CARTESIAN_POINT('',(0.00171935222191888,-0.00106344647985745,0.00468372384230552));
#581=CARTESIAN_POINT('',(0.00175,-5.30835087755992E-5,0.00487122384230551));
#582=CARTESIAN_POINT('',(0.00178064777808112,0.000957279462306247,0.00505872384230551));
#583=CARTESIAN_POINT('',(0.000920971667121683,0.00148900270223497,0.00524622384230551));
#584=CARTESIAN_POINT('',(6.12955561622443E-5,0.00202072594216369,0.00543372384230552));
#585=CARTESIAN_POINT('',(-0.000829028332878316,0.00154208621101057,0.00562122384230551));
#586=CARTESIAN_POINT('',(-0.00171935222191888,0.00106344647985745,0.00580872384230552));
#587=CARTESIAN_POINT('',(-0.00175,5.30835087755995E-5,0.00599622384230551));
#588=CARTESIAN_POINT('',(-0.00178064777808112,-0.000957279462306245,0.00618372384230552));
#589=CARTESIAN_POINT('',(-0.000920971667121683,-0.00148900270223497,0.00637122384230551));
#590=CARTESIAN_POINT('',(-6.12955561622447E-5,-0.00202072594216369,0.00655872384230552));
#591=CARTESIAN_POINT('',(0.000829028332878316,-0.00154208621101057,0.00674622384230551));
#592=CARTESIAN_POINT('',(0.00171935222191888,-0.00106344647985745,0.00693372384230552));
#593=CARTESIAN_POINT('',(0.00175,-5.30835087755992E-5,0.00712122384230551));
#594=CARTESIAN_POINT('',(0.00178064777808112,0.000957279462306247,0.00730872384230552));
#595=CARTESIAN_POINT('',(0.000920971667121683,0.00148900270223497,0.00749622384230551));
#596=CARTESIAN_POINT('',(6.12955561622443E-5,0.00202072594216369,0.00768372384230552));
#597=CARTESIAN_POINT('',(-0.000829028332878316,0.00154208621101057,0.00787122384230551));
#598=CARTESIAN_POINT('',(-0.00171935222191888,0.00106344647985745,0.00805872384230552));
#599=CARTESIAN_POINT('',(-0.00175,5.30835087755995E-5,0.00824622384230551));
#600=CARTESIAN_POINT('',(-0.00178064777808112,-0.000957279462306245,0.00843372384230552));
#601=CARTESIAN_POINT('',(-0.000920971667121683,-0.00148900270223497,0.00862122384230551));
#602=CARTESIAN_POINT('',(-6.12955561622447E-5,-0.00202072594216369,0.00880872384230552));
#603=CARTESIAN_POINT('',(0.000829028332878316,-0.00154208621101057,0.00899622384230551));
#604=CARTESIAN_POINT('',(0.00171935222191888,-0.00106344647985745,0.00918372384230552));
#605=CARTESIAN_POINT('',(0.00175,-5.30835087755992E-5,0.00937122384230551));
#606=CARTESIAN_POINT('',(0.00178064777808112,0.000957279462306247,0.00955872384230553));
#607=CARTESIAN_POINT('',(0.000920971667121683,0.00148900270223497,0.00974622384230551));
#608=CARTESIAN_POINT('',(6.12955561622443E-5,0.00202072594216369,0.00993372384230552));
#609=CARTESIAN_POINT('',(-0.000829028332878316,0.00154208621101057,0.0101212238423055));
#610=CARTESIAN_POINT('',(-0.00171935222191888,0.00106344647985745,0.0103087238423055));
#611=CARTESIAN_POINT('',(-0.00175,5.30835087755995E-5,0.0104962238423055));
#612=CARTESIAN_POINT('',(-0.00178064777808112,-0.000957279462306245,0.0106837238423055));
#613=CARTESIAN_POINT('',(-0.000920971667121683,-0.00148900270223497,0.0108712238423055));
#614=CARTESIAN_POINT('',(-6.12955561622447E-5,-0.00202072594216369,0.0110587238423055));
#615=CARTESIAN_POINT('',(0.000829028332878316,-0.00154208621101057,0.0112462238423055));
#616=CARTESIAN_POINT('',(0.00171935222191888,-0.00106344647985745,0.0114337238423055));
#617=CARTESIAN_POINT('',(0.00175,-5.30835087755992E-5,0.0116212238423055));
#618=CARTESIAN_POINT('',(0.00178064777808112,0.000957279462306247,0.0118087238423055));
#619=CARTESIAN_POINT('',(0.000920971667121683,0.00148900270223497,0.0119962238423055));
#620=CARTESIAN_POINT('',(6.12955561622443E-5,0.00202072594216369,0.0121837238423055));
#621=CARTESIAN_POINT('',(-0.000829028332878316,0.00154208621101057,0.0123712238423055));
#622=CARTESIAN_POINT('',(-0.00171935222191888,0.00106344647985745,0.0125587238423055));
#623=CARTESIAN_POINT('',(-0.00175,5.30835087755995E-5,0.0127462238423055));
#624=CARTESIAN_POINT('',(-0.00178064777808112,-0.000957279462306245,0.0129337238423055));
#625=CARTESIAN_POINT('',(-0.000920971667121683,-0.00148900270223497,0.0131212238423055));
#626=CARTESIAN_POINT('',(-6.12955561622447E-5,-0.00202072594216369,0.0133087238423055));
#627=CARTESIAN_POINT('',(0.000829028332878316,-0.00154208621101057,0.0134962238423055));
#628=CARTESIAN_POINT('',(0.00171935222191888,-0.00106344647985745,0.0136837238423055));
#629=CARTESIAN_POINT('',(0.00175,-5.30835087755992E-5,0.0138712238423055));
#630=CARTESIAN_POINT('',(0.00178064777808112,0.000957279462306247,0.0140587238423055));
#631=CARTESIAN_POINT('',(0.000920971667121683,0.00148900270223497,0.0142462238423055));
#632=CARTESIAN_POINT('',(6.12955561622443E-5,0.00202072594216369,0.0144337238423055));
#633=CARTESIAN_POINT('',(-0.000829028332878316,0.00154208621101057,0.0146212238423055));
#634=CARTESIAN_POINT('',(-0.00171935222191888,0.00106344647985745,0.0148087238423055));
#635=CARTESIAN_POINT('',(-0.00175,5.30835087755995E-5,0.0149962238423055));
#636=CARTESIAN_POINT('',(-0.00178064777808112,-0.000957279462306245,0.0151837238423055));
#637=CARTESIAN_POINT('',(-0.000920971667121683,-0.00148900270223497,0.0153712238423055));
#638=CARTESIAN_POINT('',(-6.12955561622447E-5,-0.00202072594216369,0.0155587238423055));
#639=CARTESIAN_POINT('',(0.000829028332878316,-0.00154208621101057,0.0157462238423055));
#640=CARTESIAN_POINT('',(0.00171935222191888,-0.00106344647985745,0.0159337238423055));
#641=CARTESIAN_POINT('',(0.00175,-5.30835087755992E-5,0.0161212238423055));
#642=CARTESIAN_POINT('',(0.00178064777808112,0.000957279462306247,0.0163087238423055));
#643=CARTESIAN_POINT('',(0.000920971667121683,0.00148900270223497,0.0164962238423055));
#644=CARTESIAN_POINT('',(6.12955561622443E-5,0.00202072594216369,0.0166837238423055));
#645=CARTESIAN_POINT('',(-0.000829028332878316,0.00154208621101057,0.0168712238423055));
#646=CARTESIAN_POINT('',(-0.00171935222191888,0.00106344647985745,0.0170587238423055));
#647=CARTESIAN_POINT('',(-0.00175,5.30835087755995E-5,0.0172462238423055));
#648=CARTESIAN_POINT('',(-0.00178064777808112,-0.000957279462306245,0.0174337238423055));
#649=CARTESIAN_POINT('',(-0.000920971667121683,-0.00148900270223497,0.0176212238423055));
#650=CARTESIAN_POINT('',(-6.12955561622447E-5,-0.00202072594216369,0.0178087238423055));
#651=CARTESIAN_POINT('',(0.000829028332878316,-0.00154208621101057,0.0179962238423055));
#652=CARTESIAN_POINT('',(0.00171935222191888,-0.00106344647985745,0.0181837238423055));
#653=CARTESIAN_POINT('',(0.00175,-5.30835087755992E-5,0.0183712238423055));
#654=CARTESIAN_POINT('',(0.0025,-5.30835087755986E-5,0.000371223842305517));
#655=CARTESIAN_POINT('',(0.00253064777808112,0.00139029216419847,0.000558723842305516));
#656=CARTESIAN_POINT('',(0.00129597166712168,0.0021385217550733,0.000746223842305516));
#657=CARTESIAN_POINT('',(6.12955561622435E-5,0.00288675134594813,0.000933723842305516));
#658=CARTESIAN_POINT('',(-0.00120402833287832,0.0021916052638489,0.00112122384230552));
#659=CARTESIAN_POINT('',(-0.00246935222191888,0.00149645918174966,0.00130872384230551));
#660=CARTESIAN_POINT('',(-0.0025,5.30835087755989E-5,0.00149622384230552));
#661=CARTESIAN_POINT('',(-0.00253064777808112,-0.00139029216419846,0.00168372384230552));
#662=CARTESIAN_POINT('',(-0.00129597166712168,-0.0021385217550733,0.00187122384230552));
#663=CARTESIAN_POINT('',(-6.12955561622439E-5,-0.00288675134594813,0.00205872384230551));
#664=CARTESIAN_POINT('',(0.00120402833287832,-0.0021916052638489,0.00224622384230552));
#665=CARTESIAN_POINT('',(0.00246935222191888,-0.00149645918174966,0.00243372384230552));
#666=CARTESIAN_POINT('',(0.0025,-5.30835087755986E-5,0.00262122384230552));
#667=CARTESIAN_POINT('',(0.00253064777808112,0.00139029216419847,0.00280872384230552));
#668=CARTESIAN_POINT('',(0.00129597166712168,0.0021385217550733,0.00299622384230551));
#669=CARTESIAN_POINT('',(6.12955561622435E-5,0.00288675134594813,0.00318372384230552));
#670=CARTESIAN_POINT('',(-0.00120402833287832,0.0021916052638489,0.00337122384230552));
#671=CARTESIAN_POINT('',(-0.00246935222191888,0.00149645918174966,0.00355872384230552));
#672=CARTESIAN_POINT('',(-0.0025,5.30835087755989E-5,0.00374622384230552));
#673=CARTESIAN_POINT('',(-0.00253064777808112,-0.00139029216419846,0.00393372384230552));
#674=CARTESIAN_POINT('',(-0.00129597166712168,-0.0021385217550733,0.00412122384230552));
#675=CARTESIAN_POINT('',(-6.12955561622439E-5,-0.00288675134594813,0.00430872384230552));
#676=CARTESIAN_POINT('',(0.00120402833287832,-0.0021916052638489,0.00449622384230552));
#677=CARTESIAN_POINT('',(0.00246935222191888,-0.00149645918174966,0.00468372384230552));
#678=CARTESIAN_POINT('',(0.0025,-5.30835087755986E-5,0.00487122384230552));
#679=CARTESIAN_POINT('',(0.00253064777808112,0.00139029216419847,0.00505872384230552));
#680=CARTESIAN_POINT('',(0.00129597166712168,0.0021385217550733,0.00524622384230552));
#681=CARTESIAN_POINT('',(6.12955561622435E-5,0.00288675134594813,0.00543372384230552));
#682=CARTESIAN_POINT('',(-0.00120402833287832,0.0021916052638489,0.00562122384230552));
#683=CARTESIAN_POINT('',(-0.00246935222191888,0.00149645918174966,0.00580872384230551));
#684=CARTESIAN_POINT('',(-0.0025,5.30835087755989E-5,0.00599622384230552));
#685=CARTESIAN_POINT('',(-0.00253064777808112,-0.00139029216419846,0.00618372384230552));
#686=CARTESIAN_POINT('',(-0.00129597166712168,-0.0021385217550733,0.00637122384230552));
#687=CARTESIAN_POINT('',(-6.12955561622439E-5,-0.00288675134594813,0.00655872384230552));
#688=CARTESIAN_POINT('',(0.00120402833287832,-0.0021916052638489,0.00674622384230552));
#689=CARTESIAN_POINT('',(0.00246935222191888,-0.00149645918174966,0.00693372384230552));
#690=CARTESIAN_POINT('',(0.0025,-5.30835087755986E-5,0.00712122384230552));
#691=CARTESIAN_POINT('',(0.00253064777808112,0.00139029216419847,0.00730872384230552));
#692=CARTESIAN_POINT('',(0.00129597166712168,0.0021385217550733,0.00749622384230552));
#693=CARTESIAN_POINT('',(6.12955561622435E-5,0.00288675134594813,0.00768372384230552));
#694=CARTESIAN_POINT('',(-0.00120402833287832,0.0021916052638489,0.00787122384230552));
#695=CARTESIAN_POINT('',(-0.00246935222191888,0.00149645918174966,0.00805872384230552));
#696=CARTESIAN_POINT('',(-0.0025,5.30835087755989E-5,0.00824622384230552));
#697=CARTESIAN_POINT('',(-0.00253064777808112,-0.00139029216419846,0.00843372384230551));
#698=CARTESIAN_POINT('',(-0.00129597166712168,-0.0021385217550733,0.00862122384230552));
#699=CARTESIAN_POINT('',(-6.12955561622439E-5,-0.00288675134594813,0.00880872384230552));
#700=CARTESIAN_POINT('',(0.00120402833287832,-0.0021916052638489,0.00899622384230552));
#701=CARTESIAN_POINT('',(0.00246935222191888,-0.00149645918174966,0.00918372384230551));
#702=CARTESIAN_POINT('',(0.0025,-5.30835087755986E-5,0.00937122384230552));
#703=CARTESIAN_POINT('',(0.00253064777808112,0.00139029216419847,0.00955872384230552));
#704=CARTESIAN_POINT('',(0.00129597166712168,0.0021385217550733,0.00974622384230552));
#705=CARTESIAN_POINT('',(6.12955561622435E-5,0.00288675134594813,0.00993372384230551));
#706=CARTESIAN_POINT('',(-0.00120402833287832,0.0021916052638489,0.0101212238423055));
#707=CARTESIAN_POINT('',(-0.00246935222191888,0.00149645918174966,0.0103087238423055));
#708=CARTESIAN_POINT('',(-0.0025,5.30835087755989E-5,0.0104962238423055));
#709=CARTESIAN_POINT('',(-0.00253064777808112,-0.00139029216419846,0.0106837238423055));
#710=CARTESIAN_POINT('',(-0.00129597166712168,-0.0021385217550733,0.0108712238423055));
#711=CARTESIAN_POINT('',(-6.12955561622439E-5,-0.00288675134594813,0.0110587238423055));
#712=CARTESIAN_POINT('',(0.00120402833287832,-0.0021916052638489,0.0112462238423055));
#713=CARTESIAN_POINT('',(0.00246935222191888,-0.00149645918174966,0.0114337238423055));
#714=CARTESIAN_POINT('',(0.0025,-5.30835087755986E-5,0.0116212238423055));
#715=CARTESIAN_POINT('',(0.00253064777808112,0.00139029216419847,0.0118087238423055));
#716=CARTESIAN_POINT('',(0.00129597166712168,0.0021385217550733,0.0119962238423055));
#717=CARTESIAN_POINT('',(6.12955561622435E-5,0.00288675134594813,0.0121837238423055));
#718=CARTESIAN_POINT('',(-0.00120402833287832,0.0021916052638489,0.0123712238423055));
#719=CARTESIAN_POINT('',(-0.00246935222191888,0.00149645918174966,0.0125587238423055));
#720=CARTESIAN_POINT('',(-0.0025,5.30835087755989E-5,0.0127462238423055));
#721=CARTESIAN_POINT('',(-0.00253064777808112,-0.00139029216419846,0.0129337238423055));
#722=CARTESIAN_POINT('',(-0.00129597166712168,-0.0021385217550733,0.0131212238423055));
#723=CARTESIAN_POINT('',(-6.12955561622439E-5,-0.00288675134594813,0.0133087238423055));
#724=CARTESIAN_POINT('',(0.00120402833287832,-0.0021916052638489,0.0134962238423055));
#725=CARTESIAN_POINT('',(0.00246935222191888,-0.00149645918174966,0.0136837238423055));
#726=CARTESIAN_POINT('',(0.0025,-5.30835087755986E-5,0.0138712238423055));
#727=CARTESIAN_POINT('',(0.00253064777808112,0.00139029216419847,0.0140587238423055));
#728=CARTESIAN_POINT('',(0.00129597166712168,0.0021385217550733,0.0142462238423055));
#729=CARTESIAN_POINT('',(6.12955561622435E-5,0.00288675134594813,0.0144337238423055));
#730=CARTESIAN_POINT('',(-0.00120402833287832,0.0021916052638489,0.0146212238423055));
#731=CARTESIAN_POINT('',(-0.00246935222191888,0.00149645918174966,0.0148087238423055));
#732=CARTESIAN_POINT('',(-0.0025,5.30835087755989E-5,0.0149962238423055));
#733=CARTESIAN_POINT('',(-0.00253064777808112,-0.00139029216419846,0.0151837238423055));
#734=CARTESIAN_POINT('',(-0.00129597166712168,-0.0021385217550733,0.0153712238423055));
#735=CARTESIAN_POINT('',(-6.12955561622439E-5,-0.00288675134594813,0.0155587238423055));
#736=CARTESIAN_POINT('',(0.00120402833287832,-0.0021916052638489,0.0157462238423055));
#737=CARTESIAN_POINT('',(0.00246935222191888,-0.00149645918174966,0.0159337238423055));
#738=CARTESIAN_POINT('',(0.0025,-5.30835087755986E-5,0.0161212238423055));
#739=CARTESIAN_POINT('',(0.00253064777808112,0.00139029216419847,0.0163087238423055));
#740=CARTESIAN_POINT('',(0.00129597166712168,0.0021385217550733,0.0164962238423055));
#741=CARTESIAN_POINT('',(6.12955561622435E-5,0.00288675134594813,0.0166837238423055));
#742=CARTESIAN_POINT('',(-0.00120402833287832,0.0021916052638489,0.0168712238423055));
#743=CARTESIAN_POINT('',(-0.00246935222191888,0.00149645918174966,0.0170587238423055));
#744=CARTESIAN_POINT('',(-0.0025,5.30835087755989E-5,0.0172462238423055));
#745=CARTESIAN_POINT('',(-0.00253064777808112,-0.00139029216419846,0.0174337238423055));
#746=CARTESIAN_POINT('',(-0.00129597166712168,-0.0021385217550733,0.0176212238423055));
#747=CARTESIAN_POINT('',(-6.12955561622439E-5,-0.00288675134594813,0.0178087238423055));
#748=CARTESIAN_POINT('',(0.00120402833287832,-0.0021916052638489,0.0179962238423055));
#749=CARTESIAN_POINT('',(0.00246935222191888,-0.00149645918174966,0.0181837238423055));
#750=CARTESIAN_POINT('',(0.0025,-5.30835087755986E-5,0.0183712238423055));
#751=CARTESIAN_POINT('',(0.0025,-3.25042745547709E-21,0.018));
#752=CARTESIAN_POINT('',(0.0025,-5.30835087755986E-5,0.0183712238423055));
#753=CARTESIAN_POINT('',(0.0025,-3.25042745547709E-21,2.27309045123317E-20));
#754=CARTESIAN_POINT('',(0.0025,-5.30835087755986E-5,0.000371223842305517));
#755=CARTESIAN_POINT('',(0.0025,1.92592994438723E-33,0.018));
#756=CARTESIAN_POINT('',(0.0025,1.92592994438723E-33,2.88889491658086E-34));
#757=MECHANICAL_DESIGN_GEOMETRIC_PRESENTATION_REPRESENTATION('',(#45),#758);
#758=(
GEOMETRIC_REPRESENTATION_CONTEXT(3)
GLOBAL_UNCERTAINTY_ASSIGNED_CONTEXT((#759))
GLOBAL_UNIT_ASSIGNED_CONTEXT((#762,#761,#760))
REPRESENTATION_CONTEXT('Compression Spring','TOP_LEVEL_ASSEMBLY_PART')
);
#759=UNCERTAINTY_MEASURE_WITH_UNIT(LENGTH_MEASURE(1.E-8),#762,
'DISTANCE_ACCURACY_VALUE','Maximum Tolerance applied to model');
#760=(
NAMED_UNIT(*)
SI_UNIT($,.STERADIAN.)
SOLID_ANGLE_UNIT()
);
#761=(
NAMED_UNIT(*)
PLANE_ANGLE_UNIT()
SI_UNIT($,.RADIAN.)
);
#762=(
LENGTH_UNIT()
NAMED_UNIT(*)
SI_UNIT($,.METRE.)
);
#763=PRODUCT_DEFINITION_SHAPE('','',#764);
#764=PRODUCT_DEFINITION('','',#766,#765);
#765=PRODUCT_DEFINITION_CONTEXT('',#772,'design');
#766=PRODUCT_DEFINITION_FORMATION_WITH_SPECIFIED_SOURCE('','',#768,
 .NOT_KNOWN.);
#767=PRODUCT_RELATED_PRODUCT_CATEGORY('','',(#768));
#768=PRODUCT('Compression Spring','Compression Spring',
'Compression Spring',(#770));
#769=PRODUCT_CATEGORY('','');
#770=PRODUCT_CONTEXT('',#772,'mechanical');
#771=APPLICATION_PROTOCOL_DEFINITION('international standard',
'automotive_design',2010,#772);
#772=APPLICATION_CONTEXT(
'core data for automotive mechanical design processes');
ENDSEC;
END-ISO-10303-21;
