ISO-10303-21;
HEADER;
/* Generated by software containing ST-Developer
 * from STEP Tools, Inc. (www.steptools.com) 
 */
/* OPTION: using custom renumber hook */

FILE_DESCRIPTION(
/* description */ ('STEP AP214',
'CAx-IF Rec.Pracs.---User Defined Attributes---1.5---2016-08-15'),
/* implementation_level */ '2;1');

FILE_NAME(
/* name */ '6a7e0c73ca83b69d0ab77a8a',
/* time_stamp */ '2026-08-13T18:26:59Z',
/* author */ (''),
/* organization */ (''),
/* preprocessor_version */ 'ST-DEVELOPER v20',
/* originating_system */ 'ONSHAPE BY PTC INC, 1.219',
/* authorisation */ '  ');

FILE_SCHEMA (('AUTOMOTIVE_DESIGN {1 0 10303 214 3 1 1}'));
ENDSEC;

DATA;
#10=PROPERTY_DEFINITION_REPRESENTATION(#14,#12);
#11=PROPERTY_DEFINITION_REPRESENTATION(#15,#13);
#12=REPRESENTATION('',(#16),#2027);
#13=REPRESENTATION('',(#17),#2027);
#14=PROPERTY_DEFINITION('pmi validation property','',#2032);
#15=PROPERTY_DEFINITION('pmi validation property','',#2032);
#16=VALUE_REPRESENTATION_ITEM('number of annotations',COUNT_MEASURE(0.));
#17=VALUE_REPRESENTATION_ITEM('number of views',COUNT_MEASURE(0.));
#18=SHAPE_REPRESENTATION_RELATIONSHIP('','',#1141,#19);
#19=ADVANCED_BREP_SHAPE_REPRESENTATION('',(#1139),#2027);
#20=TOROIDAL_SURFACE('',#1219,0.002,0.0005);
#21=TOROIDAL_SURFACE('',#1223,0.004,0.0005);
#22=TOROIDAL_SURFACE('',#1227,0.002,0.0005);
#23=TOROIDAL_SURFACE('',#1231,0.004,0.0005);
#24=TOROIDAL_SURFACE('',#1235,0.002,0.0005);
#25=TOROIDAL_SURFACE('',#1240,0.004,0.0005);
#26=TOROIDAL_SURFACE('',#1244,0.002,0.0005);
#27=TOROIDAL_SURFACE('',#1248,0.004,0.0005);
#28=TOROIDAL_SURFACE('',#1252,0.002,0.0005);
#29=TOROIDAL_SURFACE('',#1256,0.004,0.0005);
#30=TOROIDAL_SURFACE('',#1261,0.002,0.0005);
#31=TOROIDAL_SURFACE('',#1265,0.004,0.0005);
#32=TOROIDAL_SURFACE('',#1269,0.002,0.0005);
#33=TOROIDAL_SURFACE('',#1273,0.004,0.0005);
#34=TOROIDAL_SURFACE('',#1277,0.002,0.0005);
#35=TOROIDAL_SURFACE('',#1282,0.004,0.0005);
#36=TOROIDAL_SURFACE('',#1286,0.002,0.0005);
#37=TOROIDAL_SURFACE('',#1290,0.004,0.0005);
#38=TOROIDAL_SURFACE('',#1294,0.002,0.0005);
#39=TOROIDAL_SURFACE('',#1298,0.004,0.0005);
#40=CYLINDRICAL_SURFACE('',#1150,0.0015);
#41=CYLINDRICAL_SURFACE('',#1154,0.0045);
#42=CYLINDRICAL_SURFACE('',#1158,0.0015);
#43=CYLINDRICAL_SURFACE('',#1162,0.0045);
#44=CYLINDRICAL_SURFACE('',#1166,0.0015);
#45=CYLINDRICAL_SURFACE('',#1176,0.0045);
#46=CYLINDRICAL_SURFACE('',#1180,0.0015);
#47=CYLINDRICAL_SURFACE('',#1184,0.0045);
#48=CYLINDRICAL_SURFACE('',#1188,0.0015);
#49=CYLINDRICAL_SURFACE('',#1192,0.0045);
#50=CYLINDRICAL_SURFACE('',#1217,0.0005);
#51=CYLINDRICAL_SURFACE('',#1221,0.0005);
#52=CYLINDRICAL_SURFACE('',#1225,0.0005);
#53=CYLINDRICAL_SURFACE('',#1229,0.0005);
#54=CYLINDRICAL_SURFACE('',#1233,0.0005);
#55=CYLINDRICAL_SURFACE('',#1237,0.0005);
#56=CYLINDRICAL_SURFACE('',#1238,0.0005);
#57=CYLINDRICAL_SURFACE('',#1242,0.0005);
#58=CYLINDRICAL_SURFACE('',#1246,0.0005);
#59=CYLINDRICAL_SURFACE('',#1250,0.0005);
#60=CYLINDRICAL_SURFACE('',#1254,0.0005);
#61=CYLINDRICAL_SURFACE('',#1258,0.0005);
#62=CYLINDRICAL_SURFACE('',#1259,0.0005);
#63=CYLINDRICAL_SURFACE('',#1263,0.0005);
#64=CYLINDRICAL_SURFACE('',#1267,0.0005);
#65=CYLINDRICAL_SURFACE('',#1271,0.0005);
#66=CYLINDRICAL_SURFACE('',#1275,0.0005);
#67=CYLINDRICAL_SURFACE('',#1279,0.0005);
#68=CYLINDRICAL_SURFACE('',#1280,0.0005);
#69=CYLINDRICAL_SURFACE('',#1284,0.0005);
#70=CYLINDRICAL_SURFACE('',#1288,0.0005);
#71=CYLINDRICAL_SURFACE('',#1292,0.0005);
#72=CYLINDRICAL_SURFACE('',#1296,0.0005);
#73=CYLINDRICAL_SURFACE('',#1300,0.0005);
#74=CIRCLE('',#1145,0.0005);
#75=CIRCLE('',#1146,0.0005);
#76=CIRCLE('',#1147,0.0005);
#77=CIRCLE('',#1148,0.0005);
#78=CIRCLE('',#1151,0.0015);
#79=CIRCLE('',#1152,0.0015);
#80=CIRCLE('',#1155,0.0045);
#81=CIRCLE('',#1156,0.0045);
#82=CIRCLE('',#1159,0.0015);
#83=CIRCLE('',#1160,0.0015);
#84=CIRCLE('',#1163,0.0045);
#85=CIRCLE('',#1164,0.0045);
#86=CIRCLE('',#1167,0.0015);
#87=CIRCLE('',#1168,0.0015);
#88=CIRCLE('',#1171,0.0005);
#89=CIRCLE('',#1172,0.0005);
#90=CIRCLE('',#1173,0.0005);
#91=CIRCLE('',#1174,0.0005);
#92=CIRCLE('',#1177,0.0045);
#93=CIRCLE('',#1178,0.0045);
#94=CIRCLE('',#1181,0.0015);
#95=CIRCLE('',#1182,0.0015);
#96=CIRCLE('',#1185,0.0045);
#97=CIRCLE('',#1186,0.0045);
#98=CIRCLE('',#1189,0.0015);
#99=CIRCLE('',#1190,0.0015);
#100=CIRCLE('',#1193,0.0045);
#101=CIRCLE('',#1194,0.0045);
#102=CIRCLE('',#1196,0.002);
#103=CIRCLE('',#1197,0.004);
#104=CIRCLE('',#1198,0.002);
#105=CIRCLE('',#1199,0.004);
#106=CIRCLE('',#1200,0.002);
#107=CIRCLE('',#1201,0.004);
#108=CIRCLE('',#1202,0.002);
#109=CIRCLE('',#1203,0.004);
#110=CIRCLE('',#1204,0.002);
#111=CIRCLE('',#1205,0.004);
#112=CIRCLE('',#1207,0.002);
#113=CIRCLE('',#1208,0.004);
#114=CIRCLE('',#1209,0.002);
#115=CIRCLE('',#1210,0.004);
#116=CIRCLE('',#1211,0.002);
#117=CIRCLE('',#1212,0.004);
#118=CIRCLE('',#1213,0.002);
#119=CIRCLE('',#1214,0.004);
#120=CIRCLE('',#1215,0.002);
#121=CIRCLE('',#1216,0.004);
#122=CIRCLE('',#1218,0.0005);
#123=CIRCLE('',#1220,0.0005);
#124=CIRCLE('',#1222,0.0005);
#125=CIRCLE('',#1224,0.0005);
#126=CIRCLE('',#1226,0.0005);
#127=CIRCLE('',#1228,0.0005);
#128=CIRCLE('',#1230,0.0005);
#129=CIRCLE('',#1232,0.0005);
#130=CIRCLE('',#1234,0.0005);
#131=CIRCLE('',#1236,0.0005);
#132=CIRCLE('',#1239,0.0005);
#133=CIRCLE('',#1241,0.0005);
#134=CIRCLE('',#1243,0.0005);
#135=CIRCLE('',#1245,0.0005);
#136=CIRCLE('',#1247,0.0005);
#137=CIRCLE('',#1249,0.0005);
#138=CIRCLE('',#1251,0.0005);
#139=CIRCLE('',#1253,0.0005);
#140=CIRCLE('',#1255,0.0005);
#141=CIRCLE('',#1257,0.0005);
#142=CIRCLE('',#1260,0.0005);
#143=CIRCLE('',#1262,0.0005);
#144=CIRCLE('',#1264,0.0005);
#145=CIRCLE('',#1266,0.0005);
#146=CIRCLE('',#1268,0.0005);
#147=CIRCLE('',#1270,0.0005);
#148=CIRCLE('',#1272,0.0005);
#149=CIRCLE('',#1274,0.0005);
#150=CIRCLE('',#1276,0.0005);
#151=CIRCLE('',#1278,0.0005);
#152=CIRCLE('',#1281,0.0005);
#153=CIRCLE('',#1283,0.0005);
#154=CIRCLE('',#1285,0.0005);
#155=CIRCLE('',#1287,0.0005);
#156=CIRCLE('',#1289,0.0005);
#157=CIRCLE('',#1291,0.0005);
#158=CIRCLE('',#1293,0.0005);
#159=CIRCLE('',#1295,0.0005);
#160=CIRCLE('',#1297,0.0005);
#161=CIRCLE('',#1299,0.0005);
#162=ORIENTED_EDGE('',*,*,#490,.T.);
#163=ORIENTED_EDGE('',*,*,#491,.T.);
#164=ORIENTED_EDGE('',*,*,#492,.F.);
#165=ORIENTED_EDGE('',*,*,#493,.T.);
#166=ORIENTED_EDGE('',*,*,#494,.T.);
#167=ORIENTED_EDGE('',*,*,#495,.T.);
#168=ORIENTED_EDGE('',*,*,#496,.F.);
#169=ORIENTED_EDGE('',*,*,#497,.T.);
#170=ORIENTED_EDGE('',*,*,#498,.F.);
#171=ORIENTED_EDGE('',*,*,#499,.T.);
#172=ORIENTED_EDGE('',*,*,#492,.T.);
#173=ORIENTED_EDGE('',*,*,#500,.T.);
#174=ORIENTED_EDGE('',*,*,#496,.T.);
#175=ORIENTED_EDGE('',*,*,#501,.T.);
#176=ORIENTED_EDGE('',*,*,#502,.F.);
#177=ORIENTED_EDGE('',*,*,#503,.T.);
#178=ORIENTED_EDGE('',*,*,#502,.T.);
#179=ORIENTED_EDGE('',*,*,#504,.T.);
#180=ORIENTED_EDGE('',*,*,#505,.F.);
#181=ORIENTED_EDGE('',*,*,#506,.T.);
#182=ORIENTED_EDGE('',*,*,#505,.T.);
#183=ORIENTED_EDGE('',*,*,#507,.T.);
#184=ORIENTED_EDGE('',*,*,#508,.F.);
#185=ORIENTED_EDGE('',*,*,#509,.T.);
#186=ORIENTED_EDGE('',*,*,#508,.T.);
#187=ORIENTED_EDGE('',*,*,#510,.T.);
#188=ORIENTED_EDGE('',*,*,#511,.F.);
#189=ORIENTED_EDGE('',*,*,#512,.T.);
#190=ORIENTED_EDGE('',*,*,#511,.T.);
#191=ORIENTED_EDGE('',*,*,#513,.T.);
#192=ORIENTED_EDGE('',*,*,#514,.F.);
#193=ORIENTED_EDGE('',*,*,#515,.T.);
#194=ORIENTED_EDGE('',*,*,#514,.T.);
#195=ORIENTED_EDGE('',*,*,#516,.T.);
#196=ORIENTED_EDGE('',*,*,#517,.F.);
#197=ORIENTED_EDGE('',*,*,#518,.T.);
#198=ORIENTED_EDGE('',*,*,#517,.T.);
#199=ORIENTED_EDGE('',*,*,#519,.T.);
#200=ORIENTED_EDGE('',*,*,#520,.F.);
#201=ORIENTED_EDGE('',*,*,#521,.T.);
#202=ORIENTED_EDGE('',*,*,#520,.T.);
#203=ORIENTED_EDGE('',*,*,#522,.T.);
#204=ORIENTED_EDGE('',*,*,#523,.F.);
#205=ORIENTED_EDGE('',*,*,#524,.T.);
#206=ORIENTED_EDGE('',*,*,#523,.T.);
#207=ORIENTED_EDGE('',*,*,#525,.T.);
#208=ORIENTED_EDGE('',*,*,#526,.F.);
#209=ORIENTED_EDGE('',*,*,#527,.T.);
#210=ORIENTED_EDGE('',*,*,#526,.T.);
#211=ORIENTED_EDGE('',*,*,#528,.T.);
#212=ORIENTED_EDGE('',*,*,#529,.F.);
#213=ORIENTED_EDGE('',*,*,#530,.T.);
#214=ORIENTED_EDGE('',*,*,#529,.T.);
#215=ORIENTED_EDGE('',*,*,#531,.T.);
#216=ORIENTED_EDGE('',*,*,#532,.F.);
#217=ORIENTED_EDGE('',*,*,#533,.T.);
#218=ORIENTED_EDGE('',*,*,#532,.T.);
#219=ORIENTED_EDGE('',*,*,#534,.T.);
#220=ORIENTED_EDGE('',*,*,#535,.T.);
#221=ORIENTED_EDGE('',*,*,#536,.T.);
#222=ORIENTED_EDGE('',*,*,#537,.F.);
#223=ORIENTED_EDGE('',*,*,#538,.T.);
#224=ORIENTED_EDGE('',*,*,#539,.F.);
#225=ORIENTED_EDGE('',*,*,#540,.T.);
#226=ORIENTED_EDGE('',*,*,#537,.T.);
#227=ORIENTED_EDGE('',*,*,#541,.T.);
#228=ORIENTED_EDGE('',*,*,#542,.F.);
#229=ORIENTED_EDGE('',*,*,#543,.T.);
#230=ORIENTED_EDGE('',*,*,#542,.T.);
#231=ORIENTED_EDGE('',*,*,#544,.T.);
#232=ORIENTED_EDGE('',*,*,#545,.F.);
#233=ORIENTED_EDGE('',*,*,#546,.T.);
#234=ORIENTED_EDGE('',*,*,#545,.T.);
#235=ORIENTED_EDGE('',*,*,#547,.T.);
#236=ORIENTED_EDGE('',*,*,#548,.F.);
#237=ORIENTED_EDGE('',*,*,#549,.T.);
#238=ORIENTED_EDGE('',*,*,#548,.T.);
#239=ORIENTED_EDGE('',*,*,#550,.T.);
#240=ORIENTED_EDGE('',*,*,#551,.F.);
#241=ORIENTED_EDGE('',*,*,#552,.T.);
#242=ORIENTED_EDGE('',*,*,#551,.T.);
#243=ORIENTED_EDGE('',*,*,#553,.T.);
#244=ORIENTED_EDGE('',*,*,#554,.F.);
#245=ORIENTED_EDGE('',*,*,#555,.T.);
#246=ORIENTED_EDGE('',*,*,#554,.T.);
#247=ORIENTED_EDGE('',*,*,#556,.T.);
#248=ORIENTED_EDGE('',*,*,#557,.F.);
#249=ORIENTED_EDGE('',*,*,#558,.T.);
#250=ORIENTED_EDGE('',*,*,#557,.T.);
#251=ORIENTED_EDGE('',*,*,#559,.T.);
#252=ORIENTED_EDGE('',*,*,#560,.F.);
#253=ORIENTED_EDGE('',*,*,#561,.T.);
#254=ORIENTED_EDGE('',*,*,#560,.T.);
#255=ORIENTED_EDGE('',*,*,#562,.T.);
#256=ORIENTED_EDGE('',*,*,#563,.F.);
#257=ORIENTED_EDGE('',*,*,#564,.T.);
#258=ORIENTED_EDGE('',*,*,#563,.T.);
#259=ORIENTED_EDGE('',*,*,#565,.T.);
#260=ORIENTED_EDGE('',*,*,#566,.F.);
#261=ORIENTED_EDGE('',*,*,#567,.T.);
#262=ORIENTED_EDGE('',*,*,#566,.T.);
#263=ORIENTED_EDGE('',*,*,#568,.T.);
#264=ORIENTED_EDGE('',*,*,#490,.F.);
#265=ORIENTED_EDGE('',*,*,#569,.T.);
#266=ORIENTED_EDGE('',*,*,#570,.T.);
#267=ORIENTED_EDGE('',*,*,#571,.T.);
#268=ORIENTED_EDGE('',*,*,#539,.T.);
#269=ORIENTED_EDGE('',*,*,#572,.T.);
#270=ORIENTED_EDGE('',*,*,#573,.T.);
#271=ORIENTED_EDGE('',*,*,#574,.T.);
#272=ORIENTED_EDGE('',*,*,#575,.T.);
#273=ORIENTED_EDGE('',*,*,#576,.T.);
#274=ORIENTED_EDGE('',*,*,#577,.T.);
#275=ORIENTED_EDGE('',*,*,#578,.T.);
#276=ORIENTED_EDGE('',*,*,#579,.T.);
#277=ORIENTED_EDGE('',*,*,#580,.T.);
#278=ORIENTED_EDGE('',*,*,#581,.T.);
#279=ORIENTED_EDGE('',*,*,#582,.T.);
#280=ORIENTED_EDGE('',*,*,#498,.T.);
#281=ORIENTED_EDGE('',*,*,#583,.T.);
#282=ORIENTED_EDGE('',*,*,#584,.T.);
#283=ORIENTED_EDGE('',*,*,#585,.T.);
#284=ORIENTED_EDGE('',*,*,#586,.T.);
#285=ORIENTED_EDGE('',*,*,#587,.T.);
#286=ORIENTED_EDGE('',*,*,#588,.T.);
#287=ORIENTED_EDGE('',*,*,#589,.T.);
#288=ORIENTED_EDGE('',*,*,#590,.T.);
#289=ORIENTED_EDGE('',*,*,#591,.T.);
#290=ORIENTED_EDGE('',*,*,#592,.T.);
#291=ORIENTED_EDGE('',*,*,#593,.T.);
#292=ORIENTED_EDGE('',*,*,#494,.F.);
#293=ORIENTED_EDGE('',*,*,#594,.T.);
#294=ORIENTED_EDGE('',*,*,#595,.T.);
#295=ORIENTED_EDGE('',*,*,#596,.T.);
#296=ORIENTED_EDGE('',*,*,#597,.T.);
#297=ORIENTED_EDGE('',*,*,#598,.T.);
#298=ORIENTED_EDGE('',*,*,#599,.T.);
#299=ORIENTED_EDGE('',*,*,#600,.T.);
#300=ORIENTED_EDGE('',*,*,#601,.T.);
#301=ORIENTED_EDGE('',*,*,#602,.T.);
#302=ORIENTED_EDGE('',*,*,#603,.T.);
#303=ORIENTED_EDGE('',*,*,#604,.T.);
#304=ORIENTED_EDGE('',*,*,#535,.F.);
#305=ORIENTED_EDGE('',*,*,#605,.T.);
#306=ORIENTED_EDGE('',*,*,#606,.T.);
#307=ORIENTED_EDGE('',*,*,#607,.T.);
#308=ORIENTED_EDGE('',*,*,#608,.T.);
#309=ORIENTED_EDGE('',*,*,#609,.T.);
#310=ORIENTED_EDGE('',*,*,#610,.T.);
#311=ORIENTED_EDGE('',*,*,#611,.T.);
#312=ORIENTED_EDGE('',*,*,#612,.T.);
#313=ORIENTED_EDGE('',*,*,#613,.T.);
#314=ORIENTED_EDGE('',*,*,#534,.F.);
#315=ORIENTED_EDGE('',*,*,#531,.F.);
#316=ORIENTED_EDGE('',*,*,#614,.F.);
#317=ORIENTED_EDGE('',*,*,#605,.F.);
#318=ORIENTED_EDGE('',*,*,#614,.T.);
#319=ORIENTED_EDGE('',*,*,#528,.F.);
#320=ORIENTED_EDGE('',*,*,#615,.F.);
#321=ORIENTED_EDGE('',*,*,#606,.F.);
#322=ORIENTED_EDGE('',*,*,#615,.T.);
#323=ORIENTED_EDGE('',*,*,#525,.F.);
#324=ORIENTED_EDGE('',*,*,#616,.F.);
#325=ORIENTED_EDGE('',*,*,#607,.F.);
#326=ORIENTED_EDGE('',*,*,#616,.T.);
#327=ORIENTED_EDGE('',*,*,#522,.F.);
#328=ORIENTED_EDGE('',*,*,#617,.F.);
#329=ORIENTED_EDGE('',*,*,#608,.F.);
#330=ORIENTED_EDGE('',*,*,#617,.T.);
#331=ORIENTED_EDGE('',*,*,#519,.F.);
#332=ORIENTED_EDGE('',*,*,#618,.F.);
#333=ORIENTED_EDGE('',*,*,#609,.F.);
#334=ORIENTED_EDGE('',*,*,#618,.T.);
#335=ORIENTED_EDGE('',*,*,#516,.F.);
#336=ORIENTED_EDGE('',*,*,#619,.F.);
#337=ORIENTED_EDGE('',*,*,#610,.F.);
#338=ORIENTED_EDGE('',*,*,#619,.T.);
#339=ORIENTED_EDGE('',*,*,#513,.F.);
#340=ORIENTED_EDGE('',*,*,#620,.F.);
#341=ORIENTED_EDGE('',*,*,#611,.F.);
#342=ORIENTED_EDGE('',*,*,#620,.T.);
#343=ORIENTED_EDGE('',*,*,#510,.F.);
#344=ORIENTED_EDGE('',*,*,#621,.F.);
#345=ORIENTED_EDGE('',*,*,#612,.F.);
#346=ORIENTED_EDGE('',*,*,#621,.T.);
#347=ORIENTED_EDGE('',*,*,#507,.F.);
#348=ORIENTED_EDGE('',*,*,#622,.F.);
#349=ORIENTED_EDGE('',*,*,#613,.F.);
#350=ORIENTED_EDGE('',*,*,#622,.T.);
#351=ORIENTED_EDGE('',*,*,#504,.F.);
#352=ORIENTED_EDGE('',*,*,#623,.F.);
#353=ORIENTED_EDGE('',*,*,#592,.F.);
#354=ORIENTED_EDGE('',*,*,#495,.F.);
#355=ORIENTED_EDGE('',*,*,#593,.F.);
#356=ORIENTED_EDGE('',*,*,#623,.T.);
#357=ORIENTED_EDGE('',*,*,#501,.F.);
#358=ORIENTED_EDGE('',*,*,#536,.F.);
#359=ORIENTED_EDGE('',*,*,#604,.F.);
#360=ORIENTED_EDGE('',*,*,#624,.F.);
#361=ORIENTED_EDGE('',*,*,#541,.F.);
#362=ORIENTED_EDGE('',*,*,#624,.T.);
#363=ORIENTED_EDGE('',*,*,#603,.F.);
#364=ORIENTED_EDGE('',*,*,#625,.F.);
#365=ORIENTED_EDGE('',*,*,#544,.F.);
#366=ORIENTED_EDGE('',*,*,#625,.T.);
#367=ORIENTED_EDGE('',*,*,#602,.F.);
#368=ORIENTED_EDGE('',*,*,#626,.F.);
#369=ORIENTED_EDGE('',*,*,#547,.F.);
#370=ORIENTED_EDGE('',*,*,#626,.T.);
#371=ORIENTED_EDGE('',*,*,#601,.F.);
#372=ORIENTED_EDGE('',*,*,#627,.F.);
#373=ORIENTED_EDGE('',*,*,#550,.F.);
#374=ORIENTED_EDGE('',*,*,#627,.T.);
#375=ORIENTED_EDGE('',*,*,#600,.F.);
#376=ORIENTED_EDGE('',*,*,#628,.F.);
#377=ORIENTED_EDGE('',*,*,#553,.F.);
#378=ORIENTED_EDGE('',*,*,#628,.T.);
#379=ORIENTED_EDGE('',*,*,#599,.F.);
#380=ORIENTED_EDGE('',*,*,#629,.F.);
#381=ORIENTED_EDGE('',*,*,#556,.F.);
#382=ORIENTED_EDGE('',*,*,#629,.T.);
#383=ORIENTED_EDGE('',*,*,#598,.F.);
#384=ORIENTED_EDGE('',*,*,#630,.F.);
#385=ORIENTED_EDGE('',*,*,#559,.F.);
#386=ORIENTED_EDGE('',*,*,#630,.T.);
#387=ORIENTED_EDGE('',*,*,#597,.F.);
#388=ORIENTED_EDGE('',*,*,#631,.F.);
#389=ORIENTED_EDGE('',*,*,#562,.F.);
#390=ORIENTED_EDGE('',*,*,#631,.T.);
#391=ORIENTED_EDGE('',*,*,#596,.F.);
#392=ORIENTED_EDGE('',*,*,#632,.F.);
#393=ORIENTED_EDGE('',*,*,#565,.F.);
#394=ORIENTED_EDGE('',*,*,#632,.T.);
#395=ORIENTED_EDGE('',*,*,#595,.F.);
#396=ORIENTED_EDGE('',*,*,#633,.F.);
#397=ORIENTED_EDGE('',*,*,#568,.F.);
#398=ORIENTED_EDGE('',*,*,#500,.F.);
#399=ORIENTED_EDGE('',*,*,#491,.F.);
#400=ORIENTED_EDGE('',*,*,#633,.T.);
#401=ORIENTED_EDGE('',*,*,#594,.F.);
#402=ORIENTED_EDGE('',*,*,#497,.F.);
#403=ORIENTED_EDGE('',*,*,#503,.F.);
#404=ORIENTED_EDGE('',*,*,#634,.F.);
#405=ORIENTED_EDGE('',*,*,#583,.F.);
#406=ORIENTED_EDGE('',*,*,#634,.T.);
#407=ORIENTED_EDGE('',*,*,#506,.F.);
#408=ORIENTED_EDGE('',*,*,#635,.F.);
#409=ORIENTED_EDGE('',*,*,#584,.F.);
#410=ORIENTED_EDGE('',*,*,#635,.T.);
#411=ORIENTED_EDGE('',*,*,#509,.F.);
#412=ORIENTED_EDGE('',*,*,#636,.F.);
#413=ORIENTED_EDGE('',*,*,#585,.F.);
#414=ORIENTED_EDGE('',*,*,#636,.T.);
#415=ORIENTED_EDGE('',*,*,#512,.F.);
#416=ORIENTED_EDGE('',*,*,#637,.F.);
#417=ORIENTED_EDGE('',*,*,#586,.F.);
#418=ORIENTED_EDGE('',*,*,#637,.T.);
#419=ORIENTED_EDGE('',*,*,#515,.F.);
#420=ORIENTED_EDGE('',*,*,#638,.F.);
#421=ORIENTED_EDGE('',*,*,#587,.F.);
#422=ORIENTED_EDGE('',*,*,#638,.T.);
#423=ORIENTED_EDGE('',*,*,#518,.F.);
#424=ORIENTED_EDGE('',*,*,#639,.F.);
#425=ORIENTED_EDGE('',*,*,#588,.F.);
#426=ORIENTED_EDGE('',*,*,#639,.T.);
#427=ORIENTED_EDGE('',*,*,#521,.F.);
#428=ORIENTED_EDGE('',*,*,#640,.F.);
#429=ORIENTED_EDGE('',*,*,#589,.F.);
#430=ORIENTED_EDGE('',*,*,#640,.T.);
#431=ORIENTED_EDGE('',*,*,#524,.F.);
#432=ORIENTED_EDGE('',*,*,#641,.F.);
#433=ORIENTED_EDGE('',*,*,#590,.F.);
#434=ORIENTED_EDGE('',*,*,#641,.T.);
#435=ORIENTED_EDGE('',*,*,#527,.F.);
#436=ORIENTED_EDGE('',*,*,#642,.F.);
#437=ORIENTED_EDGE('',*,*,#591,.F.);
#438=ORIENTED_EDGE('',*,*,#642,.T.);
#439=ORIENTED_EDGE('',*,*,#530,.F.);
#440=ORIENTED_EDGE('',*,*,#643,.F.);
#441=ORIENTED_EDGE('',*,*,#570,.F.);
#442=ORIENTED_EDGE('',*,*,#643,.T.);
#443=ORIENTED_EDGE('',*,*,#533,.F.);
#444=ORIENTED_EDGE('',*,*,#540,.F.);
#445=ORIENTED_EDGE('',*,*,#571,.F.);
#446=ORIENTED_EDGE('',*,*,#538,.F.);
#447=ORIENTED_EDGE('',*,*,#543,.F.);
#448=ORIENTED_EDGE('',*,*,#644,.F.);
#449=ORIENTED_EDGE('',*,*,#572,.F.);
#450=ORIENTED_EDGE('',*,*,#644,.T.);
#451=ORIENTED_EDGE('',*,*,#546,.F.);
#452=ORIENTED_EDGE('',*,*,#645,.F.);
#453=ORIENTED_EDGE('',*,*,#573,.F.);
#454=ORIENTED_EDGE('',*,*,#645,.T.);
#455=ORIENTED_EDGE('',*,*,#549,.F.);
#456=ORIENTED_EDGE('',*,*,#646,.F.);
#457=ORIENTED_EDGE('',*,*,#574,.F.);
#458=ORIENTED_EDGE('',*,*,#646,.T.);
#459=ORIENTED_EDGE('',*,*,#552,.F.);
#460=ORIENTED_EDGE('',*,*,#647,.F.);
#461=ORIENTED_EDGE('',*,*,#575,.F.);
#462=ORIENTED_EDGE('',*,*,#647,.T.);
#463=ORIENTED_EDGE('',*,*,#555,.F.);
#464=ORIENTED_EDGE('',*,*,#648,.F.);
#465=ORIENTED_EDGE('',*,*,#576,.F.);
#466=ORIENTED_EDGE('',*,*,#648,.T.);
#467=ORIENTED_EDGE('',*,*,#558,.F.);
#468=ORIENTED_EDGE('',*,*,#649,.F.);
#469=ORIENTED_EDGE('',*,*,#577,.F.);
#470=ORIENTED_EDGE('',*,*,#649,.T.);
#471=ORIENTED_EDGE('',*,*,#561,.F.);
#472=ORIENTED_EDGE('',*,*,#650,.F.);
#473=ORIENTED_EDGE('',*,*,#578,.F.);
#474=ORIENTED_EDGE('',*,*,#650,.T.);
#475=ORIENTED_EDGE('',*,*,#564,.F.);
#476=ORIENTED_EDGE('',*,*,#651,.F.);
#477=ORIENTED_EDGE('',*,*,#579,.F.);
#478=ORIENTED_EDGE('',*,*,#651,.T.);
#479=ORIENTED_EDGE('',*,*,#567,.F.);
#480=ORIENTED_EDGE('',*,*,#652,.F.);
#481=ORIENTED_EDGE('',*,*,#580,.F.);
#482=ORIENTED_EDGE('',*,*,#652,.T.);
#483=ORIENTED_EDGE('',*,*,#569,.F.);
#484=ORIENTED_EDGE('',*,*,#653,.F.);
#485=ORIENTED_EDGE('',*,*,#581,.F.);
#486=ORIENTED_EDGE('',*,*,#499,.F.);
#487=ORIENTED_EDGE('',*,*,#582,.F.);
#488=ORIENTED_EDGE('',*,*,#653,.T.);
#489=ORIENTED_EDGE('',*,*,#493,.F.);
#490=EDGE_CURVE('',#654,#655,#750,.T.);
#491=EDGE_CURVE('',#655,#656,#751,.F.);
#492=EDGE_CURVE('',#657,#656,#752,.T.);
#493=EDGE_CURVE('',#657,#654,#753,.T.);
#494=EDGE_CURVE('',#658,#659,#754,.T.);
#495=EDGE_CURVE('',#659,#660,#74,.F.);
#496=EDGE_CURVE('',#661,#660,#755,.T.);
#497=EDGE_CURVE('',#661,#662,#75,.F.);
#498=EDGE_CURVE('',#663,#662,#756,.T.);
#499=EDGE_CURVE('',#663,#657,#76,.F.);
#500=EDGE_CURVE('',#656,#658,#77,.F.);
#501=EDGE_CURVE('',#660,#664,#757,.T.);
#502=EDGE_CURVE('',#665,#664,#758,.T.);
#503=EDGE_CURVE('',#665,#661,#759,.F.);
#504=EDGE_CURVE('',#664,#666,#78,.F.);
#505=EDGE_CURVE('',#667,#666,#760,.T.);
#506=EDGE_CURVE('',#667,#665,#79,.T.);
#507=EDGE_CURVE('',#666,#668,#761,.T.);
#508=EDGE_CURVE('',#669,#668,#762,.T.);
#509=EDGE_CURVE('',#669,#667,#763,.F.);
#510=EDGE_CURVE('',#668,#670,#80,.T.);
#511=EDGE_CURVE('',#671,#670,#764,.T.);
#512=EDGE_CURVE('',#671,#669,#81,.F.);
#513=EDGE_CURVE('',#670,#672,#765,.T.);
#514=EDGE_CURVE('',#673,#672,#766,.T.);
#515=EDGE_CURVE('',#673,#671,#767,.F.);
#516=EDGE_CURVE('',#672,#674,#82,.F.);
#517=EDGE_CURVE('',#675,#674,#768,.T.);
#518=EDGE_CURVE('',#675,#673,#83,.T.);
#519=EDGE_CURVE('',#674,#676,#769,.T.);
#520=EDGE_CURVE('',#677,#676,#770,.T.);
#521=EDGE_CURVE('',#677,#675,#771,.F.);
#522=EDGE_CURVE('',#676,#678,#84,.T.);
#523=EDGE_CURVE('',#679,#678,#772,.T.);
#524=EDGE_CURVE('',#679,#677,#85,.F.);
#525=EDGE_CURVE('',#678,#680,#773,.T.);
#526=EDGE_CURVE('',#681,#680,#774,.T.);
#527=EDGE_CURVE('',#681,#679,#775,.F.);
#528=EDGE_CURVE('',#680,#682,#86,.F.);
#529=EDGE_CURVE('',#683,#682,#776,.T.);
#530=EDGE_CURVE('',#683,#681,#87,.T.);
#531=EDGE_CURVE('',#682,#684,#777,.T.);
#532=EDGE_CURVE('',#685,#684,#778,.T.);
#533=EDGE_CURVE('',#685,#683,#779,.F.);
#534=EDGE_CURVE('',#684,#686,#88,.F.);
#535=EDGE_CURVE('',#686,#687,#780,.T.);
#536=EDGE_CURVE('',#687,#688,#89,.F.);
#537=EDGE_CURVE('',#689,#688,#781,.T.);
#538=EDGE_CURVE('',#689,#690,#90,.F.);
#539=EDGE_CURVE('',#691,#690,#782,.T.);
#540=EDGE_CURVE('',#691,#685,#91,.F.);
#541=EDGE_CURVE('',#688,#692,#783,.T.);
#542=EDGE_CURVE('',#693,#692,#784,.T.);
#543=EDGE_CURVE('',#693,#689,#785,.F.);
#544=EDGE_CURVE('',#692,#694,#92,.T.);
#545=EDGE_CURVE('',#695,#694,#786,.T.);
#546=EDGE_CURVE('',#695,#693,#93,.F.);
#547=EDGE_CURVE('',#694,#696,#787,.F.);
#548=EDGE_CURVE('',#697,#696,#788,.T.);
#549=EDGE_CURVE('',#697,#695,#789,.T.);
#550=EDGE_CURVE('',#696,#698,#94,.F.);
#551=EDGE_CURVE('',#699,#698,#790,.T.);
#552=EDGE_CURVE('',#699,#697,#95,.T.);
#553=EDGE_CURVE('',#698,#700,#791,.F.);
#554=EDGE_CURVE('',#701,#700,#792,.T.);
#555=EDGE_CURVE('',#701,#699,#793,.T.);
#556=EDGE_CURVE('',#700,#702,#96,.T.);
#557=EDGE_CURVE('',#703,#702,#794,.T.);
#558=EDGE_CURVE('',#703,#701,#97,.F.);
#559=EDGE_CURVE('',#702,#704,#795,.F.);
#560=EDGE_CURVE('',#705,#704,#796,.T.);
#561=EDGE_CURVE('',#705,#703,#797,.T.);
#562=EDGE_CURVE('',#704,#706,#98,.F.);
#563=EDGE_CURVE('',#707,#706,#798,.T.);
#564=EDGE_CURVE('',#707,#705,#99,.T.);
#565=EDGE_CURVE('',#706,#708,#799,.F.);
#566=EDGE_CURVE('',#709,#708,#800,.T.);
#567=EDGE_CURVE('',#709,#707,#801,.T.);
#568=EDGE_CURVE('',#708,#655,#100,.T.);
#569=EDGE_CURVE('',#654,#709,#101,.F.);
#570=EDGE_CURVE('',#710,#711,#102,.F.);
#571=EDGE_CURVE('',#711,#691,#802,.T.);
#572=EDGE_CURVE('',#690,#712,#803,.T.);
#573=EDGE_CURVE('',#712,#713,#103,.T.);
#574=EDGE_CURVE('',#713,#714,#804,.F.);
#575=EDGE_CURVE('',#714,#715,#104,.F.);
#576=EDGE_CURVE('',#715,#716,#805,.F.);
#577=EDGE_CURVE('',#716,#717,#105,.T.);
#578=EDGE_CURVE('',#717,#718,#806,.F.);
#579=EDGE_CURVE('',#718,#719,#106,.F.);
#580=EDGE_CURVE('',#719,#720,#807,.F.);
#581=EDGE_CURVE('',#720,#721,#107,.T.);
#582=EDGE_CURVE('',#721,#663,#808,.F.);
#583=EDGE_CURVE('',#662,#722,#809,.T.);
#584=EDGE_CURVE('',#722,#723,#108,.F.);
#585=EDGE_CURVE('',#723,#724,#810,.T.);
#586=EDGE_CURVE('',#724,#725,#109,.T.);
#587=EDGE_CURVE('',#725,#726,#811,.T.);
#588=EDGE_CURVE('',#726,#727,#110,.F.);
#589=EDGE_CURVE('',#727,#728,#812,.T.);
#590=EDGE_CURVE('',#728,#729,#111,.T.);
#591=EDGE_CURVE('',#729,#710,#813,.T.);
#592=EDGE_CURVE('',#730,#731,#112,.T.);
#593=EDGE_CURVE('',#731,#659,#814,.F.);
#594=EDGE_CURVE('',#658,#732,#815,.T.);
#595=EDGE_CURVE('',#732,#733,#113,.F.);
#596=EDGE_CURVE('',#733,#734,#816,.T.);
#597=EDGE_CURVE('',#734,#735,#114,.T.);
#598=EDGE_CURVE('',#735,#736,#817,.T.);
#599=EDGE_CURVE('',#736,#737,#115,.F.);
#600=EDGE_CURVE('',#737,#738,#818,.T.);
#601=EDGE_CURVE('',#738,#739,#116,.T.);
#602=EDGE_CURVE('',#739,#740,#819,.T.);
#603=EDGE_CURVE('',#740,#741,#117,.F.);
#604=EDGE_CURVE('',#741,#687,#820,.F.);
#605=EDGE_CURVE('',#686,#742,#821,.F.);
#606=EDGE_CURVE('',#742,#743,#118,.T.);
#607=EDGE_CURVE('',#743,#744,#822,.F.);
#608=EDGE_CURVE('',#744,#745,#119,.F.);
#609=EDGE_CURVE('',#745,#746,#823,.F.);
#610=EDGE_CURVE('',#746,#747,#120,.T.);
#611=EDGE_CURVE('',#747,#748,#824,.F.);
#612=EDGE_CURVE('',#748,#749,#121,.F.);
#613=EDGE_CURVE('',#749,#730,#825,.F.);
#614=EDGE_CURVE('',#742,#682,#122,.T.);
#615=EDGE_CURVE('',#743,#680,#123,.T.);
#616=EDGE_CURVE('',#744,#678,#124,.T.);
#617=EDGE_CURVE('',#745,#676,#125,.T.);
#618=EDGE_CURVE('',#746,#674,#126,.T.);
#619=EDGE_CURVE('',#747,#672,#127,.T.);
#620=EDGE_CURVE('',#748,#670,#128,.T.);
#621=EDGE_CURVE('',#749,#668,#129,.T.);
#622=EDGE_CURVE('',#730,#666,#130,.T.);
#623=EDGE_CURVE('',#731,#664,#131,.T.);
#624=EDGE_CURVE('',#692,#741,#132,.T.);
#625=EDGE_CURVE('',#694,#740,#133,.T.);
#626=EDGE_CURVE('',#696,#739,#134,.T.);
#627=EDGE_CURVE('',#698,#738,#135,.T.);
#628=EDGE_CURVE('',#700,#737,#136,.T.);
#629=EDGE_CURVE('',#702,#736,#137,.T.);
#630=EDGE_CURVE('',#704,#735,#138,.T.);
#631=EDGE_CURVE('',#706,#734,#139,.T.);
#632=EDGE_CURVE('',#708,#733,#140,.T.);
#633=EDGE_CURVE('',#655,#732,#141,.T.);
#634=EDGE_CURVE('',#722,#665,#142,.T.);
#635=EDGE_CURVE('',#723,#667,#143,.T.);
#636=EDGE_CURVE('',#724,#669,#144,.T.);
#637=EDGE_CURVE('',#725,#671,#145,.T.);
#638=EDGE_CURVE('',#726,#673,#146,.T.);
#639=EDGE_CURVE('',#727,#675,#147,.T.);
#640=EDGE_CURVE('',#728,#677,#148,.T.);
#641=EDGE_CURVE('',#729,#679,#149,.T.);
#642=EDGE_CURVE('',#710,#681,#150,.T.);
#643=EDGE_CURVE('',#711,#683,#151,.T.);
#644=EDGE_CURVE('',#712,#693,#152,.T.);
#645=EDGE_CURVE('',#713,#695,#153,.T.);
#646=EDGE_CURVE('',#714,#697,#154,.T.);
#647=EDGE_CURVE('',#715,#699,#155,.T.);
#648=EDGE_CURVE('',#716,#701,#156,.T.);
#649=EDGE_CURVE('',#717,#703,#157,.T.);
#650=EDGE_CURVE('',#718,#705,#158,.T.);
#651=EDGE_CURVE('',#719,#707,#159,.T.);
#652=EDGE_CURVE('',#720,#709,#160,.T.);
#653=EDGE_CURVE('',#721,#654,#161,.T.);
#654=VERTEX_POINT('',#1698);
#655=VERTEX_POINT('',#1699);
#656=VERTEX_POINT('',#1701);
#657=VERTEX_POINT('',#1703);
#658=VERTEX_POINT('',#1707);
#659=VERTEX_POINT('',#1708);
#660=VERTEX_POINT('',#1710);
#661=VERTEX_POINT('',#1712);
#662=VERTEX_POINT('',#1714);
#663=VERTEX_POINT('',#1716);
#664=VERTEX_POINT('',#1721);
#665=VERTEX_POINT('',#1723);
#666=VERTEX_POINT('',#1727);
#667=VERTEX_POINT('',#1729);
#668=VERTEX_POINT('',#1733);
#669=VERTEX_POINT('',#1735);
#670=VERTEX_POINT('',#1739);
#671=VERTEX_POINT('',#1741);
#672=VERTEX_POINT('',#1745);
#673=VERTEX_POINT('',#1747);
#674=VERTEX_POINT('',#1751);
#675=VERTEX_POINT('',#1753);
#676=VERTEX_POINT('',#1757);
#677=VERTEX_POINT('',#1759);
#678=VERTEX_POINT('',#1763);
#679=VERTEX_POINT('',#1765);
#680=VERTEX_POINT('',#1769);
#681=VERTEX_POINT('',#1771);
#682=VERTEX_POINT('',#1775);
#683=VERTEX_POINT('',#1777);
#684=VERTEX_POINT('',#1781);
#685=VERTEX_POINT('',#1783);
#686=VERTEX_POINT('',#1787);
#687=VERTEX_POINT('',#1789);
#688=VERTEX_POINT('',#1791);
#689=VERTEX_POINT('',#1793);
#690=VERTEX_POINT('',#1795);
#691=VERTEX_POINT('',#1797);
#692=VERTEX_POINT('',#1801);
#693=VERTEX_POINT('',#1803);
#694=VERTEX_POINT('',#1807);
#695=VERTEX_POINT('',#1809);
#696=VERTEX_POINT('',#1813);
#697=VERTEX_POINT('',#1815);
#698=VERTEX_POINT('',#1819);
#699=VERTEX_POINT('',#1821);
#700=VERTEX_POINT('',#1825);
#701=VERTEX_POINT('',#1827);
#702=VERTEX_POINT('',#1831);
#703=VERTEX_POINT('',#1833);
#704=VERTEX_POINT('',#1837);
#705=VERTEX_POINT('',#1839);
#706=VERTEX_POINT('',#1843);
#707=VERTEX_POINT('',#1845);
#708=VERTEX_POINT('',#1849);
#709=VERTEX_POINT('',#1851);
#710=VERTEX_POINT('',#1858);
#711=VERTEX_POINT('',#1859);
#712=VERTEX_POINT('',#1862);
#713=VERTEX_POINT('',#1864);
#714=VERTEX_POINT('',#1866);
#715=VERTEX_POINT('',#1868);
#716=VERTEX_POINT('',#1870);
#717=VERTEX_POINT('',#1872);
#718=VERTEX_POINT('',#1874);
#719=VERTEX_POINT('',#1876);
#720=VERTEX_POINT('',#1878);
#721=VERTEX_POINT('',#1880);
#722=VERTEX_POINT('',#1883);
#723=VERTEX_POINT('',#1885);
#724=VERTEX_POINT('',#1887);
#725=VERTEX_POINT('',#1889);
#726=VERTEX_POINT('',#1891);
#727=VERTEX_POINT('',#1893);
#728=VERTEX_POINT('',#1895);
#729=VERTEX_POINT('',#1897);
#730=VERTEX_POINT('',#1901);
#731=VERTEX_POINT('',#1902);
#732=VERTEX_POINT('',#1905);
#733=VERTEX_POINT('',#1907);
#734=VERTEX_POINT('',#1909);
#735=VERTEX_POINT('',#1911);
#736=VERTEX_POINT('',#1913);
#737=VERTEX_POINT('',#1915);
#738=VERTEX_POINT('',#1917);
#739=VERTEX_POINT('',#1919);
#740=VERTEX_POINT('',#1921);
#741=VERTEX_POINT('',#1923);
#742=VERTEX_POINT('',#1926);
#743=VERTEX_POINT('',#1928);
#744=VERTEX_POINT('',#1930);
#745=VERTEX_POINT('',#1932);
#746=VERTEX_POINT('',#1934);
#747=VERTEX_POINT('',#1936);
#748=VERTEX_POINT('',#1938);
#749=VERTEX_POINT('',#1940);
#750=LINE('',#1697,#826);
#751=LINE('',#1700,#827);
#752=LINE('',#1702,#828);
#753=LINE('',#1704,#829);
#754=LINE('',#1706,#830);
#755=LINE('',#1711,#831);
#756=LINE('',#1715,#832);
#757=LINE('',#1720,#833);
#758=LINE('',#1722,#834);
#759=LINE('',#1724,#835);
#760=LINE('',#1728,#836);
#761=LINE('',#1732,#837);
#762=LINE('',#1734,#838);
#763=LINE('',#1736,#839);
#764=LINE('',#1740,#840);
#765=LINE('',#1744,#841);
#766=LINE('',#1746,#842);
#767=LINE('',#1748,#843);
#768=LINE('',#1752,#844);
#769=LINE('',#1756,#845);
#770=LINE('',#1758,#846);
#771=LINE('',#1760,#847);
#772=LINE('',#1764,#848);
#773=LINE('',#1768,#849);
#774=LINE('',#1770,#850);
#775=LINE('',#1772,#851);
#776=LINE('',#1776,#852);
#777=LINE('',#1780,#853);
#778=LINE('',#1782,#854);
#779=LINE('',#1784,#855);
#780=LINE('',#1788,#856);
#781=LINE('',#1792,#857);
#782=LINE('',#1796,#858);
#783=LINE('',#1800,#859);
#784=LINE('',#1802,#860);
#785=LINE('',#1804,#861);
#786=LINE('',#1808,#862);
#787=LINE('',#1812,#863);
#788=LINE('',#1814,#864);
#789=LINE('',#1816,#865);
#790=LINE('',#1820,#866);
#791=LINE('',#1824,#867);
#792=LINE('',#1826,#868);
#793=LINE('',#1828,#869);
#794=LINE('',#1832,#870);
#795=LINE('',#1836,#871);
#796=LINE('',#1838,#872);
#797=LINE('',#1840,#873);
#798=LINE('',#1844,#874);
#799=LINE('',#1848,#875);
#800=LINE('',#1850,#876);
#801=LINE('',#1852,#877);
#802=LINE('',#1860,#878);
#803=LINE('',#1861,#879);
#804=LINE('',#1865,#880);
#805=LINE('',#1869,#881);
#806=LINE('',#1873,#882);
#807=LINE('',#1877,#883);
#808=LINE('',#1881,#884);
#809=LINE('',#1882,#885);
#810=LINE('',#1886,#886);
#811=LINE('',#1890,#887);
#812=LINE('',#1894,#888);
#813=LINE('',#1898,#889);
#814=LINE('',#1903,#890);
#815=LINE('',#1904,#891);
#816=LINE('',#1908,#892);
#817=LINE('',#1912,#893);
#818=LINE('',#1916,#894);
#819=LINE('',#1920,#895);
#820=LINE('',#1924,#896);
#821=LINE('',#1925,#897);
#822=LINE('',#1929,#898);
#823=LINE('',#1933,#899);
#824=LINE('',#1937,#900);
#825=LINE('',#1941,#901);
#826=VECTOR('',#1305,1.);
#827=VECTOR('',#1306,1.);
#828=VECTOR('',#1307,1.);
#829=VECTOR('',#1308,1.);
#830=VECTOR('',#1311,1.);
#831=VECTOR('',#1314,1.);
#832=VECTOR('',#1317,1.);
#833=VECTOR('',#1324,1.);
#834=VECTOR('',#1325,1.);
#835=VECTOR('',#1326,1.);
#836=VECTOR('',#1331,1.);
#837=VECTOR('',#1336,1.);
#838=VECTOR('',#1337,1.);
#839=VECTOR('',#1338,1.);
#840=VECTOR('',#1343,1.);
#841=VECTOR('',#1348,1.);
#842=VECTOR('',#1349,1.);
#843=VECTOR('',#1350,1.);
#844=VECTOR('',#1355,1.);
#845=VECTOR('',#1360,1.);
#846=VECTOR('',#1361,1.);
#847=VECTOR('',#1362,1.);
#848=VECTOR('',#1367,1.);
#849=VECTOR('',#1372,1.);
#850=VECTOR('',#1373,1.);
#851=VECTOR('',#1374,1.);
#852=VECTOR('',#1379,1.);
#853=VECTOR('',#1384,1.);
#854=VECTOR('',#1385,1.);
#855=VECTOR('',#1386,1.);
#856=VECTOR('',#1391,1.);
#857=VECTOR('',#1394,1.);
#858=VECTOR('',#1397,1.);
#859=VECTOR('',#1402,1.);
#860=VECTOR('',#1403,1.);
#861=VECTOR('',#1404,1.);
#862=VECTOR('',#1409,1.);
#863=VECTOR('',#1414,1.);
#864=VECTOR('',#1415,1.);
#865=VECTOR('',#1416,1.);
#866=VECTOR('',#1421,1.);
#867=VECTOR('',#1426,1.);
#868=VECTOR('',#1427,1.);
#869=VECTOR('',#1428,1.);
#870=VECTOR('',#1433,1.);
#871=VECTOR('',#1438,1.);
#872=VECTOR('',#1439,1.);
#873=VECTOR('',#1440,1.);
#874=VECTOR('',#1445,1.);
#875=VECTOR('',#1450,1.);
#876=VECTOR('',#1451,1.);
#877=VECTOR('',#1452,1.);
#878=VECTOR('',#1463,1.);
#879=VECTOR('',#1464,1.);
#880=VECTOR('',#1467,1.);
#881=VECTOR('',#1470,1.);
#882=VECTOR('',#1473,1.);
#883=VECTOR('',#1476,1.);
#884=VECTOR('',#1479,1.);
#885=VECTOR('',#1480,1.);
#886=VECTOR('',#1483,1.);
#887=VECTOR('',#1486,1.);
#888=VECTOR('',#1489,1.);
#889=VECTOR('',#1492,1.);
#890=VECTOR('',#1497,1.);
#891=VECTOR('',#1498,1.);
#892=VECTOR('',#1501,1.);
#893=VECTOR('',#1504,1.);
#894=VECTOR('',#1507,1.);
#895=VECTOR('',#1510,1.);
#896=VECTOR('',#1513,1.);
#897=VECTOR('',#1514,1.);
#898=VECTOR('',#1517,1.);
#899=VECTOR('',#1520,1.);
#900=VECTOR('',#1523,1.);
#901=VECTOR('',#1526,1.);
#902=EDGE_LOOP('',(#162,#163,#164,#165));
#903=EDGE_LOOP('',(#166,#167,#168,#169,#170,#171,#172,#173));
#904=EDGE_LOOP('',(#174,#175,#176,#177));
#905=EDGE_LOOP('',(#178,#179,#180,#181));
#906=EDGE_LOOP('',(#182,#183,#184,#185));
#907=EDGE_LOOP('',(#186,#187,#188,#189));
#908=EDGE_LOOP('',(#190,#191,#192,#193));
#909=EDGE_LOOP('',(#194,#195,#196,#197));
#910=EDGE_LOOP('',(#198,#199,#200,#201));
#911=EDGE_LOOP('',(#202,#203,#204,#205));
#912=EDGE_LOOP('',(#206,#207,#208,#209));
#913=EDGE_LOOP('',(#210,#211,#212,#213));
#914=EDGE_LOOP('',(#214,#215,#216,#217));
#915=EDGE_LOOP('',(#218,#219,#220,#221,#222,#223,#224,#225));
#916=EDGE_LOOP('',(#226,#227,#228,#229));
#917=EDGE_LOOP('',(#230,#231,#232,#233));
#918=EDGE_LOOP('',(#234,#235,#236,#237));
#919=EDGE_LOOP('',(#238,#239,#240,#241));
#920=EDGE_LOOP('',(#242,#243,#244,#245));
#921=EDGE_LOOP('',(#246,#247,#248,#249));
#922=EDGE_LOOP('',(#250,#251,#252,#253));
#923=EDGE_LOOP('',(#254,#255,#256,#257));
#924=EDGE_LOOP('',(#258,#259,#260,#261));
#925=EDGE_LOOP('',(#262,#263,#264,#265));
#926=EDGE_LOOP('',(#266,#267,#268,#269,#270,#271,#272,#273,#274,#275,#276,
#277,#278,#279,#280,#281,#282,#283,#284,#285,#286,#287,#288,#289));
#927=EDGE_LOOP('',(#290,#291,#292,#293,#294,#295,#296,#297,#298,#299,#300,
#301,#302,#303,#304,#305,#306,#307,#308,#309,#310,#311,#312,#313));
#928=EDGE_LOOP('',(#314,#315,#316,#317));
#929=EDGE_LOOP('',(#318,#319,#320,#321));
#930=EDGE_LOOP('',(#322,#323,#324,#325));
#931=EDGE_LOOP('',(#326,#327,#328,#329));
#932=EDGE_LOOP('',(#330,#331,#332,#333));
#933=EDGE_LOOP('',(#334,#335,#336,#337));
#934=EDGE_LOOP('',(#338,#339,#340,#341));
#935=EDGE_LOOP('',(#342,#343,#344,#345));
#936=EDGE_LOOP('',(#346,#347,#348,#349));
#937=EDGE_LOOP('',(#350,#351,#352,#353));
#938=EDGE_LOOP('',(#354,#355,#356,#357));
#939=EDGE_LOOP('',(#358,#359,#360,#361));
#940=EDGE_LOOP('',(#362,#363,#364,#365));
#941=EDGE_LOOP('',(#366,#367,#368,#369));
#942=EDGE_LOOP('',(#370,#371,#372,#373));
#943=EDGE_LOOP('',(#374,#375,#376,#377));
#944=EDGE_LOOP('',(#378,#379,#380,#381));
#945=EDGE_LOOP('',(#382,#383,#384,#385));
#946=EDGE_LOOP('',(#386,#387,#388,#389));
#947=EDGE_LOOP('',(#390,#391,#392,#393));
#948=EDGE_LOOP('',(#394,#395,#396,#397));
#949=EDGE_LOOP('',(#398,#399,#400,#401));
#950=EDGE_LOOP('',(#402,#403,#404,#405));
#951=EDGE_LOOP('',(#406,#407,#408,#409));
#952=EDGE_LOOP('',(#410,#411,#412,#413));
#953=EDGE_LOOP('',(#414,#415,#416,#417));
#954=EDGE_LOOP('',(#418,#419,#420,#421));
#955=EDGE_LOOP('',(#422,#423,#424,#425));
#956=EDGE_LOOP('',(#426,#427,#428,#429));
#957=EDGE_LOOP('',(#430,#431,#432,#433));
#958=EDGE_LOOP('',(#434,#435,#436,#437));
#959=EDGE_LOOP('',(#438,#439,#440,#441));
#960=EDGE_LOOP('',(#442,#443,#444,#445));
#961=EDGE_LOOP('',(#446,#447,#448,#449));
#962=EDGE_LOOP('',(#450,#451,#452,#453));
#963=EDGE_LOOP('',(#454,#455,#456,#457));
#964=EDGE_LOOP('',(#458,#459,#460,#461));
#965=EDGE_LOOP('',(#462,#463,#464,#465));
#966=EDGE_LOOP('',(#466,#467,#468,#469));
#967=EDGE_LOOP('',(#470,#471,#472,#473));
#968=EDGE_LOOP('',(#474,#475,#476,#477));
#969=EDGE_LOOP('',(#478,#479,#480,#481));
#970=EDGE_LOOP('',(#482,#483,#484,#485));
#971=EDGE_LOOP('',(#486,#487,#488,#489));
#972=FACE_BOUND('',#902,.T.);
#973=FACE_BOUND('',#903,.T.);
#974=FACE_BOUND('',#904,.T.);
#975=FACE_BOUND('',#905,.T.);
#976=FACE_BOUND('',#906,.T.);
#977=FACE_BOUND('',#907,.T.);
#978=FACE_BOUND('',#908,.T.);
#979=FACE_BOUND('',#909,.T.);
#980=FACE_BOUND('',#910,.T.);
#981=FACE_BOUND('',#911,.T.);
#982=FACE_BOUND('',#912,.T.);
#983=FACE_BOUND('',#913,.T.);
#984=FACE_BOUND('',#914,.T.);
#985=FACE_BOUND('',#915,.T.);
#986=FACE_BOUND('',#916,.T.);
#987=FACE_BOUND('',#917,.T.);
#988=FACE_BOUND('',#918,.T.);
#989=FACE_BOUND('',#919,.T.);
#990=FACE_BOUND('',#920,.T.);
#991=FACE_BOUND('',#921,.T.);
#992=FACE_BOUND('',#922,.T.);
#993=FACE_BOUND('',#923,.T.);
#994=FACE_BOUND('',#924,.T.);
#995=FACE_BOUND('',#925,.T.);
#996=FACE_BOUND('',#926,.T.);
#997=FACE_BOUND('',#927,.T.);
#998=FACE_BOUND('',#928,.T.);
#999=FACE_BOUND('',#929,.T.);
#1000=FACE_BOUND('',#930,.T.);
#1001=FACE_BOUND('',#931,.T.);
#1002=FACE_BOUND('',#932,.T.);
#1003=FACE_BOUND('',#933,.T.);
#1004=FACE_BOUND('',#934,.T.);
#1005=FACE_BOUND('',#935,.T.);
#1006=FACE_BOUND('',#936,.T.);
#1007=FACE_BOUND('',#937,.T.);
#1008=FACE_BOUND('',#938,.T.);
#1009=FACE_BOUND('',#939,.T.);
#1010=FACE_BOUND('',#940,.T.);
#1011=FACE_BOUND('',#941,.T.);
#1012=FACE_BOUND('',#942,.T.);
#1013=FACE_BOUND('',#943,.T.);
#1014=FACE_BOUND('',#944,.T.);
#1015=FACE_BOUND('',#945,.T.);
#1016=FACE_BOUND('',#946,.T.);
#1017=FACE_BOUND('',#947,.T.);
#1018=FACE_BOUND('',#948,.T.);
#1019=FACE_BOUND('',#949,.T.);
#1020=FACE_BOUND('',#950,.T.);
#1021=FACE_BOUND('',#951,.T.);
#1022=FACE_BOUND('',#952,.T.);
#1023=FACE_BOUND('',#953,.T.);
#1024=FACE_BOUND('',#954,.T.);
#1025=FACE_BOUND('',#955,.T.);
#1026=FACE_BOUND('',#956,.T.);
#1027=FACE_BOUND('',#957,.T.);
#1028=FACE_BOUND('',#958,.T.);
#1029=FACE_BOUND('',#959,.T.);
#1030=FACE_BOUND('',#960,.T.);
#1031=FACE_BOUND('',#961,.T.);
#1032=FACE_BOUND('',#962,.T.);
#1033=FACE_BOUND('',#963,.T.);
#1034=FACE_BOUND('',#964,.T.);
#1035=FACE_BOUND('',#965,.T.);
#1036=FACE_BOUND('',#966,.T.);
#1037=FACE_BOUND('',#967,.T.);
#1038=FACE_BOUND('',#968,.T.);
#1039=FACE_BOUND('',#969,.T.);
#1040=FACE_BOUND('',#970,.T.);
#1041=FACE_BOUND('',#971,.T.);
#1042=PLANE('',#1143);
#1043=PLANE('',#1144);
#1044=PLANE('',#1149);
#1045=PLANE('',#1153);
#1046=PLANE('',#1157);
#1047=PLANE('',#1161);
#1048=PLANE('',#1165);
#1049=PLANE('',#1169);
#1050=PLANE('',#1170);
#1051=PLANE('',#1175);
#1052=PLANE('',#1179);
#1053=PLANE('',#1183);
#1054=PLANE('',#1187);
#1055=PLANE('',#1191);
#1056=PLANE('',#1195);
#1057=PLANE('',#1206);
#1058=ADVANCED_FACE('',(#972),#1042,.T.);
#1059=ADVANCED_FACE('',(#973),#1043,.F.);
#1060=ADVANCED_FACE('',(#974),#1044,.F.);
#1061=ADVANCED_FACE('',(#975),#40,.F.);
#1062=ADVANCED_FACE('',(#976),#1045,.F.);
#1063=ADVANCED_FACE('',(#977),#41,.T.);
#1064=ADVANCED_FACE('',(#978),#1046,.F.);
#1065=ADVANCED_FACE('',(#979),#42,.F.);
#1066=ADVANCED_FACE('',(#980),#1047,.F.);
#1067=ADVANCED_FACE('',(#981),#43,.T.);
#1068=ADVANCED_FACE('',(#982),#1048,.F.);
#1069=ADVANCED_FACE('',(#983),#44,.F.);
#1070=ADVANCED_FACE('',(#984),#1049,.F.);
#1071=ADVANCED_FACE('',(#985),#1050,.F.);
#1072=ADVANCED_FACE('',(#986),#1051,.F.);
#1073=ADVANCED_FACE('',(#987),#45,.T.);
#1074=ADVANCED_FACE('',(#988),#1052,.T.);
#1075=ADVANCED_FACE('',(#989),#46,.F.);
#1076=ADVANCED_FACE('',(#990),#1053,.T.);
#1077=ADVANCED_FACE('',(#991),#47,.T.);
#1078=ADVANCED_FACE('',(#992),#1054,.T.);
#1079=ADVANCED_FACE('',(#993),#48,.F.);
#1080=ADVANCED_FACE('',(#994),#1055,.T.);
#1081=ADVANCED_FACE('',(#995),#49,.T.);
#1082=ADVANCED_FACE('',(#996),#1056,.T.);
#1083=ADVANCED_FACE('',(#997),#1057,.F.);
#1084=ADVANCED_FACE('',(#998),#50,.T.);
#1085=ADVANCED_FACE('',(#999),#20,.T.);
#1086=ADVANCED_FACE('',(#1000),#51,.T.);
#1087=ADVANCED_FACE('',(#1001),#21,.T.);
#1088=ADVANCED_FACE('',(#1002),#52,.T.);
#1089=ADVANCED_FACE('',(#1003),#22,.T.);
#1090=ADVANCED_FACE('',(#1004),#53,.T.);
#1091=ADVANCED_FACE('',(#1005),#23,.T.);
#1092=ADVANCED_FACE('',(#1006),#54,.T.);
#1093=ADVANCED_FACE('',(#1007),#24,.T.);
#1094=ADVANCED_FACE('',(#1008),#55,.T.);
#1095=ADVANCED_FACE('',(#1009),#56,.T.);
#1096=ADVANCED_FACE('',(#1010),#25,.T.);
#1097=ADVANCED_FACE('',(#1011),#57,.T.);
#1098=ADVANCED_FACE('',(#1012),#26,.T.);
#1099=ADVANCED_FACE('',(#1013),#58,.T.);
#1100=ADVANCED_FACE('',(#1014),#27,.T.);
#1101=ADVANCED_FACE('',(#1015),#59,.T.);
#1102=ADVANCED_FACE('',(#1016),#28,.T.);
#1103=ADVANCED_FACE('',(#1017),#60,.T.);
#1104=ADVANCED_FACE('',(#1018),#29,.T.);
#1105=ADVANCED_FACE('',(#1019),#61,.T.);
#1106=ADVANCED_FACE('',(#1020),#62,.T.);
#1107=ADVANCED_FACE('',(#1021),#30,.T.);
#1108=ADVANCED_FACE('',(#1022),#63,.T.);
#1109=ADVANCED_FACE('',(#1023),#31,.T.);
#1110=ADVANCED_FACE('',(#1024),#64,.T.);
#1111=ADVANCED_FACE('',(#1025),#32,.T.);
#1112=ADVANCED_FACE('',(#1026),#65,.T.);
#1113=ADVANCED_FACE('',(#1027),#33,.T.);
#1114=ADVANCED_FACE('',(#1028),#66,.T.);
#1115=ADVANCED_FACE('',(#1029),#34,.T.);
#1116=ADVANCED_FACE('',(#1030),#67,.T.);
#1117=ADVANCED_FACE('',(#1031),#68,.T.);
#1118=ADVANCED_FACE('',(#1032),#35,.T.);
#1119=ADVANCED_FACE('',(#1033),#69,.T.);
#1120=ADVANCED_FACE('',(#1034),#36,.T.);
#1121=ADVANCED_FACE('',(#1035),#70,.T.);
#1122=ADVANCED_FACE('',(#1036),#37,.T.);
#1123=ADVANCED_FACE('',(#1037),#71,.T.);
#1124=ADVANCED_FACE('',(#1038),#38,.T.);
#1125=ADVANCED_FACE('',(#1039),#72,.T.);
#1126=ADVANCED_FACE('',(#1040),#39,.T.);
#1127=ADVANCED_FACE('',(#1041),#73,.T.);
#1128=CLOSED_SHELL('',(#1058,#1059,#1060,#1061,#1062,#1063,#1064,#1065,
#1066,#1067,#1068,#1069,#1070,#1071,#1072,#1073,#1074,#1075,#1076,#1077,
#1078,#1079,#1080,#1081,#1082,#1083,#1084,#1085,#1086,#1087,#1088,#1089,
#1090,#1091,#1092,#1093,#1094,#1095,#1096,#1097,#1098,#1099,#1100,#1101,
#1102,#1103,#1104,#1105,#1106,#1107,#1108,#1109,#1110,#1111,#1112,#1113,
#1114,#1115,#1116,#1117,#1118,#1119,#1120,#1121,#1122,#1123,#1124,#1125,
#1126,#1127));
#1129=STYLED_ITEM('',(#1130),#1139);
#1130=PRESENTATION_STYLE_ASSIGNMENT((#1131));
#1131=SURFACE_STYLE_USAGE(.BOTH.,#1132);
#1132=SURFACE_SIDE_STYLE('',(#1135,#1133));
#1133=SURFACE_STYLE_RENDERING_WITH_PROPERTIES(.CONSTANT_SHADING.,#1138,
(#1134));
#1134=SURFACE_STYLE_TRANSPARENT(0.113725490196078);
#1135=SURFACE_STYLE_FILL_AREA(#1136);
#1136=FILL_AREA_STYLE('',(#1137));
#1137=FILL_AREA_STYLE_COLOUR('',#1138);
#1138=COLOUR_RGB('',0.917647058823529,0.917647058823529,0.917647058823529);
#1139=MANIFOLD_SOLID_BREP('Microspine Rigid Body',#1128);
#1140=SHAPE_DEFINITION_REPRESENTATION(#2032,#1141);
#1141=SHAPE_REPRESENTATION('Microspine Rigid Body',(#1142),#2027);
#1142=AXIS2_PLACEMENT_3D('',#1695,#1301,#1302);
#1143=AXIS2_PLACEMENT_3D('',#1696,#1303,#1304);
#1144=AXIS2_PLACEMENT_3D('',#1705,#1309,#1310);
#1145=AXIS2_PLACEMENT_3D('',#1709,#1312,#1313);
#1146=AXIS2_PLACEMENT_3D('',#1713,#1315,#1316);
#1147=AXIS2_PLACEMENT_3D('',#1717,#1318,#1319);
#1148=AXIS2_PLACEMENT_3D('',#1718,#1320,#1321);
#1149=AXIS2_PLACEMENT_3D('',#1719,#1322,#1323);
#1150=AXIS2_PLACEMENT_3D('',#1725,#1327,#1328);
#1151=AXIS2_PLACEMENT_3D('',#1726,#1329,#1330);
#1152=AXIS2_PLACEMENT_3D('',#1730,#1332,#1333);
#1153=AXIS2_PLACEMENT_3D('',#1731,#1334,#1335);
#1154=AXIS2_PLACEMENT_3D('',#1737,#1339,#1340);
#1155=AXIS2_PLACEMENT_3D('',#1738,#1341,#1342);
#1156=AXIS2_PLACEMENT_3D('',#1742,#1344,#1345);
#1157=AXIS2_PLACEMENT_3D('',#1743,#1346,#1347);
#1158=AXIS2_PLACEMENT_3D('',#1749,#1351,#1352);
#1159=AXIS2_PLACEMENT_3D('',#1750,#1353,#1354);
#1160=AXIS2_PLACEMENT_3D('',#1754,#1356,#1357);
#1161=AXIS2_PLACEMENT_3D('',#1755,#1358,#1359);
#1162=AXIS2_PLACEMENT_3D('',#1761,#1363,#1364);
#1163=AXIS2_PLACEMENT_3D('',#1762,#1365,#1366);
#1164=AXIS2_PLACEMENT_3D('',#1766,#1368,#1369);
#1165=AXIS2_PLACEMENT_3D('',#1767,#1370,#1371);
#1166=AXIS2_PLACEMENT_3D('',#1773,#1375,#1376);
#1167=AXIS2_PLACEMENT_3D('',#1774,#1377,#1378);
#1168=AXIS2_PLACEMENT_3D('',#1778,#1380,#1381);
#1169=AXIS2_PLACEMENT_3D('',#1779,#1382,#1383);
#1170=AXIS2_PLACEMENT_3D('',#1785,#1387,#1388);
#1171=AXIS2_PLACEMENT_3D('',#1786,#1389,#1390);
#1172=AXIS2_PLACEMENT_3D('',#1790,#1392,#1393);
#1173=AXIS2_PLACEMENT_3D('',#1794,#1395,#1396);
#1174=AXIS2_PLACEMENT_3D('',#1798,#1398,#1399);
#1175=AXIS2_PLACEMENT_3D('',#1799,#1400,#1401);
#1176=AXIS2_PLACEMENT_3D('',#1805,#1405,#1406);
#1177=AXIS2_PLACEMENT_3D('',#1806,#1407,#1408);
#1178=AXIS2_PLACEMENT_3D('',#1810,#1410,#1411);
#1179=AXIS2_PLACEMENT_3D('',#1811,#1412,#1413);
#1180=AXIS2_PLACEMENT_3D('',#1817,#1417,#1418);
#1181=AXIS2_PLACEMENT_3D('',#1818,#1419,#1420);
#1182=AXIS2_PLACEMENT_3D('',#1822,#1422,#1423);
#1183=AXIS2_PLACEMENT_3D('',#1823,#1424,#1425);
#1184=AXIS2_PLACEMENT_3D('',#1829,#1429,#1430);
#1185=AXIS2_PLACEMENT_3D('',#1830,#1431,#1432);
#1186=AXIS2_PLACEMENT_3D('',#1834,#1434,#1435);
#1187=AXIS2_PLACEMENT_3D('',#1835,#1436,#1437);
#1188=AXIS2_PLACEMENT_3D('',#1841,#1441,#1442);
#1189=AXIS2_PLACEMENT_3D('',#1842,#1443,#1444);
#1190=AXIS2_PLACEMENT_3D('',#1846,#1446,#1447);
#1191=AXIS2_PLACEMENT_3D('',#1847,#1448,#1449);
#1192=AXIS2_PLACEMENT_3D('',#1853,#1453,#1454);
#1193=AXIS2_PLACEMENT_3D('',#1854,#1455,#1456);
#1194=AXIS2_PLACEMENT_3D('',#1855,#1457,#1458);
#1195=AXIS2_PLACEMENT_3D('',#1856,#1459,#1460);
#1196=AXIS2_PLACEMENT_3D('',#1857,#1461,#1462);
#1197=AXIS2_PLACEMENT_3D('',#1863,#1465,#1466);
#1198=AXIS2_PLACEMENT_3D('',#1867,#1468,#1469);
#1199=AXIS2_PLACEMENT_3D('',#1871,#1471,#1472);
#1200=AXIS2_PLACEMENT_3D('',#1875,#1474,#1475);
#1201=AXIS2_PLACEMENT_3D('',#1879,#1477,#1478);
#1202=AXIS2_PLACEMENT_3D('',#1884,#1481,#1482);
#1203=AXIS2_PLACEMENT_3D('',#1888,#1484,#1485);
#1204=AXIS2_PLACEMENT_3D('',#1892,#1487,#1488);
#1205=AXIS2_PLACEMENT_3D('',#1896,#1490,#1491);
#1206=AXIS2_PLACEMENT_3D('',#1899,#1493,#1494);
#1207=AXIS2_PLACEMENT_3D('',#1900,#1495,#1496);
#1208=AXIS2_PLACEMENT_3D('',#1906,#1499,#1500);
#1209=AXIS2_PLACEMENT_3D('',#1910,#1502,#1503);
#1210=AXIS2_PLACEMENT_3D('',#1914,#1505,#1506);
#1211=AXIS2_PLACEMENT_3D('',#1918,#1508,#1509);
#1212=AXIS2_PLACEMENT_3D('',#1922,#1511,#1512);
#1213=AXIS2_PLACEMENT_3D('',#1927,#1515,#1516);
#1214=AXIS2_PLACEMENT_3D('',#1931,#1518,#1519);
#1215=AXIS2_PLACEMENT_3D('',#1935,#1521,#1522);
#1216=AXIS2_PLACEMENT_3D('',#1939,#1524,#1525);
#1217=AXIS2_PLACEMENT_3D('',#1942,#1527,#1528);
#1218=AXIS2_PLACEMENT_3D('',#1943,#1529,#1530);
#1219=AXIS2_PLACEMENT_3D('',#1944,#1531,#1532);
#1220=AXIS2_PLACEMENT_3D('',#1945,#1533,#1534);
#1221=AXIS2_PLACEMENT_3D('',#1946,#1535,#1536);
#1222=AXIS2_PLACEMENT_3D('',#1947,#1537,#1538);
#1223=AXIS2_PLACEMENT_3D('',#1948,#1539,#1540);
#1224=AXIS2_PLACEMENT_3D('',#1949,#1541,#1542);
#1225=AXIS2_PLACEMENT_3D('',#1950,#1543,#1544);
#1226=AXIS2_PLACEMENT_3D('',#1951,#1545,#1546);
#1227=AXIS2_PLACEMENT_3D('',#1952,#1547,#1548);
#1228=AXIS2_PLACEMENT_3D('',#1953,#1549,#1550);
#1229=AXIS2_PLACEMENT_3D('',#1954,#1551,#1552);
#1230=AXIS2_PLACEMENT_3D('',#1955,#1553,#1554);
#1231=AXIS2_PLACEMENT_3D('',#1956,#1555,#1556);
#1232=AXIS2_PLACEMENT_3D('',#1957,#1557,#1558);
#1233=AXIS2_PLACEMENT_3D('',#1958,#1559,#1560);
#1234=AXIS2_PLACEMENT_3D('',#1959,#1561,#1562);
#1235=AXIS2_PLACEMENT_3D('',#1960,#1563,#1564);
#1236=AXIS2_PLACEMENT_3D('',#1961,#1565,#1566);
#1237=AXIS2_PLACEMENT_3D('',#1962,#1567,#1568);
#1238=AXIS2_PLACEMENT_3D('',#1963,#1569,#1570);
#1239=AXIS2_PLACEMENT_3D('',#1964,#1571,#1572);
#1240=AXIS2_PLACEMENT_3D('',#1965,#1573,#1574);
#1241=AXIS2_PLACEMENT_3D('',#1966,#1575,#1576);
#1242=AXIS2_PLACEMENT_3D('',#1967,#1577,#1578);
#1243=AXIS2_PLACEMENT_3D('',#1968,#1579,#1580);
#1244=AXIS2_PLACEMENT_3D('',#1969,#1581,#1582);
#1245=AXIS2_PLACEMENT_3D('',#1970,#1583,#1584);
#1246=AXIS2_PLACEMENT_3D('',#1971,#1585,#1586);
#1247=AXIS2_PLACEMENT_3D('',#1972,#1587,#1588);
#1248=AXIS2_PLACEMENT_3D('',#1973,#1589,#1590);
#1249=AXIS2_PLACEMENT_3D('',#1974,#1591,#1592);
#1250=AXIS2_PLACEMENT_3D('',#1975,#1593,#1594);
#1251=AXIS2_PLACEMENT_3D('',#1976,#1595,#1596);
#1252=AXIS2_PLACEMENT_3D('',#1977,#1597,#1598);
#1253=AXIS2_PLACEMENT_3D('',#1978,#1599,#1600);
#1254=AXIS2_PLACEMENT_3D('',#1979,#1601,#1602);
#1255=AXIS2_PLACEMENT_3D('',#1980,#1603,#1604);
#1256=AXIS2_PLACEMENT_3D('',#1981,#1605,#1606);
#1257=AXIS2_PLACEMENT_3D('',#1982,#1607,#1608);
#1258=AXIS2_PLACEMENT_3D('',#1983,#1609,#1610);
#1259=AXIS2_PLACEMENT_3D('',#1984,#1611,#1612);
#1260=AXIS2_PLACEMENT_3D('',#1985,#1613,#1614);
#1261=AXIS2_PLACEMENT_3D('',#1986,#1615,#1616);
#1262=AXIS2_PLACEMENT_3D('',#1987,#1617,#1618);
#1263=AXIS2_PLACEMENT_3D('',#1988,#1619,#1620);
#1264=AXIS2_PLACEMENT_3D('',#1989,#1621,#1622);
#1265=AXIS2_PLACEMENT_3D('',#1990,#1623,#1624);
#1266=AXIS2_PLACEMENT_3D('',#1991,#1625,#1626);
#1267=AXIS2_PLACEMENT_3D('',#1992,#1627,#1628);
#1268=AXIS2_PLACEMENT_3D('',#1993,#1629,#1630);
#1269=AXIS2_PLACEMENT_3D('',#1994,#1631,#1632);
#1270=AXIS2_PLACEMENT_3D('',#1995,#1633,#1634);
#1271=AXIS2_PLACEMENT_3D('',#1996,#1635,#1636);
#1272=AXIS2_PLACEMENT_3D('',#1997,#1637,#1638);
#1273=AXIS2_PLACEMENT_3D('',#1998,#1639,#1640);
#1274=AXIS2_PLACEMENT_3D('',#1999,#1641,#1642);
#1275=AXIS2_PLACEMENT_3D('',#2000,#1643,#1644);
#1276=AXIS2_PLACEMENT_3D('',#2001,#1645,#1646);
#1277=AXIS2_PLACEMENT_3D('',#2002,#1647,#1648);
#1278=AXIS2_PLACEMENT_3D('',#2003,#1649,#1650);
#1279=AXIS2_PLACEMENT_3D('',#2004,#1651,#1652);
#1280=AXIS2_PLACEMENT_3D('',#2005,#1653,#1654);
#1281=AXIS2_PLACEMENT_3D('',#2006,#1655,#1656);
#1282=AXIS2_PLACEMENT_3D('',#2007,#1657,#1658);
#1283=AXIS2_PLACEMENT_3D('',#2008,#1659,#1660);
#1284=AXIS2_PLACEMENT_3D('',#2009,#1661,#1662);
#1285=AXIS2_PLACEMENT_3D('',#2010,#1663,#1664);
#1286=AXIS2_PLACEMENT_3D('',#2011,#1665,#1666);
#1287=AXIS2_PLACEMENT_3D('',#2012,#1667,#1668);
#1288=AXIS2_PLACEMENT_3D('',#2013,#1669,#1670);
#1289=AXIS2_PLACEMENT_3D('',#2014,#1671,#1672);
#1290=AXIS2_PLACEMENT_3D('',#2015,#1673,#1674);
#1291=AXIS2_PLACEMENT_3D('',#2016,#1675,#1676);
#1292=AXIS2_PLACEMENT_3D('',#2017,#1677,#1678);
#1293=AXIS2_PLACEMENT_3D('',#2018,#1679,#1680);
#1294=AXIS2_PLACEMENT_3D('',#2019,#1681,#1682);
#1295=AXIS2_PLACEMENT_3D('',#2020,#1683,#1684);
#1296=AXIS2_PLACEMENT_3D('',#2021,#1685,#1686);
#1297=AXIS2_PLACEMENT_3D('',#2022,#1687,#1688);
#1298=AXIS2_PLACEMENT_3D('',#2023,#1689,#1690);
#1299=AXIS2_PLACEMENT_3D('',#2024,#1691,#1692);
#1300=AXIS2_PLACEMENT_3D('',#2025,#1693,#1694);
#1301=DIRECTION('',(0.,0.,1.));
#1302=DIRECTION('',(1.,0.,0.));
#1303=DIRECTION('',(-1.,0.,0.));
#1304=DIRECTION('',(0.,0.,1.));
#1305=DIRECTION('',(0.,1.,0.));
#1306=DIRECTION('',(0.,0.,1.));
#1307=DIRECTION('',(0.,1.,0.));
#1308=DIRECTION('',(0.,0.,1.));
#1309=DIRECTION('',(0.,0.,1.));
#1310=DIRECTION('',(1.,0.,0.));
#1311=DIRECTION('',(1.,0.,0.));
#1312=DIRECTION('',(0.,0.,1.));
#1313=DIRECTION('',(1.,0.,0.));
#1314=DIRECTION('',(0.,1.,0.));
#1315=DIRECTION('',(0.,0.,1.));
#1316=DIRECTION('',(1.,0.,0.));
#1317=DIRECTION('',(1.,0.,0.));
#1318=DIRECTION('',(0.,0.,1.));
#1319=DIRECTION('',(1.,0.,0.));
#1320=DIRECTION('',(0.,0.,1.));
#1321=DIRECTION('',(1.,0.,0.));
#1322=DIRECTION('',(-1.,0.,0.));
#1323=DIRECTION('',(0.,0.,1.));
#1324=DIRECTION('',(0.,0.,1.));
#1325=DIRECTION('',(0.,1.,0.));
#1326=DIRECTION('',(0.,0.,1.));
#1327=DIRECTION('',(0.,1.,0.));
#1328=DIRECTION('',(0.,0.,1.));
#1329=DIRECTION('',(0.,-1.,0.));
#1330=DIRECTION('',(0.,0.,-1.));
#1331=DIRECTION('',(0.,1.,0.));
#1332=DIRECTION('',(0.,-1.,0.));
#1333=DIRECTION('',(0.,0.,-1.));
#1334=DIRECTION('',(1.,0.,1.23908819712629E-16));
#1335=DIRECTION('',(1.23908819712629E-16,0.,-1.));
#1336=DIRECTION('',(1.23908819712629E-16,0.,-1.));
#1337=DIRECTION('',(0.,1.,0.));
#1338=DIRECTION('',(1.23908819712629E-16,0.,-1.));
#1339=DIRECTION('',(0.,1.,0.));
#1340=DIRECTION('',(0.,0.,1.));
#1341=DIRECTION('',(0.,-1.,0.));
#1342=DIRECTION('',(0.,0.,-1.));
#1343=DIRECTION('',(0.,1.,0.));
#1344=DIRECTION('',(0.,-1.,0.));
#1345=DIRECTION('',(0.,0.,-1.));
#1346=DIRECTION('',(-1.,0.,0.));
#1347=DIRECTION('',(0.,0.,1.));
#1348=DIRECTION('',(0.,0.,1.));
#1349=DIRECTION('',(0.,1.,0.));
#1350=DIRECTION('',(0.,0.,1.));
#1351=DIRECTION('',(0.,1.,0.));
#1352=DIRECTION('',(0.,0.,1.));
#1353=DIRECTION('',(0.,-1.,0.));
#1354=DIRECTION('',(0.,0.,-1.));
#1355=DIRECTION('',(0.,1.,0.));
#1356=DIRECTION('',(0.,-1.,0.));
#1357=DIRECTION('',(0.,0.,-1.));
#1358=DIRECTION('',(1.,0.,0.));
#1359=DIRECTION('',(0.,0.,-1.));
#1360=DIRECTION('',(0.,0.,-1.));
#1361=DIRECTION('',(0.,1.,0.));
#1362=DIRECTION('',(0.,0.,-1.));
#1363=DIRECTION('',(0.,1.,0.));
#1364=DIRECTION('',(0.,0.,1.));
#1365=DIRECTION('',(0.,-1.,0.));
#1366=DIRECTION('',(0.,0.,-1.));
#1367=DIRECTION('',(0.,1.,0.));
#1368=DIRECTION('',(0.,-1.,0.));
#1369=DIRECTION('',(0.,0.,-1.));
#1370=DIRECTION('',(-1.,0.,0.));
#1371=DIRECTION('',(0.,0.,1.));
#1372=DIRECTION('',(0.,0.,1.));
#1373=DIRECTION('',(0.,1.,0.));
#1374=DIRECTION('',(0.,0.,1.));
#1375=DIRECTION('',(0.,1.,0.));
#1376=DIRECTION('',(0.,0.,1.));
#1377=DIRECTION('',(0.,-1.,0.));
#1378=DIRECTION('',(0.,0.,-1.));
#1379=DIRECTION('',(0.,1.,0.));
#1380=DIRECTION('',(0.,-1.,0.));
#1381=DIRECTION('',(0.,0.,-1.));
#1382=DIRECTION('',(1.,0.,0.));
#1383=DIRECTION('',(0.,0.,-1.));
#1384=DIRECTION('',(0.,0.,-1.));
#1385=DIRECTION('',(0.,1.,0.));
#1386=DIRECTION('',(0.,0.,-1.));
#1387=DIRECTION('',(0.,0.,1.));
#1388=DIRECTION('',(1.,0.,0.));
#1389=DIRECTION('',(0.,0.,1.));
#1390=DIRECTION('',(1.,0.,0.));
#1391=DIRECTION('',(1.,0.,0.));
#1392=DIRECTION('',(0.,0.,1.));
#1393=DIRECTION('',(1.,0.,0.));
#1394=DIRECTION('',(0.,1.,0.));
#1395=DIRECTION('',(0.,0.,1.));
#1396=DIRECTION('',(1.,0.,0.));
#1397=DIRECTION('',(1.,0.,0.));
#1398=DIRECTION('',(0.,0.,1.));
#1399=DIRECTION('',(1.,0.,0.));
#1400=DIRECTION('',(-1.,0.,0.));
#1401=DIRECTION('',(0.,0.,1.));
#1402=DIRECTION('',(0.,0.,1.));
#1403=DIRECTION('',(0.,1.,0.));
#1404=DIRECTION('',(0.,0.,1.));
#1405=DIRECTION('',(0.,1.,0.));
#1406=DIRECTION('',(0.,0.,1.));
#1407=DIRECTION('',(0.,-1.,0.));
#1408=DIRECTION('',(0.,0.,-1.));
#1409=DIRECTION('',(0.,1.,0.));
#1410=DIRECTION('',(0.,-1.,0.));
#1411=DIRECTION('',(0.,0.,-1.));
#1412=DIRECTION('',(-1.,0.,0.));
#1413=DIRECTION('',(0.,0.,1.));
#1414=DIRECTION('',(0.,0.,1.));
#1415=DIRECTION('',(0.,1.,0.));
#1416=DIRECTION('',(0.,0.,1.));
#1417=DIRECTION('',(0.,1.,0.));
#1418=DIRECTION('',(0.,0.,1.));
#1419=DIRECTION('',(0.,-1.,0.));
#1420=DIRECTION('',(0.,0.,-1.));
#1421=DIRECTION('',(0.,1.,0.));
#1422=DIRECTION('',(0.,-1.,0.));
#1423=DIRECTION('',(0.,0.,-1.));
#1424=DIRECTION('',(1.,0.,0.));
#1425=DIRECTION('',(0.,0.,-1.));
#1426=DIRECTION('',(0.,0.,-1.));
#1427=DIRECTION('',(0.,1.,0.));
#1428=DIRECTION('',(0.,0.,-1.));
#1429=DIRECTION('',(0.,1.,0.));
#1430=DIRECTION('',(0.,0.,1.));
#1431=DIRECTION('',(0.,-1.,0.));
#1432=DIRECTION('',(0.,0.,-1.));
#1433=DIRECTION('',(0.,1.,0.));
#1434=DIRECTION('',(0.,-1.,0.));
#1435=DIRECTION('',(0.,0.,-1.));
#1436=DIRECTION('',(-1.,0.,0.));
#1437=DIRECTION('',(0.,0.,1.));
#1438=DIRECTION('',(0.,0.,1.));
#1439=DIRECTION('',(0.,1.,0.));
#1440=DIRECTION('',(0.,0.,1.));
#1441=DIRECTION('',(0.,1.,0.));
#1442=DIRECTION('',(0.,0.,1.));
#1443=DIRECTION('',(0.,-1.,0.));
#1444=DIRECTION('',(0.,0.,-1.));
#1445=DIRECTION('',(0.,1.,0.));
#1446=DIRECTION('',(0.,-1.,0.));
#1447=DIRECTION('',(0.,0.,-1.));
#1448=DIRECTION('',(1.,0.,1.23908819712629E-16));
#1449=DIRECTION('',(1.23908819712629E-16,0.,-1.));
#1450=DIRECTION('',(1.23908819712629E-16,0.,-1.));
#1451=DIRECTION('',(0.,1.,0.));
#1452=DIRECTION('',(1.23908819712629E-16,0.,-1.));
#1453=DIRECTION('',(0.,1.,0.));
#1454=DIRECTION('',(0.,0.,1.));
#1455=DIRECTION('',(0.,-1.,0.));
#1456=DIRECTION('',(0.,0.,-1.));
#1457=DIRECTION('',(0.,-1.,0.));
#1458=DIRECTION('',(0.,0.,-1.));
#1459=DIRECTION('',(0.,-1.,0.));
#1460=DIRECTION('',(1.,0.,0.));
#1461=DIRECTION('',(0.,-1.,0.));
#1462=DIRECTION('',(0.,0.,-1.));
#1463=DIRECTION('',(0.,0.,-1.));
#1464=DIRECTION('',(0.,0.,1.));
#1465=DIRECTION('',(0.,-1.,0.));
#1466=DIRECTION('',(0.,0.,-1.));
#1467=DIRECTION('',(0.,0.,1.));
#1468=DIRECTION('',(0.,-1.,0.));
#1469=DIRECTION('',(0.,0.,-1.));
#1470=DIRECTION('',(0.,0.,-1.));
#1471=DIRECTION('',(0.,-1.,0.));
#1472=DIRECTION('',(0.,0.,-1.));
#1473=DIRECTION('',(0.,0.,1.));
#1474=DIRECTION('',(0.,-1.,0.));
#1475=DIRECTION('',(0.,0.,-1.));
#1476=DIRECTION('',(1.23908819712629E-16,0.,-1.));
#1477=DIRECTION('',(0.,-1.,0.));
#1478=DIRECTION('',(0.,0.,-1.));
#1479=DIRECTION('',(0.,0.,1.));
#1480=DIRECTION('',(0.,0.,1.));
#1481=DIRECTION('',(0.,-1.,0.));
#1482=DIRECTION('',(0.,0.,-1.));
#1483=DIRECTION('',(1.23908819712629E-16,0.,-1.));
#1484=DIRECTION('',(0.,-1.,0.));
#1485=DIRECTION('',(0.,0.,-1.));
#1486=DIRECTION('',(0.,0.,1.));
#1487=DIRECTION('',(0.,-1.,0.));
#1488=DIRECTION('',(0.,0.,-1.));
#1489=DIRECTION('',(0.,0.,-1.));
#1490=DIRECTION('',(0.,-1.,0.));
#1491=DIRECTION('',(0.,0.,-1.));
#1492=DIRECTION('',(0.,0.,1.));
#1493=DIRECTION('',(0.,-1.,0.));
#1494=DIRECTION('',(1.,0.,0.));
#1495=DIRECTION('',(0.,-1.,0.));
#1496=DIRECTION('',(0.,0.,-1.));
#1497=DIRECTION('',(0.,0.,1.));
#1498=DIRECTION('',(0.,0.,1.));
#1499=DIRECTION('',(0.,-1.,0.));
#1500=DIRECTION('',(0.,0.,-1.));
#1501=DIRECTION('',(1.23908819712629E-16,0.,-1.));
#1502=DIRECTION('',(0.,-1.,0.));
#1503=DIRECTION('',(0.,0.,-1.));
#1504=DIRECTION('',(0.,0.,1.));
#1505=DIRECTION('',(0.,-1.,0.));
#1506=DIRECTION('',(0.,0.,-1.));
#1507=DIRECTION('',(0.,0.,-1.));
#1508=DIRECTION('',(0.,-1.,0.));
#1509=DIRECTION('',(0.,0.,-1.));
#1510=DIRECTION('',(0.,0.,1.));
#1511=DIRECTION('',(0.,-1.,0.));
#1512=DIRECTION('',(0.,0.,-1.));
#1513=DIRECTION('',(0.,0.,1.));
#1514=DIRECTION('',(0.,0.,-1.));
#1515=DIRECTION('',(0.,-1.,0.));
#1516=DIRECTION('',(0.,0.,-1.));
#1517=DIRECTION('',(0.,0.,1.));
#1518=DIRECTION('',(0.,-1.,0.));
#1519=DIRECTION('',(0.,0.,-1.));
#1520=DIRECTION('',(0.,0.,-1.));
#1521=DIRECTION('',(0.,-1.,0.));
#1522=DIRECTION('',(0.,0.,-1.));
#1523=DIRECTION('',(0.,0.,1.));
#1524=DIRECTION('',(0.,-1.,0.));
#1525=DIRECTION('',(0.,0.,-1.));
#1526=DIRECTION('',(1.23908819712629E-16,0.,-1.));
#1527=DIRECTION('',(0.,0.,-1.));
#1528=DIRECTION('',(-1.,0.,0.));
#1529=DIRECTION('',(0.,0.,1.));
#1530=DIRECTION('',(1.,0.,0.));
#1531=DIRECTION('',(0.,-1.,0.));
#1532=DIRECTION('',(0.,0.,-1.));
#1533=DIRECTION('',(0.,0.,-1.));
#1534=DIRECTION('',(-1.,0.,0.));
#1535=DIRECTION('',(0.,0.,1.));
#1536=DIRECTION('',(1.,0.,0.));
#1537=DIRECTION('',(0.,0.,-1.));
#1538=DIRECTION('',(-1.,0.,0.));
#1539=DIRECTION('',(0.,-1.,0.));
#1540=DIRECTION('',(0.,0.,-1.));
#1541=DIRECTION('',(0.,0.,1.));
#1542=DIRECTION('',(1.,0.,0.));
#1543=DIRECTION('',(0.,0.,-1.));
#1544=DIRECTION('',(-1.,0.,0.));
#1545=DIRECTION('',(0.,0.,1.));
#1546=DIRECTION('',(1.,0.,0.));
#1547=DIRECTION('',(0.,-1.,0.));
#1548=DIRECTION('',(0.,0.,-1.));
#1549=DIRECTION('',(0.,0.,-1.));
#1550=DIRECTION('',(-1.,0.,0.));
#1551=DIRECTION('',(0.,0.,1.));
#1552=DIRECTION('',(1.,0.,0.));
#1553=DIRECTION('',(0.,0.,-1.));
#1554=DIRECTION('',(-1.,0.,0.));
#1555=DIRECTION('',(0.,-1.,0.));
#1556=DIRECTION('',(0.,0.,-1.));
#1557=DIRECTION('',(0.,0.,1.));
#1558=DIRECTION('',(1.,0.,0.));
#1559=DIRECTION('',(1.23908819712629E-16,0.,-1.));
#1560=DIRECTION('',(-1.,0.,-1.23908819712629E-16));
#1561=DIRECTION('',(0.,0.,1.));
#1562=DIRECTION('',(1.,0.,0.));
#1563=DIRECTION('',(0.,-1.,0.));
#1564=DIRECTION('',(0.,0.,-1.));
#1565=DIRECTION('',(0.,0.,-1.));
#1566=DIRECTION('',(-1.,0.,0.));
#1567=DIRECTION('',(0.,0.,1.));
#1568=DIRECTION('',(1.,0.,0.));
#1569=DIRECTION('',(0.,0.,1.));
#1570=DIRECTION('',(1.,0.,0.));
#1571=DIRECTION('',(0.,0.,1.));
#1572=DIRECTION('',(1.,0.,0.));
#1573=DIRECTION('',(0.,-1.,0.));
#1574=DIRECTION('',(0.,0.,-1.));
#1575=DIRECTION('',(0.,0.,-1.));
#1576=DIRECTION('',(-1.,0.,0.));
#1577=DIRECTION('',(0.,0.,-1.));
#1578=DIRECTION('',(-1.,0.,0.));
#1579=DIRECTION('',(0.,0.,-1.));
#1580=DIRECTION('',(-1.,0.,0.));
#1581=DIRECTION('',(0.,-1.,0.));
#1582=DIRECTION('',(0.,0.,-1.));
#1583=DIRECTION('',(8.67361737988403E-16,8.67361737988404E-16,1.));
#1584=DIRECTION('',(0.,-1.,8.67361737988404E-16));
#1585=DIRECTION('',(0.,0.,1.));
#1586=DIRECTION('',(1.,0.,0.));
#1587=DIRECTION('',(0.,0.,1.));
#1588=DIRECTION('',(1.,0.,0.));
#1589=DIRECTION('',(0.,-1.,0.));
#1590=DIRECTION('',(0.,0.,-1.));
#1591=DIRECTION('',(0.,0.,-1.));
#1592=DIRECTION('',(-1.,0.,0.));
#1593=DIRECTION('',(0.,0.,-1.));
#1594=DIRECTION('',(-1.,0.,0.));
#1595=DIRECTION('',(0.,0.,-1.));
#1596=DIRECTION('',(-1.,0.,0.));
#1597=DIRECTION('',(0.,-1.,0.));
#1598=DIRECTION('',(0.,0.,-1.));
#1599=DIRECTION('',(0.,0.,1.));
#1600=DIRECTION('',(1.,0.,0.));
#1601=DIRECTION('',(-1.23908819712629E-16,0.,1.));
#1602=DIRECTION('',(1.,0.,1.23908819712629E-16));
#1603=DIRECTION('',(0.,0.,1.));
#1604=DIRECTION('',(1.,0.,0.));
#1605=DIRECTION('',(0.,-1.,0.));
#1606=DIRECTION('',(0.,0.,-1.));
#1607=DIRECTION('',(0.,0.,-1.));
#1608=DIRECTION('',(-1.,0.,0.));
#1609=DIRECTION('',(0.,0.,-1.));
#1610=DIRECTION('',(-1.,0.,0.));
#1611=DIRECTION('',(0.,0.,-1.));
#1612=DIRECTION('',(-1.,0.,0.));
#1613=DIRECTION('',(0.,0.,1.));
#1614=DIRECTION('',(1.,0.,0.));
#1615=DIRECTION('',(0.,-1.,0.));
#1616=DIRECTION('',(0.,0.,-1.));
#1617=DIRECTION('',(0.,0.,-1.));
#1618=DIRECTION('',(-1.,0.,0.));
#1619=DIRECTION('',(-1.23908819712629E-16,0.,1.));
#1620=DIRECTION('',(1.,0.,1.23908819712629E-16));
#1621=DIRECTION('',(0.,0.,-1.));
#1622=DIRECTION('',(-1.,0.,0.));
#1623=DIRECTION('',(0.,-1.,0.));
#1624=DIRECTION('',(0.,0.,-1.));
#1625=DIRECTION('',(0.,0.,1.));
#1626=DIRECTION('',(1.,0.,0.));
#1627=DIRECTION('',(0.,0.,-1.));
#1628=DIRECTION('',(-1.,0.,0.));
#1629=DIRECTION('',(0.,0.,1.));
#1630=DIRECTION('',(1.,0.,0.));
#1631=DIRECTION('',(0.,-1.,0.));
#1632=DIRECTION('',(0.,0.,-1.));
#1633=DIRECTION('',(0.,0.,-1.));
#1634=DIRECTION('',(-1.,0.,0.));
#1635=DIRECTION('',(0.,0.,1.));
#1636=DIRECTION('',(1.,0.,0.));
#1637=DIRECTION('',(0.,0.,-1.));
#1638=DIRECTION('',(-1.,0.,0.));
#1639=DIRECTION('',(0.,-1.,0.));
#1640=DIRECTION('',(0.,0.,-1.));
#1641=DIRECTION('',(0.,0.,1.));
#1642=DIRECTION('',(1.,0.,0.));
#1643=DIRECTION('',(0.,0.,-1.));
#1644=DIRECTION('',(-1.,0.,0.));
#1645=DIRECTION('',(0.,0.,1.));
#1646=DIRECTION('',(1.,0.,0.));
#1647=DIRECTION('',(0.,-1.,0.));
#1648=DIRECTION('',(0.,0.,-1.));
#1649=DIRECTION('',(0.,0.,-1.));
#1650=DIRECTION('',(-1.,0.,0.));
#1651=DIRECTION('',(0.,0.,1.));
#1652=DIRECTION('',(1.,0.,0.));
#1653=DIRECTION('',(0.,0.,-1.));
#1654=DIRECTION('',(-1.,0.,0.));
#1655=DIRECTION('',(0.,0.,1.));
#1656=DIRECTION('',(1.,0.,0.));
#1657=DIRECTION('',(0.,-1.,0.));
#1658=DIRECTION('',(0.,0.,-1.));
#1659=DIRECTION('',(0.,0.,-1.));
#1660=DIRECTION('',(-1.,0.,0.));
#1661=DIRECTION('',(0.,0.,1.));
#1662=DIRECTION('',(1.,0.,0.));
#1663=DIRECTION('',(0.,0.,-1.));
#1664=DIRECTION('',(-1.,0.,0.));
#1665=DIRECTION('',(0.,-1.,0.));
#1666=DIRECTION('',(0.,0.,-1.));
#1667=DIRECTION('',(8.67361737988403E-16,0.,1.));
#1668=DIRECTION('',(1.,0.,-8.67361737988403E-16));
#1669=DIRECTION('',(0.,0.,-1.));
#1670=DIRECTION('',(-1.,0.,0.));
#1671=DIRECTION('',(0.,0.,1.));
#1672=DIRECTION('',(1.,0.,0.));
#1673=DIRECTION('',(0.,-1.,0.));
#1674=DIRECTION('',(0.,0.,-1.));
#1675=DIRECTION('',(0.,0.,-1.));
#1676=DIRECTION('',(-1.,0.,0.));
#1677=DIRECTION('',(0.,0.,1.));
#1678=DIRECTION('',(1.,0.,0.));
#1679=DIRECTION('',(0.,0.,-1.));
#1680=DIRECTION('',(-1.,0.,0.));
#1681=DIRECTION('',(0.,-1.,0.));
#1682=DIRECTION('',(0.,0.,-1.));
#1683=DIRECTION('',(0.,0.,1.));
#1684=DIRECTION('',(1.,0.,0.));
#1685=DIRECTION('',(1.23908819712629E-16,0.,-1.));
#1686=DIRECTION('',(-1.,0.,-1.23908819712629E-16));
#1687=DIRECTION('',(0.,0.,1.));
#1688=DIRECTION('',(1.,0.,0.));
#1689=DIRECTION('',(0.,-1.,0.));
#1690=DIRECTION('',(0.,0.,-1.));
#1691=DIRECTION('',(0.,0.,-1.));
#1692=DIRECTION('',(-1.,0.,0.));
#1693=DIRECTION('',(0.,0.,1.));
#1694=DIRECTION('',(1.,0.,0.));
#1695=CARTESIAN_POINT('',(0.,0.,0.));
#1696=CARTESIAN_POINT('',(-0.0015,-0.005,0.0085));
#1697=CARTESIAN_POINT('',(-0.0015,-0.005,0.017));
#1698=CARTESIAN_POINT('',(-0.0015,-0.0045,0.017));
#1699=CARTESIAN_POINT('',(-0.0015,-0.0005,0.017));
#1700=CARTESIAN_POINT('',(-0.0015,-0.0005,-0.0015));
#1701=CARTESIAN_POINT('',(-0.0015,-0.0005,-0.0015));
#1702=CARTESIAN_POINT('',(-0.0015,-0.005,-0.0015));
#1703=CARTESIAN_POINT('',(-0.0015,-0.0045,-0.0015));
#1704=CARTESIAN_POINT('',(-0.0015,-0.0045,0.0085));
#1705=CARTESIAN_POINT('',(0.,-0.005,-0.0015));
#1706=CARTESIAN_POINT('',(0.,0.,-0.0015));
#1707=CARTESIAN_POINT('',(-0.001,0.,-0.0015));
#1708=CARTESIAN_POINT('',(0.001,0.,-0.0015));
#1709=CARTESIAN_POINT('',(0.001,-0.0005,-0.0015));
#1710=CARTESIAN_POINT('',(0.0015,-0.0005,-0.0015));
#1711=CARTESIAN_POINT('',(0.0015,-0.005,-0.0015));
#1712=CARTESIAN_POINT('',(0.0015,-0.0045,-0.0015));
#1713=CARTESIAN_POINT('',(0.001,-0.0045,-0.0015));
#1714=CARTESIAN_POINT('',(0.001,-0.005,-0.0015));
#1715=CARTESIAN_POINT('',(0.,-0.005,-0.0015));
#1716=CARTESIAN_POINT('',(-0.001,-0.005,-0.0015));
#1717=CARTESIAN_POINT('',(-0.001,-0.0045,-0.0015));
#1718=CARTESIAN_POINT('',(-0.001,-0.0005,-0.0015));
#1719=CARTESIAN_POINT('',(0.0015,-0.005,-0.00075));
#1720=CARTESIAN_POINT('',(0.0015,-0.0005,-0.00075));
#1721=CARTESIAN_POINT('',(0.0015,-0.0005,0.017));
#1722=CARTESIAN_POINT('',(0.0015,-0.005,0.017));
#1723=CARTESIAN_POINT('',(0.0015,-0.0045,0.017));
#1724=CARTESIAN_POINT('',(0.0015,-0.0045,-0.0015));
#1725=CARTESIAN_POINT('',(0.003,-0.005,0.017));
#1726=CARTESIAN_POINT('',(0.003,-0.0005,0.017));
#1727=CARTESIAN_POINT('',(0.0045,-0.0005,0.017));
#1728=CARTESIAN_POINT('',(0.0045,-0.005,0.017));
#1729=CARTESIAN_POINT('',(0.0045,-0.0045,0.017));
#1730=CARTESIAN_POINT('',(0.003,-0.0045,0.017));
#1731=CARTESIAN_POINT('',(0.0045,-0.005,0.01));
#1732=CARTESIAN_POINT('',(0.0045,-0.0005,0.01));
#1733=CARTESIAN_POINT('',(0.0045,-0.0005,0.003));
#1734=CARTESIAN_POINT('',(0.0045,-0.005,0.003));
#1735=CARTESIAN_POINT('',(0.0045,-0.0045,0.003));
#1736=CARTESIAN_POINT('',(0.0045,-0.0045,0.017));
#1737=CARTESIAN_POINT('',(0.009,-0.005,0.003));
#1738=CARTESIAN_POINT('',(0.009,-0.0005,0.003));
#1739=CARTESIAN_POINT('',(0.0135,-0.0005,0.003));
#1740=CARTESIAN_POINT('',(0.0135,-0.005,0.003));
#1741=CARTESIAN_POINT('',(0.0135,-0.0045,0.003));
#1742=CARTESIAN_POINT('',(0.009,-0.0045,0.003));
#1743=CARTESIAN_POINT('',(0.0135,-0.005,0.01));
#1744=CARTESIAN_POINT('',(0.0135,-0.0005,0.01));
#1745=CARTESIAN_POINT('',(0.0135,-0.0005,0.017));
#1746=CARTESIAN_POINT('',(0.0135,-0.005,0.017));
#1747=CARTESIAN_POINT('',(0.0135,-0.0045,0.017));
#1748=CARTESIAN_POINT('',(0.0135,-0.0045,0.003));
#1749=CARTESIAN_POINT('',(0.015,-0.005,0.017));
#1750=CARTESIAN_POINT('',(0.015,-0.0005,0.017));
#1751=CARTESIAN_POINT('',(0.0165,-0.0005,0.017));
#1752=CARTESIAN_POINT('',(0.0165,-0.005,0.017));
#1753=CARTESIAN_POINT('',(0.0165,-0.0045,0.017));
#1754=CARTESIAN_POINT('',(0.015,-0.0045,0.017));
#1755=CARTESIAN_POINT('',(0.0165,-0.005,0.01));
#1756=CARTESIAN_POINT('',(0.0165,-0.0005,0.01));
#1757=CARTESIAN_POINT('',(0.0165,-0.0005,0.003));
#1758=CARTESIAN_POINT('',(0.0165,-0.005,0.003));
#1759=CARTESIAN_POINT('',(0.0165,-0.0045,0.003));
#1760=CARTESIAN_POINT('',(0.0165,-0.0045,0.017));
#1761=CARTESIAN_POINT('',(0.021,-0.005,0.003));
#1762=CARTESIAN_POINT('',(0.021,-0.0005,0.003));
#1763=CARTESIAN_POINT('',(0.0255,-0.0005,0.003));
#1764=CARTESIAN_POINT('',(0.0255,-0.005,0.003));
#1765=CARTESIAN_POINT('',(0.0255,-0.0045,0.003));
#1766=CARTESIAN_POINT('',(0.021,-0.0045,0.003));
#1767=CARTESIAN_POINT('',(0.0255,-0.005,0.01));
#1768=CARTESIAN_POINT('',(0.0255,-0.0005,0.01));
#1769=CARTESIAN_POINT('',(0.0255,-0.0005,0.017));
#1770=CARTESIAN_POINT('',(0.0255,-0.005,0.017));
#1771=CARTESIAN_POINT('',(0.0255,-0.0045,0.017));
#1772=CARTESIAN_POINT('',(0.0255,-0.0045,0.003));
#1773=CARTESIAN_POINT('',(0.027,-0.005,0.017));
#1774=CARTESIAN_POINT('',(0.027,-0.0005,0.017));
#1775=CARTESIAN_POINT('',(0.0285,-0.0005,0.017));
#1776=CARTESIAN_POINT('',(0.0285,-0.005,0.017));
#1777=CARTESIAN_POINT('',(0.0285,-0.0045,0.017));
#1778=CARTESIAN_POINT('',(0.027,-0.0045,0.017));
#1779=CARTESIAN_POINT('',(0.0285,-0.005,0.0155));
#1780=CARTESIAN_POINT('',(0.0285,-0.0005,0.0155));
#1781=CARTESIAN_POINT('',(0.0285,-0.0005,-0.0015));
#1782=CARTESIAN_POINT('',(0.0285,-0.005,-0.0015));
#1783=CARTESIAN_POINT('',(0.0285,-0.0045,-0.0015));
#1784=CARTESIAN_POINT('',(0.0285,-0.0045,0.017));
#1785=CARTESIAN_POINT('',(0.03,-0.005,-0.0015));
#1786=CARTESIAN_POINT('',(0.029,-0.0005,-0.0015));
#1787=CARTESIAN_POINT('',(0.029,0.,-0.0015));
#1788=CARTESIAN_POINT('',(0.03,0.,-0.0015));
#1789=CARTESIAN_POINT('',(0.031,0.,-0.0015));
#1790=CARTESIAN_POINT('',(0.031,-0.0005,-0.0015));
#1791=CARTESIAN_POINT('',(0.0315,-0.0005,-0.0015));
#1792=CARTESIAN_POINT('',(0.0315,-0.005,-0.0015));
#1793=CARTESIAN_POINT('',(0.0315,-0.0045,-0.0015));
#1794=CARTESIAN_POINT('',(0.031,-0.0045,-0.0015));
#1795=CARTESIAN_POINT('',(0.031,-0.005,-0.0015));
#1796=CARTESIAN_POINT('',(0.03,-0.005,-0.0015));
#1797=CARTESIAN_POINT('',(0.029,-0.005,-0.0015));
#1798=CARTESIAN_POINT('',(0.029,-0.0045,-0.0015));
#1799=CARTESIAN_POINT('',(0.0315,-0.005,0.00625));
#1800=CARTESIAN_POINT('',(0.0315,-0.0005,0.00625));
#1801=CARTESIAN_POINT('',(0.0315,-0.0005,0.017));
#1802=CARTESIAN_POINT('',(0.0315,-0.005,0.017));
#1803=CARTESIAN_POINT('',(0.0315,-0.0045,0.017));
#1804=CARTESIAN_POINT('',(0.0315,-0.0045,-0.0015));
#1805=CARTESIAN_POINT('',(0.027,-0.005,0.017));
#1806=CARTESIAN_POINT('',(0.027,-0.0005,0.017));
#1807=CARTESIAN_POINT('',(0.0225,-0.0005,0.017));
#1808=CARTESIAN_POINT('',(0.0225,-0.005,0.017));
#1809=CARTESIAN_POINT('',(0.0225,-0.0045,0.017));
#1810=CARTESIAN_POINT('',(0.027,-0.0045,0.017));
#1811=CARTESIAN_POINT('',(0.0225,-0.005,0.01));
#1812=CARTESIAN_POINT('',(0.0225,-0.0005,0.003));
#1813=CARTESIAN_POINT('',(0.0225,-0.0005,0.003));
#1814=CARTESIAN_POINT('',(0.0225,-0.005,0.003));
#1815=CARTESIAN_POINT('',(0.0225,-0.0045,0.003));
#1816=CARTESIAN_POINT('',(0.0225,-0.0045,0.01));
#1817=CARTESIAN_POINT('',(0.021,-0.005,0.003));
#1818=CARTESIAN_POINT('',(0.021,-0.0005,0.003));
#1819=CARTESIAN_POINT('',(0.0195,-0.0005,0.003));
#1820=CARTESIAN_POINT('',(0.0195,-0.005,0.003));
#1821=CARTESIAN_POINT('',(0.0195,-0.0045,0.003));
#1822=CARTESIAN_POINT('',(0.021,-0.0045,0.003));
#1823=CARTESIAN_POINT('',(0.0195,-0.005,0.01));
#1824=CARTESIAN_POINT('',(0.0195,-0.0005,0.017));
#1825=CARTESIAN_POINT('',(0.0195,-0.0005,0.017));
#1826=CARTESIAN_POINT('',(0.0195,-0.005,0.017));
#1827=CARTESIAN_POINT('',(0.0195,-0.0045,0.017));
#1828=CARTESIAN_POINT('',(0.0195,-0.0045,0.01));
#1829=CARTESIAN_POINT('',(0.015,-0.005,0.017));
#1830=CARTESIAN_POINT('',(0.015,-0.0005,0.017));
#1831=CARTESIAN_POINT('',(0.0105,-0.0005,0.017));
#1832=CARTESIAN_POINT('',(0.0105,-0.005,0.017));
#1833=CARTESIAN_POINT('',(0.0105,-0.0045,0.017));
#1834=CARTESIAN_POINT('',(0.015,-0.0045,0.017));
#1835=CARTESIAN_POINT('',(0.0105,-0.005,0.01));
#1836=CARTESIAN_POINT('',(0.0105,-0.0005,0.003));
#1837=CARTESIAN_POINT('',(0.0105,-0.0005,0.003));
#1838=CARTESIAN_POINT('',(0.0105,-0.005,0.003));
#1839=CARTESIAN_POINT('',(0.0105,-0.0045,0.003));
#1840=CARTESIAN_POINT('',(0.0105,-0.0045,0.01));
#1841=CARTESIAN_POINT('',(0.009,-0.005,0.003));
#1842=CARTESIAN_POINT('',(0.009,-0.0005,0.003));
#1843=CARTESIAN_POINT('',(0.0075,-0.0005,0.003));
#1844=CARTESIAN_POINT('',(0.0075,-0.005,0.003));
#1845=CARTESIAN_POINT('',(0.0075,-0.0045,0.003));
#1846=CARTESIAN_POINT('',(0.009,-0.0045,0.003));
#1847=CARTESIAN_POINT('',(0.0075,-0.005,0.01));
#1848=CARTESIAN_POINT('',(0.0075,-0.0005,0.017));
#1849=CARTESIAN_POINT('',(0.0075,-0.0005,0.017));
#1850=CARTESIAN_POINT('',(0.0075,-0.005,0.017));
#1851=CARTESIAN_POINT('',(0.0075,-0.0045,0.017));
#1852=CARTESIAN_POINT('',(0.0075,-0.0045,0.01));
#1853=CARTESIAN_POINT('',(0.003,-0.005,0.017));
#1854=CARTESIAN_POINT('',(0.003,-0.0005,0.017));
#1855=CARTESIAN_POINT('',(0.003,-0.0045,0.017));
#1856=CARTESIAN_POINT('',(0.015,-0.005,0.01));
#1857=CARTESIAN_POINT('',(0.027,-0.005,0.017));
#1858=CARTESIAN_POINT('',(0.025,-0.005,0.017));
#1859=CARTESIAN_POINT('',(0.029,-0.005,0.017));
#1860=CARTESIAN_POINT('',(0.029,-0.005,-0.0015));
#1861=CARTESIAN_POINT('',(0.031,-0.005,0.017));
#1862=CARTESIAN_POINT('',(0.031,-0.005,0.017));
#1863=CARTESIAN_POINT('',(0.027,-0.005,0.017));
#1864=CARTESIAN_POINT('',(0.023,-0.005,0.017));
#1865=CARTESIAN_POINT('',(0.023,-0.005,0.01));
#1866=CARTESIAN_POINT('',(0.023,-0.005,0.003));
#1867=CARTESIAN_POINT('',(0.021,-0.005,0.003));
#1868=CARTESIAN_POINT('',(0.019,-0.005,0.003));
#1869=CARTESIAN_POINT('',(0.019,-0.005,0.01));
#1870=CARTESIAN_POINT('',(0.019,-0.005,0.017));
#1871=CARTESIAN_POINT('',(0.015,-0.005,0.017));
#1872=CARTESIAN_POINT('',(0.011,-0.005,0.017));
#1873=CARTESIAN_POINT('',(0.011,-0.005,0.01));
#1874=CARTESIAN_POINT('',(0.011,-0.005,0.003));
#1875=CARTESIAN_POINT('',(0.009,-0.005,0.003));
#1876=CARTESIAN_POINT('',(0.007,-0.005,0.003));
#1877=CARTESIAN_POINT('',(0.007,-0.005,0.01));
#1878=CARTESIAN_POINT('',(0.007,-0.005,0.017));
#1879=CARTESIAN_POINT('',(0.003,-0.005,0.017));
#1880=CARTESIAN_POINT('',(-0.001,-0.005,0.017));
#1881=CARTESIAN_POINT('',(-0.001,-0.005,0.01));
#1882=CARTESIAN_POINT('',(0.001,-0.005,0.017));
#1883=CARTESIAN_POINT('',(0.001,-0.005,0.017));
#1884=CARTESIAN_POINT('',(0.003,-0.005,0.017));
#1885=CARTESIAN_POINT('',(0.005,-0.005,0.017));
#1886=CARTESIAN_POINT('',(0.005,-0.005,0.003));
#1887=CARTESIAN_POINT('',(0.005,-0.005,0.003));
#1888=CARTESIAN_POINT('',(0.009,-0.005,0.003));
#1889=CARTESIAN_POINT('',(0.013,-0.005,0.003));
#1890=CARTESIAN_POINT('',(0.013,-0.005,0.017));
#1891=CARTESIAN_POINT('',(0.013,-0.005,0.017));
#1892=CARTESIAN_POINT('',(0.015,-0.005,0.017));
#1893=CARTESIAN_POINT('',(0.017,-0.005,0.017));
#1894=CARTESIAN_POINT('',(0.017,-0.005,0.003));
#1895=CARTESIAN_POINT('',(0.017,-0.005,0.003));
#1896=CARTESIAN_POINT('',(0.021,-0.005,0.003));
#1897=CARTESIAN_POINT('',(0.025,-0.005,0.003));
#1898=CARTESIAN_POINT('',(0.025,-0.005,0.017));
#1899=CARTESIAN_POINT('',(0.015,0.,0.01));
#1900=CARTESIAN_POINT('',(0.003,0.,0.017));
#1901=CARTESIAN_POINT('',(0.005,0.,0.017));
#1902=CARTESIAN_POINT('',(0.001,0.,0.017));
#1903=CARTESIAN_POINT('',(0.001,0.,0.01));
#1904=CARTESIAN_POINT('',(-0.001,0.,0.017));
#1905=CARTESIAN_POINT('',(-0.001,0.,0.017));
#1906=CARTESIAN_POINT('',(0.003,0.,0.017));
#1907=CARTESIAN_POINT('',(0.007,0.,0.017));
#1908=CARTESIAN_POINT('',(0.007,0.,0.003));
#1909=CARTESIAN_POINT('',(0.007,0.,0.003));
#1910=CARTESIAN_POINT('',(0.009,0.,0.003));
#1911=CARTESIAN_POINT('',(0.011,0.,0.003));
#1912=CARTESIAN_POINT('',(0.011,0.,0.017));
#1913=CARTESIAN_POINT('',(0.011,0.,0.017));
#1914=CARTESIAN_POINT('',(0.015,0.,0.017));
#1915=CARTESIAN_POINT('',(0.019,0.,0.017));
#1916=CARTESIAN_POINT('',(0.019,0.,0.003));
#1917=CARTESIAN_POINT('',(0.019,0.,0.003));
#1918=CARTESIAN_POINT('',(0.021,0.,0.003));
#1919=CARTESIAN_POINT('',(0.023,0.,0.003));
#1920=CARTESIAN_POINT('',(0.023,0.,0.017));
#1921=CARTESIAN_POINT('',(0.023,0.,0.017));
#1922=CARTESIAN_POINT('',(0.027,0.,0.017));
#1923=CARTESIAN_POINT('',(0.031,0.,0.017));
#1924=CARTESIAN_POINT('',(0.031,0.,0.01));
#1925=CARTESIAN_POINT('',(0.029,0.,0.01));
#1926=CARTESIAN_POINT('',(0.029,0.,0.017));
#1927=CARTESIAN_POINT('',(0.027,0.,0.017));
#1928=CARTESIAN_POINT('',(0.025,0.,0.017));
#1929=CARTESIAN_POINT('',(0.025,0.,0.01));
#1930=CARTESIAN_POINT('',(0.025,0.,0.003));
#1931=CARTESIAN_POINT('',(0.021,0.,0.003));
#1932=CARTESIAN_POINT('',(0.017,0.,0.003));
#1933=CARTESIAN_POINT('',(0.017,0.,0.01));
#1934=CARTESIAN_POINT('',(0.017,0.,0.017));
#1935=CARTESIAN_POINT('',(0.015,0.,0.017));
#1936=CARTESIAN_POINT('',(0.013,0.,0.017));
#1937=CARTESIAN_POINT('',(0.013,0.,0.01));
#1938=CARTESIAN_POINT('',(0.013,0.,0.003));
#1939=CARTESIAN_POINT('',(0.009,0.,0.003));
#1940=CARTESIAN_POINT('',(0.005,0.,0.003));
#1941=CARTESIAN_POINT('',(0.005,0.,0.01));
#1942=CARTESIAN_POINT('',(0.029,-0.0005,0.0155));
#1943=CARTESIAN_POINT('',(0.029,-0.0005,0.017));
#1944=CARTESIAN_POINT('',(0.027,-0.0005,0.017));
#1945=CARTESIAN_POINT('',(0.025,-0.0005,0.017));
#1946=CARTESIAN_POINT('',(0.025,-0.0005,0.01));
#1947=CARTESIAN_POINT('',(0.025,-0.0005,0.003));
#1948=CARTESIAN_POINT('',(0.021,-0.0005,0.003));
#1949=CARTESIAN_POINT('',(0.017,-0.0005,0.003));
#1950=CARTESIAN_POINT('',(0.017,-0.0005,0.01));
#1951=CARTESIAN_POINT('',(0.017,-0.0005,0.017));
#1952=CARTESIAN_POINT('',(0.015,-0.0005,0.017));
#1953=CARTESIAN_POINT('',(0.013,-0.0005,0.017));
#1954=CARTESIAN_POINT('',(0.013,-0.0005,0.01));
#1955=CARTESIAN_POINT('',(0.013,-0.0005,0.003));
#1956=CARTESIAN_POINT('',(0.009,-0.0005,0.003));
#1957=CARTESIAN_POINT('',(0.005,-0.0005,0.003));
#1958=CARTESIAN_POINT('',(0.005,-0.0005,0.01));
#1959=CARTESIAN_POINT('',(0.005,-0.0005,0.017));
#1960=CARTESIAN_POINT('',(0.003,-0.0005,0.017));
#1961=CARTESIAN_POINT('',(0.001,-0.0005,0.017));
#1962=CARTESIAN_POINT('',(0.001,-0.0005,-0.00075));
#1963=CARTESIAN_POINT('',(0.031,-0.0005,0.00625));
#1964=CARTESIAN_POINT('',(0.031,-0.0005,0.017));
#1965=CARTESIAN_POINT('',(0.027,-0.0005,0.017));
#1966=CARTESIAN_POINT('',(0.023,-0.0005,0.017));
#1967=CARTESIAN_POINT('',(0.023,-0.0005,0.01));
#1968=CARTESIAN_POINT('',(0.023,-0.0005,0.003));
#1969=CARTESIAN_POINT('',(0.021,-0.0005,0.003));
#1970=CARTESIAN_POINT('',(0.019,-0.0005,0.003));
#1971=CARTESIAN_POINT('',(0.019,-0.0005,0.01));
#1972=CARTESIAN_POINT('',(0.019,-0.0005,0.017));
#1973=CARTESIAN_POINT('',(0.015,-0.0005,0.017));
#1974=CARTESIAN_POINT('',(0.011,-0.0005,0.017));
#1975=CARTESIAN_POINT('',(0.011,-0.0005,0.01));
#1976=CARTESIAN_POINT('',(0.011,-0.0005,0.003));
#1977=CARTESIAN_POINT('',(0.009,-0.0005,0.003));
#1978=CARTESIAN_POINT('',(0.007,-0.0005,0.003));
#1979=CARTESIAN_POINT('',(0.007,-0.0005,0.01));
#1980=CARTESIAN_POINT('',(0.007,-0.0005,0.017));
#1981=CARTESIAN_POINT('',(0.003,-0.0005,0.017));
#1982=CARTESIAN_POINT('',(-0.001,-0.0005,0.017));
#1983=CARTESIAN_POINT('',(-0.001,-0.0005,0.01));
#1984=CARTESIAN_POINT('',(0.001,-0.0045,0.01));
#1985=CARTESIAN_POINT('',(0.001,-0.0045,0.017));
#1986=CARTESIAN_POINT('',(0.003,-0.0045,0.017));
#1987=CARTESIAN_POINT('',(0.005,-0.0045,0.017));
#1988=CARTESIAN_POINT('',(0.005,-0.0045,0.01));
#1989=CARTESIAN_POINT('',(0.005,-0.0045,0.003));
#1990=CARTESIAN_POINT('',(0.009,-0.0045,0.003));
#1991=CARTESIAN_POINT('',(0.013,-0.0045,0.003));
#1992=CARTESIAN_POINT('',(0.013,-0.0045,0.01));
#1993=CARTESIAN_POINT('',(0.013,-0.0045,0.017));
#1994=CARTESIAN_POINT('',(0.015,-0.0045,0.017));
#1995=CARTESIAN_POINT('',(0.017,-0.0045,0.017));
#1996=CARTESIAN_POINT('',(0.017,-0.0045,0.01));
#1997=CARTESIAN_POINT('',(0.017,-0.0045,0.003));
#1998=CARTESIAN_POINT('',(0.021,-0.0045,0.003));
#1999=CARTESIAN_POINT('',(0.025,-0.0045,0.003));
#2000=CARTESIAN_POINT('',(0.025,-0.0045,0.01));
#2001=CARTESIAN_POINT('',(0.025,-0.0045,0.017));
#2002=CARTESIAN_POINT('',(0.027,-0.0045,0.017));
#2003=CARTESIAN_POINT('',(0.029,-0.0045,0.017));
#2004=CARTESIAN_POINT('',(0.029,-0.0045,0.01));
#2005=CARTESIAN_POINT('',(0.031,-0.0045,0.01));
#2006=CARTESIAN_POINT('',(0.031,-0.0045,0.017));
#2007=CARTESIAN_POINT('',(0.027,-0.0045,0.017));
#2008=CARTESIAN_POINT('',(0.023,-0.0045,0.017));
#2009=CARTESIAN_POINT('',(0.023,-0.0045,0.01));
#2010=CARTESIAN_POINT('',(0.023,-0.0045,0.003));
#2011=CARTESIAN_POINT('',(0.021,-0.0045,0.003));
#2012=CARTESIAN_POINT('',(0.019,-0.0045,0.003));
#2013=CARTESIAN_POINT('',(0.019,-0.0045,0.01));
#2014=CARTESIAN_POINT('',(0.019,-0.0045,0.017));
#2015=CARTESIAN_POINT('',(0.015,-0.0045,0.017));
#2016=CARTESIAN_POINT('',(0.011,-0.0045,0.017));
#2017=CARTESIAN_POINT('',(0.011,-0.0045,0.01));
#2018=CARTESIAN_POINT('',(0.011,-0.0045,0.003));
#2019=CARTESIAN_POINT('',(0.009,-0.0045,0.003));
#2020=CARTESIAN_POINT('',(0.007,-0.0045,0.003));
#2021=CARTESIAN_POINT('',(0.007,-0.0045,0.01));
#2022=CARTESIAN_POINT('',(0.007,-0.0045,0.017));
#2023=CARTESIAN_POINT('',(0.003,-0.0045,0.017));
#2024=CARTESIAN_POINT('',(-0.001,-0.0045,0.017));
#2025=CARTESIAN_POINT('',(-0.001,-0.0045,0.0085));
#2026=MECHANICAL_DESIGN_GEOMETRIC_PRESENTATION_REPRESENTATION('',(#1129),
#2027);
#2027=(
GEOMETRIC_REPRESENTATION_CONTEXT(3)
GLOBAL_UNCERTAINTY_ASSIGNED_CONTEXT((#2028))
GLOBAL_UNIT_ASSIGNED_CONTEXT((#2031,#2030,#2029))
REPRESENTATION_CONTEXT('Microspine Rigid Body',
'TOP_LEVEL_ASSEMBLY_PART')
);
#2028=UNCERTAINTY_MEASURE_WITH_UNIT(LENGTH_MEASURE(1.E-8),#2031,
'DISTANCE_ACCURACY_VALUE','Maximum Tolerance applied to model');
#2029=(
NAMED_UNIT(*)
SI_UNIT($,.STERADIAN.)
SOLID_ANGLE_UNIT()
);
#2030=(
NAMED_UNIT(*)
PLANE_ANGLE_UNIT()
SI_UNIT($,.RADIAN.)
);
#2031=(
LENGTH_UNIT()
NAMED_UNIT(*)
SI_UNIT($,.METRE.)
);
#2032=PRODUCT_DEFINITION_SHAPE('','',#2033);
#2033=PRODUCT_DEFINITION('','',#2035,#2034);
#2034=PRODUCT_DEFINITION_CONTEXT('',#2041,'design');
#2035=PRODUCT_DEFINITION_FORMATION_WITH_SPECIFIED_SOURCE('','',#2037,
 .NOT_KNOWN.);
#2036=PRODUCT_RELATED_PRODUCT_CATEGORY('','',(#2037));
#2037=PRODUCT('Microspine Rigid Body','Microspine Rigid Body',
'Microspine Rigid Body',(#2039));
#2038=PRODUCT_CATEGORY('','');
#2039=PRODUCT_CONTEXT('',#2041,'mechanical');
#2040=APPLICATION_PROTOCOL_DEFINITION('international standard',
'automotive_design',2010,#2041);
#2041=APPLICATION_CONTEXT(
'core data for automotive mechanical design processes');
ENDSEC;
END-ISO-10303-21;
