ISO-10303-21;
HEADER;
/* Generated by software containing ST-Developer
 * from STEP Tools, Inc. (www.steptools.com) 
 */
/* OPTION: using custom renumber hook */

FILE_DESCRIPTION(
/* description */ ('STEP AP214',
'CAx-IF Rec.Pracs.---User Defined Attributes---1.5---2016-08-15'),
/* implementation_level */ '2;1');

FILE_NAME(
/* name */ '6a7e0c69ca83b69d0ab77a55',
/* time_stamp */ '2026-08-13T18:26:49Z',
/* author */ (''),
/* organization */ (''),
/* preprocessor_version */ 'ST-DEVELOPER v20',
/* originating_system */ 'ONSHAPE BY PTC INC, 1.219',
/* authorisation */ '  ');

FILE_SCHEMA (('AUTOMOTIVE_DESIGN {1 0 10303 214 3 1 1}'));
ENDSEC;

DATA;
#10=PROPERTY_DEFINITION_REPRESENTATION(#14,#12);
#11=PROPERTY_DEFINITION_REPRESENTATION(#15,#13);
#12=REPRESENTATION('',(#16),#635);
#13=REPRESENTATION('',(#17),#635);
#14=PROPERTY_DEFINITION('pmi validation property','',#640);
#15=PROPERTY_DEFINITION('pmi validation property','',#640);
#16=VALUE_REPRESENTATION_ITEM('number of annotations',COUNT_MEASURE(0.));
#17=VALUE_REPRESENTATION_ITEM('number of views',COUNT_MEASURE(0.));
#18=SHAPE_REPRESENTATION_RELATIONSHIP('','',#391,#19);
#19=ADVANCED_BREP_SHAPE_REPRESENTATION('',(#389),#635);
#20=CYLINDRICAL_SURFACE('',#417,0.0015);
#21=CYLINDRICAL_SURFACE('',#418,0.0015);
#22=CYLINDRICAL_SURFACE('',#421,0.0015);
#23=CYLINDRICAL_SURFACE('',#423,0.0015);
#24=CYLINDRICAL_SURFACE('',#424,0.002);
#25=CYLINDRICAL_SURFACE('',#425,0.017);
#26=CIRCLE('',#394,0.017);
#27=CIRCLE('',#395,0.0015);
#28=CIRCLE('',#396,0.0015);
#29=CIRCLE('',#398,0.017);
#30=CIRCLE('',#399,0.0015);
#31=CIRCLE('',#400,0.0015);
#32=CIRCLE('',#403,0.0015);
#33=CIRCLE('',#404,0.0015);
#34=CIRCLE('',#405,0.017);
#35=CIRCLE('',#407,0.002);
#36=CIRCLE('',#410,0.0015);
#37=CIRCLE('',#411,0.0015);
#38=CIRCLE('',#412,0.017);
#39=CIRCLE('',#414,0.002);
#40=ORIENTED_EDGE('',*,*,#140,.T.);
#41=ORIENTED_EDGE('',*,*,#141,.T.);
#42=ORIENTED_EDGE('',*,*,#142,.F.);
#43=ORIENTED_EDGE('',*,*,#143,.F.);
#44=ORIENTED_EDGE('',*,*,#144,.T.);
#45=ORIENTED_EDGE('',*,*,#145,.F.);
#46=ORIENTED_EDGE('',*,*,#146,.F.);
#47=ORIENTED_EDGE('',*,*,#147,.F.);
#48=ORIENTED_EDGE('',*,*,#148,.T.);
#49=ORIENTED_EDGE('',*,*,#149,.T.);
#50=ORIENTED_EDGE('',*,*,#150,.F.);
#51=ORIENTED_EDGE('',*,*,#151,.F.);
#52=ORIENTED_EDGE('',*,*,#152,.F.);
#53=ORIENTED_EDGE('',*,*,#153,.T.);
#54=ORIENTED_EDGE('',*,*,#154,.T.);
#55=ORIENTED_EDGE('',*,*,#155,.T.);
#56=ORIENTED_EDGE('',*,*,#150,.T.);
#57=ORIENTED_EDGE('',*,*,#156,.T.);
#58=ORIENTED_EDGE('',*,*,#157,.F.);
#59=ORIENTED_EDGE('',*,*,#158,.T.);
#60=ORIENTED_EDGE('',*,*,#159,.F.);
#61=ORIENTED_EDGE('',*,*,#160,.F.);
#62=ORIENTED_EDGE('',*,*,#161,.F.);
#63=ORIENTED_EDGE('',*,*,#162,.T.);
#64=ORIENTED_EDGE('',*,*,#163,.T.);
#65=ORIENTED_EDGE('',*,*,#164,.T.);
#66=ORIENTED_EDGE('',*,*,#165,.F.);
#67=ORIENTED_EDGE('',*,*,#166,.T.);
#68=ORIENTED_EDGE('',*,*,#167,.T.);
#69=ORIENTED_EDGE('',*,*,#143,.T.);
#70=ORIENTED_EDGE('',*,*,#168,.F.);
#71=ORIENTED_EDGE('',*,*,#166,.F.);
#72=ORIENTED_EDGE('',*,*,#169,.T.);
#73=ORIENTED_EDGE('',*,*,#165,.T.);
#74=ORIENTED_EDGE('',*,*,#170,.T.);
#75=ORIENTED_EDGE('',*,*,#140,.F.);
#76=ORIENTED_EDGE('',*,*,#169,.F.);
#77=ORIENTED_EDGE('',*,*,#171,.F.);
#78=ORIENTED_EDGE('',*,*,#172,.F.);
#79=ORIENTED_EDGE('',*,*,#173,.F.);
#80=ORIENTED_EDGE('',*,*,#174,.T.);
#81=ORIENTED_EDGE('',*,*,#157,.T.);
#82=ORIENTED_EDGE('',*,*,#175,.T.);
#83=ORIENTED_EDGE('',*,*,#176,.F.);
#84=ORIENTED_EDGE('',*,*,#177,.T.);
#85=ORIENTED_EDGE('',*,*,#178,.F.);
#86=ORIENTED_EDGE('',*,*,#158,.F.);
#87=ORIENTED_EDGE('',*,*,#177,.F.);
#88=ORIENTED_EDGE('',*,*,#179,.T.);
#89=ORIENTED_EDGE('',*,*,#151,.T.);
#90=ORIENTED_EDGE('',*,*,#142,.T.);
#91=ORIENTED_EDGE('',*,*,#180,.T.);
#92=ORIENTED_EDGE('',*,*,#148,.F.);
#93=ORIENTED_EDGE('',*,*,#179,.F.);
#94=ORIENTED_EDGE('',*,*,#176,.T.);
#95=ORIENTED_EDGE('',*,*,#181,.T.);
#96=ORIENTED_EDGE('',*,*,#163,.F.);
#97=ORIENTED_EDGE('',*,*,#168,.T.);
#98=ORIENTED_EDGE('',*,*,#182,.T.);
#99=ORIENTED_EDGE('',*,*,#174,.F.);
#100=ORIENTED_EDGE('',*,*,#183,.F.);
#101=ORIENTED_EDGE('',*,*,#162,.F.);
#102=ORIENTED_EDGE('',*,*,#161,.T.);
#103=ORIENTED_EDGE('',*,*,#184,.T.);
#104=ORIENTED_EDGE('',*,*,#171,.T.);
#105=ORIENTED_EDGE('',*,*,#182,.F.);
#106=ORIENTED_EDGE('',*,*,#159,.T.);
#107=ORIENTED_EDGE('',*,*,#183,.T.);
#108=ORIENTED_EDGE('',*,*,#173,.T.);
#109=ORIENTED_EDGE('',*,*,#185,.F.);
#110=ORIENTED_EDGE('',*,*,#160,.T.);
#111=ORIENTED_EDGE('',*,*,#185,.T.);
#112=ORIENTED_EDGE('',*,*,#172,.T.);
#113=ORIENTED_EDGE('',*,*,#184,.F.);
#114=ORIENTED_EDGE('',*,*,#152,.T.);
#115=ORIENTED_EDGE('',*,*,#186,.F.);
#116=ORIENTED_EDGE('',*,*,#144,.F.);
#117=ORIENTED_EDGE('',*,*,#187,.T.);
#118=ORIENTED_EDGE('',*,*,#187,.F.);
#119=ORIENTED_EDGE('',*,*,#147,.T.);
#120=ORIENTED_EDGE('',*,*,#188,.T.);
#121=ORIENTED_EDGE('',*,*,#153,.F.);
#122=ORIENTED_EDGE('',*,*,#188,.F.);
#123=ORIENTED_EDGE('',*,*,#146,.T.);
#124=ORIENTED_EDGE('',*,*,#189,.T.);
#125=ORIENTED_EDGE('',*,*,#154,.F.);
#126=ORIENTED_EDGE('',*,*,#189,.F.);
#127=ORIENTED_EDGE('',*,*,#145,.T.);
#128=ORIENTED_EDGE('',*,*,#186,.T.);
#129=ORIENTED_EDGE('',*,*,#155,.F.);
#130=ORIENTED_EDGE('',*,*,#178,.T.);
#131=ORIENTED_EDGE('',*,*,#167,.F.);
#132=ORIENTED_EDGE('',*,*,#175,.F.);
#133=ORIENTED_EDGE('',*,*,#156,.F.);
#134=ORIENTED_EDGE('',*,*,#149,.F.);
#135=ORIENTED_EDGE('',*,*,#180,.F.);
#136=ORIENTED_EDGE('',*,*,#141,.F.);
#137=ORIENTED_EDGE('',*,*,#170,.F.);
#138=ORIENTED_EDGE('',*,*,#164,.F.);
#139=ORIENTED_EDGE('',*,*,#181,.F.);
#140=EDGE_CURVE('',#190,#191,#224,.T.);
#141=EDGE_CURVE('',#191,#192,#26,.T.);
#142=EDGE_CURVE('',#193,#192,#225,.T.);
#143=EDGE_CURVE('',#190,#193,#226,.T.);
#144=EDGE_CURVE('',#194,#195,#227,.T.);
#145=EDGE_CURVE('',#196,#195,#27,.T.);
#146=EDGE_CURVE('',#197,#196,#228,.T.);
#147=EDGE_CURVE('',#194,#197,#28,.T.);
#148=EDGE_CURVE('',#198,#199,#229,.T.);
#149=EDGE_CURVE('',#199,#200,#29,.T.);
#150=EDGE_CURVE('',#201,#200,#230,.T.);
#151=EDGE_CURVE('',#198,#201,#231,.T.);
#152=EDGE_CURVE('',#202,#203,#232,.T.);
#153=EDGE_CURVE('',#202,#204,#30,.F.);
#154=EDGE_CURVE('',#204,#205,#233,.T.);
#155=EDGE_CURVE('',#205,#203,#31,.F.);
#156=EDGE_CURVE('',#200,#206,#234,.F.);
#157=EDGE_CURVE('',#207,#206,#235,.T.);
#158=EDGE_CURVE('',#207,#201,#236,.T.);
#159=EDGE_CURVE('',#208,#209,#32,.F.);
#160=EDGE_CURVE('',#210,#208,#237,.T.);
#161=EDGE_CURVE('',#211,#210,#33,.F.);
#162=EDGE_CURVE('',#211,#209,#238,.T.);
#163=EDGE_CURVE('',#212,#213,#239,.T.);
#164=EDGE_CURVE('',#213,#214,#34,.F.);
#165=EDGE_CURVE('',#215,#214,#240,.T.);
#166=EDGE_CURVE('',#215,#212,#241,.T.);
#167=EDGE_CURVE('',#216,#216,#35,.F.);
#168=EDGE_CURVE('',#212,#193,#242,.T.);
#169=EDGE_CURVE('',#215,#190,#243,.T.);
#170=EDGE_CURVE('',#214,#191,#244,.T.);
#171=EDGE_CURVE('',#217,#218,#36,.T.);
#172=EDGE_CURVE('',#219,#217,#245,.T.);
#173=EDGE_CURVE('',#220,#219,#37,.T.);
#174=EDGE_CURVE('',#220,#218,#246,.T.);
#175=EDGE_CURVE('',#206,#221,#38,.F.);
#176=EDGE_CURVE('',#222,#221,#247,.T.);
#177=EDGE_CURVE('',#222,#207,#248,.T.);
#178=EDGE_CURVE('',#223,#223,#39,.T.);
#179=EDGE_CURVE('',#222,#198,#249,.T.);
#180=EDGE_CURVE('',#192,#199,#250,.F.);
#181=EDGE_CURVE('',#221,#213,#251,.F.);
#182=EDGE_CURVE('',#211,#218,#252,.T.);
#183=EDGE_CURVE('',#209,#220,#253,.T.);
#184=EDGE_CURVE('',#210,#217,#254,.T.);
#185=EDGE_CURVE('',#208,#219,#255,.T.);
#186=EDGE_CURVE('',#195,#203,#256,.T.);
#187=EDGE_CURVE('',#194,#202,#257,.T.);
#188=EDGE_CURVE('',#197,#204,#258,.T.);
#189=EDGE_CURVE('',#196,#205,#259,.T.);
#190=VERTEX_POINT('',#533);
#191=VERTEX_POINT('',#534);
#192=VERTEX_POINT('',#536);
#193=VERTEX_POINT('',#538);
#194=VERTEX_POINT('',#541);
#195=VERTEX_POINT('',#542);
#196=VERTEX_POINT('',#544);
#197=VERTEX_POINT('',#546);
#198=VERTEX_POINT('',#550);
#199=VERTEX_POINT('',#551);
#200=VERTEX_POINT('',#553);
#201=VERTEX_POINT('',#555);
#202=VERTEX_POINT('',#558);
#203=VERTEX_POINT('',#559);
#204=VERTEX_POINT('',#561);
#205=VERTEX_POINT('',#563);
#206=VERTEX_POINT('',#567);
#207=VERTEX_POINT('',#569);
#208=VERTEX_POINT('',#573);
#209=VERTEX_POINT('',#574);
#210=VERTEX_POINT('',#576);
#211=VERTEX_POINT('',#578);
#212=VERTEX_POINT('',#581);
#213=VERTEX_POINT('',#582);
#214=VERTEX_POINT('',#584);
#215=VERTEX_POINT('',#586);
#216=VERTEX_POINT('',#590);
#217=VERTEX_POINT('',#597);
#218=VERTEX_POINT('',#598);
#219=VERTEX_POINT('',#600);
#220=VERTEX_POINT('',#602);
#221=VERTEX_POINT('',#605);
#222=VERTEX_POINT('',#607);
#223=VERTEX_POINT('',#611);
#224=LINE('',#532,#260);
#225=LINE('',#537,#261);
#226=LINE('',#539,#262);
#227=LINE('',#540,#263);
#228=LINE('',#545,#264);
#229=LINE('',#549,#265);
#230=LINE('',#554,#266);
#231=LINE('',#556,#267);
#232=LINE('',#557,#268);
#233=LINE('',#562,#269);
#234=LINE('',#566,#270);
#235=LINE('',#568,#271);
#236=LINE('',#570,#272);
#237=LINE('',#575,#273);
#238=LINE('',#579,#274);
#239=LINE('',#580,#275);
#240=LINE('',#585,#276);
#241=LINE('',#587,#277);
#242=LINE('',#591,#278);
#243=LINE('',#592,#279);
#244=LINE('',#594,#280);
#245=LINE('',#599,#281);
#246=LINE('',#603,#282);
#247=LINE('',#606,#283);
#248=LINE('',#608,#284);
#249=LINE('',#612,#285);
#250=LINE('',#614,#286);
#251=LINE('',#615,#287);
#252=LINE('',#617,#288);
#253=LINE('',#618,#289);
#254=LINE('',#620,#290);
#255=LINE('',#622,#291);
#256=LINE('',#625,#292);
#257=LINE('',#626,#293);
#258=LINE('',#628,#294);
#259=LINE('',#630,#295);
#260=VECTOR('',#430,1.);
#261=VECTOR('',#433,1.);
#262=VECTOR('',#434,1.);
#263=VECTOR('',#435,1.);
#264=VECTOR('',#438,1.);
#265=VECTOR('',#443,1.);
#266=VECTOR('',#446,1.);
#267=VECTOR('',#447,1.);
#268=VECTOR('',#448,1.);
#269=VECTOR('',#451,1.);
#270=VECTOR('',#456,1.);
#271=VECTOR('',#457,1.);
#272=VECTOR('',#458,1.);
#273=VECTOR('',#463,1.);
#274=VECTOR('',#466,1.);
#275=VECTOR('',#467,1.);
#276=VECTOR('',#470,1.);
#277=VECTOR('',#471,1.);
#278=VECTOR('',#476,1.);
#279=VECTOR('',#477,1.);
#280=VECTOR('',#480,1.);
#281=VECTOR('',#485,1.);
#282=VECTOR('',#488,1.);
#283=VECTOR('',#491,1.);
#284=VECTOR('',#492,1.);
#285=VECTOR('',#497,1.);
#286=VECTOR('',#500,1.);
#287=VECTOR('',#501,1.);
#288=VECTOR('',#504,1.);
#289=VECTOR('',#505,1.);
#290=VECTOR('',#508,1.);
#291=VECTOR('',#511,1.);
#292=VECTOR('',#516,1.);
#293=VECTOR('',#517,1.);
#294=VECTOR('',#520,1.);
#295=VECTOR('',#523,1.);
#296=EDGE_LOOP('',(#40,#41,#42,#43));
#297=EDGE_LOOP('',(#44,#45,#46,#47));
#298=EDGE_LOOP('',(#48,#49,#50,#51));
#299=EDGE_LOOP('',(#52,#53,#54,#55));
#300=EDGE_LOOP('',(#56,#57,#58,#59));
#301=EDGE_LOOP('',(#60,#61,#62,#63));
#302=EDGE_LOOP('',(#64,#65,#66,#67));
#303=EDGE_LOOP('',(#68));
#304=EDGE_LOOP('',(#69,#70,#71,#72));
#305=EDGE_LOOP('',(#73,#74,#75,#76));
#306=EDGE_LOOP('',(#77,#78,#79,#80));
#307=EDGE_LOOP('',(#81,#82,#83,#84));
#308=EDGE_LOOP('',(#85));
#309=EDGE_LOOP('',(#86,#87,#88,#89));
#310=EDGE_LOOP('',(#90,#91,#92,#93,#94,#95,#96,#97));
#311=EDGE_LOOP('',(#98,#99,#100,#101));
#312=EDGE_LOOP('',(#102,#103,#104,#105));
#313=EDGE_LOOP('',(#106,#107,#108,#109));
#314=EDGE_LOOP('',(#110,#111,#112,#113));
#315=EDGE_LOOP('',(#114,#115,#116,#117));
#316=EDGE_LOOP('',(#118,#119,#120,#121));
#317=EDGE_LOOP('',(#122,#123,#124,#125));
#318=EDGE_LOOP('',(#126,#127,#128,#129));
#319=EDGE_LOOP('',(#130));
#320=EDGE_LOOP('',(#131));
#321=EDGE_LOOP('',(#132,#133,#134,#135,#136,#137,#138,#139));
#322=FACE_BOUND('',#296,.T.);
#323=FACE_BOUND('',#297,.T.);
#324=FACE_BOUND('',#298,.T.);
#325=FACE_BOUND('',#299,.T.);
#326=FACE_BOUND('',#300,.T.);
#327=FACE_BOUND('',#301,.T.);
#328=FACE_BOUND('',#302,.T.);
#329=FACE_BOUND('',#303,.T.);
#330=FACE_BOUND('',#304,.T.);
#331=FACE_BOUND('',#305,.T.);
#332=FACE_BOUND('',#306,.T.);
#333=FACE_BOUND('',#307,.T.);
#334=FACE_BOUND('',#308,.T.);
#335=FACE_BOUND('',#309,.T.);
#336=FACE_BOUND('',#310,.T.);
#337=FACE_BOUND('',#311,.T.);
#338=FACE_BOUND('',#312,.T.);
#339=FACE_BOUND('',#313,.T.);
#340=FACE_BOUND('',#314,.T.);
#341=FACE_BOUND('',#315,.T.);
#342=FACE_BOUND('',#316,.T.);
#343=FACE_BOUND('',#317,.T.);
#344=FACE_BOUND('',#318,.T.);
#345=FACE_BOUND('',#319,.T.);
#346=FACE_BOUND('',#320,.T.);
#347=FACE_BOUND('',#321,.T.);
#348=PLANE('',#393);
#349=PLANE('',#397);
#350=PLANE('',#401);
#351=PLANE('',#402);
#352=PLANE('',#406);
#353=PLANE('',#408);
#354=PLANE('',#409);
#355=PLANE('',#413);
#356=PLANE('',#415);
#357=PLANE('',#416);
#358=PLANE('',#419);
#359=PLANE('',#420);
#360=PLANE('',#422);
#361=ADVANCED_FACE('',(#322,#323),#348,.T.);
#362=ADVANCED_FACE('',(#324,#325),#349,.T.);
#363=ADVANCED_FACE('',(#326),#350,.F.);
#364=ADVANCED_FACE('',(#327,#328),#351,.F.);
#365=ADVANCED_FACE('',(#329,#330),#352,.T.);
#366=ADVANCED_FACE('',(#331),#353,.T.);
#367=ADVANCED_FACE('',(#332,#333),#354,.F.);
#368=ADVANCED_FACE('',(#334,#335),#355,.T.);
#369=ADVANCED_FACE('',(#336),#356,.F.);
#370=ADVANCED_FACE('',(#337),#357,.T.);
#371=ADVANCED_FACE('',(#338),#20,.F.);
#372=ADVANCED_FACE('',(#339),#21,.F.);
#373=ADVANCED_FACE('',(#340),#358,.F.);
#374=ADVANCED_FACE('',(#341),#359,.F.);
#375=ADVANCED_FACE('',(#342),#22,.F.);
#376=ADVANCED_FACE('',(#343),#360,.T.);
#377=ADVANCED_FACE('',(#344),#23,.F.);
#378=ADVANCED_FACE('',(#345,#346),#24,.F.);
#379=ADVANCED_FACE('',(#347),#25,.T.);
#380=CLOSED_SHELL('',(#361,#362,#363,#364,#365,#366,#367,#368,#369,#370,
#371,#372,#373,#374,#375,#376,#377,#378,#379));
#381=STYLED_ITEM('',(#382),#389);
#382=PRESENTATION_STYLE_ASSIGNMENT((#383));
#383=SURFACE_STYLE_USAGE(.BOTH.,#384);
#384=SURFACE_SIDE_STYLE('',(#385));
#385=SURFACE_STYLE_FILL_AREA(#386);
#386=FILL_AREA_STYLE('',(#387));
#387=FILL_AREA_STYLE_COLOUR('',#388);
#388=COLOUR_RGB('',0.917647058823529,0.917647058823529,0.917647058823529);
#389=MANIFOLD_SOLID_BREP('Restraint Casing',#380);
#390=SHAPE_DEFINITION_REPRESENTATION(#640,#391);
#391=SHAPE_REPRESENTATION('Restraint Casing',(#392),#635);
#392=AXIS2_PLACEMENT_3D('',#530,#426,#427);
#393=AXIS2_PLACEMENT_3D('',#531,#428,#429);
#394=AXIS2_PLACEMENT_3D('',#535,#431,#432);
#395=AXIS2_PLACEMENT_3D('',#543,#436,#437);
#396=AXIS2_PLACEMENT_3D('',#547,#439,#440);
#397=AXIS2_PLACEMENT_3D('',#548,#441,#442);
#398=AXIS2_PLACEMENT_3D('',#552,#444,#445);
#399=AXIS2_PLACEMENT_3D('',#560,#449,#450);
#400=AXIS2_PLACEMENT_3D('',#564,#452,#453);
#401=AXIS2_PLACEMENT_3D('',#565,#454,#455);
#402=AXIS2_PLACEMENT_3D('',#571,#459,#460);
#403=AXIS2_PLACEMENT_3D('',#572,#461,#462);
#404=AXIS2_PLACEMENT_3D('',#577,#464,#465);
#405=AXIS2_PLACEMENT_3D('',#583,#468,#469);
#406=AXIS2_PLACEMENT_3D('',#588,#472,#473);
#407=AXIS2_PLACEMENT_3D('',#589,#474,#475);
#408=AXIS2_PLACEMENT_3D('',#593,#478,#479);
#409=AXIS2_PLACEMENT_3D('',#595,#481,#482);
#410=AXIS2_PLACEMENT_3D('',#596,#483,#484);
#411=AXIS2_PLACEMENT_3D('',#601,#486,#487);
#412=AXIS2_PLACEMENT_3D('',#604,#489,#490);
#413=AXIS2_PLACEMENT_3D('',#609,#493,#494);
#414=AXIS2_PLACEMENT_3D('',#610,#495,#496);
#415=AXIS2_PLACEMENT_3D('',#613,#498,#499);
#416=AXIS2_PLACEMENT_3D('',#616,#502,#503);
#417=AXIS2_PLACEMENT_3D('',#619,#506,#507);
#418=AXIS2_PLACEMENT_3D('',#621,#509,#510);
#419=AXIS2_PLACEMENT_3D('',#623,#512,#513);
#420=AXIS2_PLACEMENT_3D('',#624,#514,#515);
#421=AXIS2_PLACEMENT_3D('',#627,#518,#519);
#422=AXIS2_PLACEMENT_3D('',#629,#521,#522);
#423=AXIS2_PLACEMENT_3D('',#631,#524,#525);
#424=AXIS2_PLACEMENT_3D('',#632,#526,#527);
#425=AXIS2_PLACEMENT_3D('',#633,#528,#529);
#426=DIRECTION('',(0.,0.,1.));
#427=DIRECTION('',(1.,0.,0.));
#428=DIRECTION('',(1.,-1.6787646541711E-16,0.));
#429=DIRECTION('',(1.6787646541711E-16,1.,0.));
#430=DIRECTION('',(-1.6787646541711E-16,-1.,0.));
#431=DIRECTION('',(1.,-1.6787646541711E-16,0.));
#432=DIRECTION('',(1.6787646541711E-16,1.,0.));
#433=DIRECTION('',(-1.6787646541711E-16,-1.,0.));
#434=DIRECTION('',(0.,0.,-1.));
#435=DIRECTION('',(1.6787646541711E-16,1.,-1.7347234759768E-17));
#436=DIRECTION('',(1.,-1.6787646541711E-16,0.));
#437=DIRECTION('',(1.6787646541711E-16,1.,0.));
#438=DIRECTION('',(1.6787646541711E-16,1.,2.77555756156289E-16));
#439=DIRECTION('',(1.,-1.6787646541711E-16,0.));
#440=DIRECTION('',(1.6787646541711E-16,1.,0.));
#441=DIRECTION('',(-1.,1.7347234759768E-16,0.));
#442=DIRECTION('',(-1.7347234759768E-16,-1.,0.));
#443=DIRECTION('',(-1.7347234759768E-16,-1.,0.));
#444=DIRECTION('',(-1.,1.7347234759768E-16,0.));
#445=DIRECTION('',(-1.7347234759768E-16,-1.,0.));
#446=DIRECTION('',(-1.7347234759768E-16,-1.,0.));
#447=DIRECTION('',(0.,0.,1.));
#448=DIRECTION('',(1.7347234759768E-16,1.,-1.7347234759768E-17));
#449=DIRECTION('',(-1.,1.7347234759768E-16,0.));
#450=DIRECTION('',(-1.7347234759768E-16,-1.,0.));
#451=DIRECTION('',(1.7347234759768E-16,1.,2.77555756156289E-16));
#452=DIRECTION('',(-1.,1.7347234759768E-16,0.));
#453=DIRECTION('',(-1.7347234759768E-16,-1.,0.));
#454=DIRECTION('',(0.,0.,1.));
#455=DIRECTION('',(1.,0.,0.));
#456=DIRECTION('',(1.,0.,0.));
#457=DIRECTION('',(-1.7347234759768E-16,-1.,0.));
#458=DIRECTION('',(1.,0.,0.));
#459=DIRECTION('',(1.,-1.6787646541711E-16,0.));
#460=DIRECTION('',(1.6787646541711E-16,1.,0.));
#461=DIRECTION('',(1.,-1.6787646541711E-16,0.));
#462=DIRECTION('',(1.6787646541711E-16,1.,0.));
#463=DIRECTION('',(-1.6787646541711E-16,-1.,-2.77555756156289E-16));
#464=DIRECTION('',(1.,-1.6787646541711E-16,0.));
#465=DIRECTION('',(1.6787646541711E-16,1.,0.));
#466=DIRECTION('',(-1.6787646541711E-16,-1.,1.7347234759768E-17));
#467=DIRECTION('',(-1.6787646541711E-16,-1.,0.));
#468=DIRECTION('',(1.,-1.6787646541711E-16,0.));
#469=DIRECTION('',(1.6787646541711E-16,1.,0.));
#470=DIRECTION('',(-1.6787646541711E-16,-1.,0.));
#471=DIRECTION('',(0.,0.,-1.));
#472=DIRECTION('',(0.,1.,0.));
#473=DIRECTION('',(0.,0.,1.));
#474=DIRECTION('',(0.,1.,0.));
#475=DIRECTION('',(0.,0.,1.));
#476=DIRECTION('',(1.,0.,0.));
#477=DIRECTION('',(1.,0.,0.));
#478=DIRECTION('',(0.,0.,1.));
#479=DIRECTION('',(1.,0.,0.));
#480=DIRECTION('',(1.,0.,0.));
#481=DIRECTION('',(-1.,1.7347234759768E-16,0.));
#482=DIRECTION('',(-1.7347234759768E-16,-1.,0.));
#483=DIRECTION('',(1.,-1.7347234759768E-16,0.));
#484=DIRECTION('',(1.7347234759768E-16,1.,0.));
#485=DIRECTION('',(1.7347234759768E-16,1.,2.77555756156289E-16));
#486=DIRECTION('',(1.,-1.7347234759768E-16,0.));
#487=DIRECTION('',(1.7347234759768E-16,1.,0.));
#488=DIRECTION('',(1.7347234759768E-16,1.,-1.7347234759768E-17));
#489=DIRECTION('',(-1.,1.7347234759768E-16,0.));
#490=DIRECTION('',(-1.7347234759768E-16,-1.,0.));
#491=DIRECTION('',(-1.7347234759768E-16,-1.,0.));
#492=DIRECTION('',(0.,0.,1.));
#493=DIRECTION('',(0.,-1.,0.));
#494=DIRECTION('',(0.,0.,-1.));
#495=DIRECTION('',(0.,-1.,0.));
#496=DIRECTION('',(0.,0.,-1.));
#497=DIRECTION('',(1.,0.,0.));
#498=DIRECTION('',(0.,0.,1.));
#499=DIRECTION('',(1.,0.,0.));
#500=DIRECTION('',(1.,0.,0.));
#501=DIRECTION('',(1.,0.,0.));
#502=DIRECTION('',(-3.00926553810505E-33,-1.7347234759768E-17,-1.));
#503=DIRECTION('',(0.,1.,-1.7347234759768E-17));
#504=DIRECTION('',(1.,-1.7347234759768E-16,0.));
#505=DIRECTION('',(1.,-1.7347234759768E-16,0.));
#506=DIRECTION('',(1.,-1.7347234759768E-16,0.));
#507=DIRECTION('',(1.7347234759768E-16,1.,0.));
#508=DIRECTION('',(1.,-1.7347234759768E-16,0.));
#509=DIRECTION('',(1.,-1.7347234759768E-16,0.));
#510=DIRECTION('',(1.7347234759768E-16,1.,0.));
#511=DIRECTION('',(1.,-1.7347234759768E-16,0.));
#512=DIRECTION('',(4.81482486096809E-32,2.77555756156289E-16,-1.));
#513=DIRECTION('',(0.,1.,2.77555756156289E-16));
#514=DIRECTION('',(3.00926553810505E-33,1.7347234759768E-17,1.));
#515=DIRECTION('',(0.,-1.,1.7347234759768E-17));
#516=DIRECTION('',(-1.,1.7347234759768E-16,0.));
#517=DIRECTION('',(-1.,1.7347234759768E-16,0.));
#518=DIRECTION('',(-1.,1.7347234759768E-16,0.));
#519=DIRECTION('',(-1.7347234759768E-16,-1.,0.));
#520=DIRECTION('',(-1.,1.7347234759768E-16,0.));
#521=DIRECTION('',(-4.81482486096809E-32,-2.77555756156289E-16,1.));
#522=DIRECTION('',(0.,-1.,-2.77555756156289E-16));
#523=DIRECTION('',(-1.,1.7347234759768E-16,0.));
#524=DIRECTION('',(-1.,1.7347234759768E-16,0.));
#525=DIRECTION('',(-1.7347234759768E-16,-1.,0.));
#526=DIRECTION('',(0.,-1.,0.));
#527=DIRECTION('',(0.,0.,-1.));
#528=DIRECTION('',(1.,0.,0.));
#529=DIRECTION('',(0.,0.,-1.));
#530=CARTESIAN_POINT('',(0.,0.,0.));
#531=CARTESIAN_POINT('',(0.0165,0.001,0.002));
#532=CARTESIAN_POINT('',(0.0165,0.001,0.002));
#533=CARTESIAN_POINT('',(0.0165,0.032,0.002));
#534=CARTESIAN_POINT('',(0.0165,-0.03,0.002));
#535=CARTESIAN_POINT('',(0.0165,-0.013,0.002));
#536=CARTESIAN_POINT('',(0.0165,-0.013,-0.015));
#537=CARTESIAN_POINT('',(0.0165,0.001,-0.015));
#538=CARTESIAN_POINT('',(0.0165,0.032,-0.015));
#539=CARTESIAN_POINT('',(0.0165,0.032,0.002));
#540=CARTESIAN_POINT('',(0.0165,0.01,-0.0035));
#541=CARTESIAN_POINT('',(0.0165,-0.0025,-0.0035));
#542=CARTESIAN_POINT('',(0.0165,0.0225,-0.0035));
#543=CARTESIAN_POINT('',(0.0165,0.0225,-0.005));
#544=CARTESIAN_POINT('',(0.0165,0.0225,-0.0065));
#545=CARTESIAN_POINT('',(0.0165,0.01,-0.0065));
#546=CARTESIAN_POINT('',(0.0165,-0.0025,-0.0065));
#547=CARTESIAN_POINT('',(0.0165,-0.0025,-0.005));
#548=CARTESIAN_POINT('',(0.0145,0.,-0.015));
#549=CARTESIAN_POINT('',(0.0145,0.,-0.015));
#550=CARTESIAN_POINT('',(0.0145,0.03,-0.015));
#551=CARTESIAN_POINT('',(0.0145,-0.013,-0.015));
#552=CARTESIAN_POINT('',(0.0145,-0.013,0.002));
#553=CARTESIAN_POINT('',(0.0145,-0.0298819430161342,0.));
#554=CARTESIAN_POINT('',(0.0145,0.,0.));
#555=CARTESIAN_POINT('',(0.0145,0.03,0.));
#556=CARTESIAN_POINT('',(0.0145,0.03,-0.015));
#557=CARTESIAN_POINT('',(0.0145,1.99493199737333E-19,-0.0035));
#558=CARTESIAN_POINT('',(0.0145,-0.0025,-0.0035));
#559=CARTESIAN_POINT('',(0.0145,0.0225,-0.0035));
#560=CARTESIAN_POINT('',(0.0145,-0.0025,-0.005));
#561=CARTESIAN_POINT('',(0.0145,-0.0025,-0.0065));
#562=CARTESIAN_POINT('',(0.0145,-2.35922392732846E-18,-0.0065));
#563=CARTESIAN_POINT('',(0.0145,0.0225,-0.0065));
#564=CARTESIAN_POINT('',(0.0145,0.0225,-0.005));
#565=CARTESIAN_POINT('',(-1.04083408558608E-17,0.001,0.));
#566=CARTESIAN_POINT('',(0.0145,-0.0298819430161342,0.));
#567=CARTESIAN_POINT('',(-0.0145,-0.0298819430161342,0.));
#568=CARTESIAN_POINT('',(-0.0145,0.,0.));
#569=CARTESIAN_POINT('',(-0.0145,0.03,0.));
#570=CARTESIAN_POINT('',(-6.07153216591882E-18,0.03,0.));
#571=CARTESIAN_POINT('',(-0.0165,0.001,0.002));
#572=CARTESIAN_POINT('',(-0.0165,-0.0025,-0.005));
#573=CARTESIAN_POINT('',(-0.0165,-0.0025,-0.0065));
#574=CARTESIAN_POINT('',(-0.0165,-0.0025,-0.0035));
#575=CARTESIAN_POINT('',(-0.0165,0.01,-0.0065));
#576=CARTESIAN_POINT('',(-0.0165,0.0225,-0.0065));
#577=CARTESIAN_POINT('',(-0.0165,0.0225,-0.005));
#578=CARTESIAN_POINT('',(-0.0165,0.0225,-0.0035));
#579=CARTESIAN_POINT('',(-0.0165,0.01,-0.0035));
#580=CARTESIAN_POINT('',(-0.0165,0.001,-0.015));
#581=CARTESIAN_POINT('',(-0.0165,0.032,-0.015));
#582=CARTESIAN_POINT('',(-0.0165,-0.013,-0.015));
#583=CARTESIAN_POINT('',(-0.0165,-0.013,0.002));
#584=CARTESIAN_POINT('',(-0.0165,-0.03,0.002));
#585=CARTESIAN_POINT('',(-0.0165,0.001,0.002));
#586=CARTESIAN_POINT('',(-0.0165,0.032,0.002));
#587=CARTESIAN_POINT('',(-0.0165,0.032,0.002));
#588=CARTESIAN_POINT('',(-1.04083408558608E-17,0.032,0.002));
#589=CARTESIAN_POINT('',(0.,0.032,-0.005));
#590=CARTESIAN_POINT('',(0.,0.032,-0.003));
#591=CARTESIAN_POINT('',(-1.04083408558608E-17,0.032,-0.015));
#592=CARTESIAN_POINT('',(-1.04083408558608E-17,0.032,0.002));
#593=CARTESIAN_POINT('',(-1.04083408558608E-17,0.001,0.002));
#594=CARTESIAN_POINT('',(-1.7347234759768E-17,-0.03,0.002));
#595=CARTESIAN_POINT('',(-0.0145,0.,-0.015));
#596=CARTESIAN_POINT('',(-0.0145,0.0225,-0.005));
#597=CARTESIAN_POINT('',(-0.0145,0.0225,-0.0065));
#598=CARTESIAN_POINT('',(-0.0145,0.0225,-0.0035));
#599=CARTESIAN_POINT('',(-0.0145,0.01,-0.0065));
#600=CARTESIAN_POINT('',(-0.0145,-0.0025,-0.0065));
#601=CARTESIAN_POINT('',(-0.0145,-0.0025,-0.005));
#602=CARTESIAN_POINT('',(-0.0145,-0.0025,-0.0035));
#603=CARTESIAN_POINT('',(-0.0145,0.01,-0.0035));
#604=CARTESIAN_POINT('',(-0.0145,-0.013,0.002));
#605=CARTESIAN_POINT('',(-0.0145,-0.013,-0.015));
#606=CARTESIAN_POINT('',(-0.0145,0.,-0.015));
#607=CARTESIAN_POINT('',(-0.0145,0.03,-0.015));
#608=CARTESIAN_POINT('',(-0.0145,0.03,-0.015));
#609=CARTESIAN_POINT('',(-6.07153216591882E-18,0.03,-0.015));
#610=CARTESIAN_POINT('',(0.,0.03,-0.005));
#611=CARTESIAN_POINT('',(0.,0.03,-0.007));
#612=CARTESIAN_POINT('',(-6.07153216591882E-18,0.03,-0.015));
#613=CARTESIAN_POINT('',(-1.04083408558608E-17,0.001,-0.015));
#614=CARTESIAN_POINT('',(-1.04083408558608E-17,-0.013,-0.015));
#615=CARTESIAN_POINT('',(-1.04083408558608E-17,-0.013,-0.015));
#616=CARTESIAN_POINT('',(-0.016502,0.01,-0.0035));
#617=CARTESIAN_POINT('',(-0.016502,0.0225,-0.0035));
#618=CARTESIAN_POINT('',(-0.016502,-0.0025,-0.0035));
#619=CARTESIAN_POINT('',(-0.016502,0.0225,-0.005));
#620=CARTESIAN_POINT('',(-0.016502,0.0225,-0.0065));
#621=CARTESIAN_POINT('',(-0.016502,-0.0025,-0.005));
#622=CARTESIAN_POINT('',(-0.016502,-0.0025,-0.0065));
#623=CARTESIAN_POINT('',(-0.016502,0.01,-0.0065));
#624=CARTESIAN_POINT('',(0.016502,0.01,-0.0035));
#625=CARTESIAN_POINT('',(0.016502,0.0225,-0.0035));
#626=CARTESIAN_POINT('',(0.016502,-0.0025,-0.0035));
#627=CARTESIAN_POINT('',(0.016502,-0.0025,-0.005));
#628=CARTESIAN_POINT('',(0.016502,-0.0025,-0.0065));
#629=CARTESIAN_POINT('',(0.016502,0.01,-0.0065));
#630=CARTESIAN_POINT('',(0.016502,0.0225,-0.0065));
#631=CARTESIAN_POINT('',(0.016502,0.0225,-0.005));
#632=CARTESIAN_POINT('',(0.,0.032002,-0.005));
#633=CARTESIAN_POINT('',(-1.7347234759768E-17,-0.013,0.002));
#634=MECHANICAL_DESIGN_GEOMETRIC_PRESENTATION_REPRESENTATION('',(#381),
#635);
#635=(
GEOMETRIC_REPRESENTATION_CONTEXT(3)
GLOBAL_UNCERTAINTY_ASSIGNED_CONTEXT((#636))
GLOBAL_UNIT_ASSIGNED_CONTEXT((#639,#638,#637))
REPRESENTATION_CONTEXT('Restraint Casing','TOP_LEVEL_ASSEMBLY_PART')
);
#636=UNCERTAINTY_MEASURE_WITH_UNIT(LENGTH_MEASURE(1.E-8),#639,
'DISTANCE_ACCURACY_VALUE','Maximum Tolerance applied to model');
#637=(
NAMED_UNIT(*)
SI_UNIT($,.STERADIAN.)
SOLID_ANGLE_UNIT()
);
#638=(
NAMED_UNIT(*)
PLANE_ANGLE_UNIT()
SI_UNIT($,.RADIAN.)
);
#639=(
LENGTH_UNIT()
NAMED_UNIT(*)
SI_UNIT($,.METRE.)
);
#640=PRODUCT_DEFINITION_SHAPE('','',#641);
#641=PRODUCT_DEFINITION('','',#643,#642);
#642=PRODUCT_DEFINITION_CONTEXT('',#649,'design');
#643=PRODUCT_DEFINITION_FORMATION_WITH_SPECIFIED_SOURCE('','',#645,
 .NOT_KNOWN.);
#644=PRODUCT_RELATED_PRODUCT_CATEGORY('','',(#645));
#645=PRODUCT('Restraint Casing','Restraint Casing','Restraint Casing',(#647));
#646=PRODUCT_CATEGORY('','');
#647=PRODUCT_CONTEXT('',#649,'mechanical');
#648=APPLICATION_PROTOCOL_DEFINITION('international standard',
'automotive_design',2010,#649);
#649=APPLICATION_CONTEXT(
'core data for automotive mechanical design processes');
ENDSEC;
END-ISO-10303-21;
