ISO-10303-21;
HEADER;
/* Generated by software containing ST-Developer
 * from STEP Tools, Inc. (www.steptools.com) 
 */
/* OPTION: using custom renumber hook */

FILE_DESCRIPTION(
/* description */ ('STEP AP214',
'CAx-IF Rec.Pracs.---User Defined Attributes---1.5---2016-08-15'),
/* implementation_level */ '2;1');

FILE_NAME(
/* name */ '6a7e0c77ca83b69d0ab77ac8',
/* time_stamp */ '2026-08-13T18:27:03Z',
/* author */ (''),
/* organization */ (''),
/* preprocessor_version */ 'ST-DEVELOPER v20',
/* originating_system */ 'ONSHAPE BY PTC INC, 1.219',
/* authorisation */ '  ');

FILE_SCHEMA (('AUTOMOTIVE_DESIGN {1 0 10303 214 3 1 1}'));
ENDSEC;

DATA;
#10=PROPERTY_DEFINITION_REPRESENTATION(#14,#12);
#11=PROPERTY_DEFINITION_REPRESENTATION(#15,#13);
#12=REPRESENTATION('',(#16),#445);
#13=REPRESENTATION('',(#17),#445);
#14=PROPERTY_DEFINITION('pmi validation property','',#450);
#15=PROPERTY_DEFINITION('pmi validation property','',#450);
#16=VALUE_REPRESENTATION_ITEM('number of annotations',COUNT_MEASURE(0.));
#17=VALUE_REPRESENTATION_ITEM('number of views',COUNT_MEASURE(0.));
#18=SHAPE_REPRESENTATION_RELATIONSHIP('','',#280,#19);
#19=ADVANCED_BREP_SHAPE_REPRESENTATION('',(#278),#445);
#20=TOROIDAL_SURFACE('',#303,0.0035,0.0015);
#21=CYLINDRICAL_SURFACE('',#297,0.00175);
#22=CYLINDRICAL_SURFACE('',#298,0.00175);
#23=CYLINDRICAL_SURFACE('',#299,0.002);
#24=LINE('',#378,#48);
#25=LINE('',#381,#49);
#26=LINE('',#383,#50);
#27=LINE('',#385,#51);
#28=LINE('',#387,#52);
#29=LINE('',#389,#53);
#30=LINE('',#391,#54);
#31=LINE('',#395,#55);
#32=LINE('',#397,#56);
#33=LINE('',#399,#57);
#34=LINE('',#401,#58);
#35=LINE('',#403,#59);
#36=LINE('',#405,#60);
#37=LINE('',#409,#61);
#38=LINE('',#411,#62);
#39=LINE('',#413,#63);
#40=LINE('',#415,#64);
#41=LINE('',#417,#65);
#42=LINE('',#419,#66);
#43=LINE('',#423,#67);
#44=LINE('',#425,#68);
#45=LINE('',#427,#69);
#46=LINE('',#431,#70);
#47=LINE('',#432,#71);
#48=VECTOR('',#310,1.);
#49=VECTOR('',#311,1.);
#50=VECTOR('',#312,1.);
#51=VECTOR('',#313,1.);
#52=VECTOR('',#316,1.);
#53=VECTOR('',#317,1.);
#54=VECTOR('',#318,1.);
#55=VECTOR('',#323,1.);
#56=VECTOR('',#324,1.);
#57=VECTOR('',#325,1.);
#58=VECTOR('',#328,1.);
#59=VECTOR('',#329,1.);
#60=VECTOR('',#330,1.);
#61=VECTOR('',#335,1.);
#62=VECTOR('',#336,1.);
#63=VECTOR('',#337,1.);
#64=VECTOR('',#340,1.);
#65=VECTOR('',#341,1.);
#66=VECTOR('',#342,1.);
#67=VECTOR('',#347,1.);
#68=VECTOR('',#348,1.);
#69=VECTOR('',#349,1.);
#70=VECTOR('',#354,1.);
#71=VECTOR('',#355,1.);
#72=ORIENTED_EDGE('',*,*,#134,.T.);
#73=ORIENTED_EDGE('',*,*,#135,.F.);
#74=ORIENTED_EDGE('',*,*,#136,.F.);
#75=ORIENTED_EDGE('',*,*,#137,.T.);
#76=ORIENTED_EDGE('',*,*,#138,.T.);
#77=ORIENTED_EDGE('',*,*,#139,.T.);
#78=ORIENTED_EDGE('',*,*,#140,.F.);
#79=ORIENTED_EDGE('',*,*,#141,.F.);
#80=ORIENTED_EDGE('',*,*,#136,.T.);
#81=ORIENTED_EDGE('',*,*,#142,.T.);
#82=ORIENTED_EDGE('',*,*,#143,.T.);
#83=ORIENTED_EDGE('',*,*,#144,.F.);
#84=ORIENTED_EDGE('',*,*,#145,.F.);
#85=ORIENTED_EDGE('',*,*,#140,.T.);
#86=ORIENTED_EDGE('',*,*,#146,.T.);
#87=ORIENTED_EDGE('',*,*,#147,.F.);
#88=ORIENTED_EDGE('',*,*,#148,.F.);
#89=ORIENTED_EDGE('',*,*,#144,.T.);
#90=ORIENTED_EDGE('',*,*,#149,.T.);
#91=ORIENTED_EDGE('',*,*,#150,.T.);
#92=ORIENTED_EDGE('',*,*,#151,.F.);
#93=ORIENTED_EDGE('',*,*,#152,.F.);
#94=ORIENTED_EDGE('',*,*,#147,.T.);
#95=ORIENTED_EDGE('',*,*,#153,.T.);
#96=ORIENTED_EDGE('',*,*,#154,.F.);
#97=ORIENTED_EDGE('',*,*,#155,.F.);
#98=ORIENTED_EDGE('',*,*,#151,.T.);
#99=ORIENTED_EDGE('',*,*,#156,.F.);
#100=ORIENTED_EDGE('',*,*,#157,.F.);
#101=ORIENTED_EDGE('',*,*,#158,.F.);
#102=ORIENTED_EDGE('',*,*,#159,.T.);
#103=ORIENTED_EDGE('',*,*,#154,.T.);
#104=ORIENTED_EDGE('',*,*,#160,.T.);
#105=ORIENTED_EDGE('',*,*,#161,.F.);
#106=ORIENTED_EDGE('',*,*,#138,.F.);
#107=ORIENTED_EDGE('',*,*,#162,.T.);
#108=ORIENTED_EDGE('',*,*,#158,.T.);
#109=ORIENTED_EDGE('',*,*,#137,.F.);
#110=ORIENTED_EDGE('',*,*,#141,.T.);
#111=ORIENTED_EDGE('',*,*,#145,.T.);
#112=ORIENTED_EDGE('',*,*,#148,.T.);
#113=ORIENTED_EDGE('',*,*,#152,.T.);
#114=ORIENTED_EDGE('',*,*,#155,.T.);
#115=ORIENTED_EDGE('',*,*,#159,.F.);
#116=ORIENTED_EDGE('',*,*,#162,.F.);
#117=ORIENTED_EDGE('',*,*,#135,.T.);
#118=ORIENTED_EDGE('',*,*,#161,.T.);
#119=ORIENTED_EDGE('',*,*,#157,.T.);
#120=ORIENTED_EDGE('',*,*,#153,.F.);
#121=ORIENTED_EDGE('',*,*,#150,.F.);
#122=ORIENTED_EDGE('',*,*,#146,.F.);
#123=ORIENTED_EDGE('',*,*,#143,.F.);
#124=ORIENTED_EDGE('',*,*,#139,.F.);
#125=ORIENTED_EDGE('',*,*,#156,.T.);
#126=ORIENTED_EDGE('',*,*,#149,.F.);
#127=ORIENTED_EDGE('',*,*,#134,.F.);
#128=ORIENTED_EDGE('',*,*,#142,.F.);
#129=ORIENTED_EDGE('',*,*,#163,.T.);
#130=ORIENTED_EDGE('',*,*,#164,.F.);
#131=ORIENTED_EDGE('',*,*,#164,.T.);
#132=ORIENTED_EDGE('',*,*,#160,.F.);
#133=ORIENTED_EDGE('',*,*,#163,.F.);
#134=EDGE_CURVE('',#165,#165,#188,.F.);
#135=EDGE_CURVE('',#166,#167,#24,.T.);
#136=EDGE_CURVE('',#168,#166,#25,.T.);
#137=EDGE_CURVE('',#168,#169,#26,.T.);
#138=EDGE_CURVE('',#169,#167,#27,.T.);
#139=EDGE_CURVE('',#166,#170,#28,.T.);
#140=EDGE_CURVE('',#171,#170,#29,.T.);
#141=EDGE_CURVE('',#168,#171,#30,.T.);
#142=EDGE_CURVE('',#172,#172,#189,.T.);
#143=EDGE_CURVE('',#170,#173,#31,.T.);
#144=EDGE_CURVE('',#174,#173,#32,.T.);
#145=EDGE_CURVE('',#171,#174,#33,.T.);
#146=EDGE_CURVE('',#173,#175,#34,.T.);
#147=EDGE_CURVE('',#176,#175,#35,.T.);
#148=EDGE_CURVE('',#174,#176,#36,.T.);
#149=EDGE_CURVE('',#177,#177,#190,.T.);
#150=EDGE_CURVE('',#175,#178,#37,.T.);
#151=EDGE_CURVE('',#179,#178,#38,.T.);
#152=EDGE_CURVE('',#176,#179,#39,.T.);
#153=EDGE_CURVE('',#178,#180,#40,.T.);
#154=EDGE_CURVE('',#181,#180,#41,.T.);
#155=EDGE_CURVE('',#179,#181,#42,.T.);
#156=EDGE_CURVE('',#182,#182,#191,.T.);
#157=EDGE_CURVE('',#183,#180,#43,.T.);
#158=EDGE_CURVE('',#184,#183,#44,.T.);
#159=EDGE_CURVE('',#184,#181,#45,.T.);
#160=EDGE_CURVE('',#185,#185,#192,.F.);
#161=EDGE_CURVE('',#167,#183,#46,.T.);
#162=EDGE_CURVE('',#169,#184,#47,.T.);
#163=EDGE_CURVE('',#186,#186,#193,.T.);
#164=EDGE_CURVE('',#187,#187,#194,.T.);
#165=VERTEX_POINT('',#377);
#166=VERTEX_POINT('',#379);
#167=VERTEX_POINT('',#380);
#168=VERTEX_POINT('',#382);
#169=VERTEX_POINT('',#384);
#170=VERTEX_POINT('',#388);
#171=VERTEX_POINT('',#390);
#172=VERTEX_POINT('',#394);
#173=VERTEX_POINT('',#396);
#174=VERTEX_POINT('',#398);
#175=VERTEX_POINT('',#402);
#176=VERTEX_POINT('',#404);
#177=VERTEX_POINT('',#408);
#178=VERTEX_POINT('',#410);
#179=VERTEX_POINT('',#412);
#180=VERTEX_POINT('',#416);
#181=VERTEX_POINT('',#418);
#182=VERTEX_POINT('',#422);
#183=VERTEX_POINT('',#424);
#184=VERTEX_POINT('',#426);
#185=VERTEX_POINT('',#430);
#186=VERTEX_POINT('',#439);
#187=VERTEX_POINT('',#441);
#188=CIRCLE('',#283,0.00175);
#189=CIRCLE('',#286,0.00175);
#190=CIRCLE('',#289,0.00175);
#191=CIRCLE('',#292,0.00175);
#192=CIRCLE('',#294,0.0035);
#193=CIRCLE('',#300,0.002);
#194=CIRCLE('',#301,0.002);
#195=EDGE_LOOP('',(#72));
#196=EDGE_LOOP('',(#73,#74,#75,#76));
#197=EDGE_LOOP('',(#77,#78,#79,#80));
#198=EDGE_LOOP('',(#81));
#199=EDGE_LOOP('',(#82,#83,#84,#85));
#200=EDGE_LOOP('',(#86,#87,#88,#89));
#201=EDGE_LOOP('',(#90));
#202=EDGE_LOOP('',(#91,#92,#93,#94));
#203=EDGE_LOOP('',(#95,#96,#97,#98));
#204=EDGE_LOOP('',(#99));
#205=EDGE_LOOP('',(#100,#101,#102,#103));
#206=EDGE_LOOP('',(#104));
#207=EDGE_LOOP('',(#105,#106,#107,#108));
#208=EDGE_LOOP('',(#109,#110,#111,#112,#113,#114,#115,#116));
#209=EDGE_LOOP('',(#117,#118,#119,#120,#121,#122,#123,#124));
#210=EDGE_LOOP('',(#125));
#211=EDGE_LOOP('',(#126));
#212=EDGE_LOOP('',(#127));
#213=EDGE_LOOP('',(#128));
#214=EDGE_LOOP('',(#129));
#215=EDGE_LOOP('',(#130));
#216=EDGE_LOOP('',(#131));
#217=EDGE_LOOP('',(#132));
#218=EDGE_LOOP('',(#133));
#219=FACE_BOUND('',#195,.T.);
#220=FACE_BOUND('',#196,.T.);
#221=FACE_BOUND('',#197,.T.);
#222=FACE_BOUND('',#198,.T.);
#223=FACE_BOUND('',#199,.T.);
#224=FACE_BOUND('',#200,.T.);
#225=FACE_BOUND('',#201,.T.);
#226=FACE_BOUND('',#202,.T.);
#227=FACE_BOUND('',#203,.T.);
#228=FACE_BOUND('',#204,.T.);
#229=FACE_BOUND('',#205,.T.);
#230=FACE_BOUND('',#206,.T.);
#231=FACE_BOUND('',#207,.T.);
#232=FACE_BOUND('',#208,.T.);
#233=FACE_BOUND('',#209,.T.);
#234=FACE_BOUND('',#210,.T.);
#235=FACE_BOUND('',#211,.T.);
#236=FACE_BOUND('',#212,.T.);
#237=FACE_BOUND('',#213,.T.);
#238=FACE_BOUND('',#214,.T.);
#239=FACE_BOUND('',#215,.T.);
#240=FACE_BOUND('',#216,.T.);
#241=FACE_BOUND('',#217,.T.);
#242=FACE_BOUND('',#218,.T.);
#243=PLANE('',#282);
#244=PLANE('',#284);
#245=PLANE('',#285);
#246=PLANE('',#287);
#247=PLANE('',#288);
#248=PLANE('',#290);
#249=PLANE('',#291);
#250=PLANE('',#293);
#251=PLANE('',#295);
#252=PLANE('',#296);
#253=PLANE('',#302);
#254=ADVANCED_FACE('',(#219,#220),#243,.T.);
#255=ADVANCED_FACE('',(#221),#244,.F.);
#256=ADVANCED_FACE('',(#222,#223),#245,.F.);
#257=ADVANCED_FACE('',(#224),#246,.F.);
#258=ADVANCED_FACE('',(#225,#226),#247,.F.);
#259=ADVANCED_FACE('',(#227),#248,.F.);
#260=ADVANCED_FACE('',(#228,#229),#249,.T.);
#261=ADVANCED_FACE('',(#230,#231),#250,.T.);
#262=ADVANCED_FACE('',(#232),#251,.T.);
#263=ADVANCED_FACE('',(#233),#252,.F.);
#264=ADVANCED_FACE('',(#234,#235),#21,.F.);
#265=ADVANCED_FACE('',(#236,#237),#22,.F.);
#266=ADVANCED_FACE('',(#238,#239),#23,.T.);
#267=ADVANCED_FACE('',(#240),#253,.T.);
#268=ADVANCED_FACE('',(#241,#242),#20,.F.);
#269=CLOSED_SHELL('',(#254,#255,#256,#257,#258,#259,#260,#261,#262,#263,
#264,#265,#266,#267,#268));
#270=STYLED_ITEM('',(#271),#278);
#271=PRESENTATION_STYLE_ASSIGNMENT((#272));
#272=SURFACE_STYLE_USAGE(.BOTH.,#273);
#273=SURFACE_SIDE_STYLE('',(#274));
#274=SURFACE_STYLE_FILL_AREA(#275);
#275=FILL_AREA_STYLE('',(#276));
#276=FILL_AREA_STYLE_COLOUR('',#277);
#277=COLOUR_RGB('',0.917647058823529,0.917647058823529,0.917647058823529);
#278=MANIFOLD_SOLID_BREP('Rigid Body Frame',#269);
#279=SHAPE_DEFINITION_REPRESENTATION(#450,#280);
#280=SHAPE_REPRESENTATION('Rigid Body Frame',(#281),#445);
#281=AXIS2_PLACEMENT_3D('',#374,#304,#305);
#282=AXIS2_PLACEMENT_3D('',#375,#306,#307);
#283=AXIS2_PLACEMENT_3D('',#376,#308,#309);
#284=AXIS2_PLACEMENT_3D('',#386,#314,#315);
#285=AXIS2_PLACEMENT_3D('',#392,#319,#320);
#286=AXIS2_PLACEMENT_3D('',#393,#321,#322);
#287=AXIS2_PLACEMENT_3D('',#400,#326,#327);
#288=AXIS2_PLACEMENT_3D('',#406,#331,#332);
#289=AXIS2_PLACEMENT_3D('',#407,#333,#334);
#290=AXIS2_PLACEMENT_3D('',#414,#338,#339);
#291=AXIS2_PLACEMENT_3D('',#420,#343,#344);
#292=AXIS2_PLACEMENT_3D('',#421,#345,#346);
#293=AXIS2_PLACEMENT_3D('',#428,#350,#351);
#294=AXIS2_PLACEMENT_3D('',#429,#352,#353);
#295=AXIS2_PLACEMENT_3D('',#433,#356,#357);
#296=AXIS2_PLACEMENT_3D('',#434,#358,#359);
#297=AXIS2_PLACEMENT_3D('',#435,#360,#361);
#298=AXIS2_PLACEMENT_3D('',#436,#362,#363);
#299=AXIS2_PLACEMENT_3D('',#437,#364,#365);
#300=AXIS2_PLACEMENT_3D('',#438,#366,#367);
#301=AXIS2_PLACEMENT_3D('',#440,#368,#369);
#302=AXIS2_PLACEMENT_3D('',#442,#370,#371);
#303=AXIS2_PLACEMENT_3D('',#443,#372,#373);
#304=DIRECTION('',(0.,0.,1.));
#305=DIRECTION('',(1.,0.,0.));
#306=DIRECTION('',(-1.,0.,0.));
#307=DIRECTION('',(0.,0.,1.));
#308=DIRECTION('',(-1.,0.,0.));
#309=DIRECTION('',(0.,0.,1.));
#310=DIRECTION('',(0.,1.,0.));
#311=DIRECTION('',(0.,0.,-1.));
#312=DIRECTION('',(0.,1.,0.));
#313=DIRECTION('',(0.,0.,-1.));
#314=DIRECTION('',(0.,1.,0.));
#315=DIRECTION('',(0.,0.,1.));
#316=DIRECTION('',(1.,0.,0.));
#317=DIRECTION('',(0.,0.,-1.));
#318=DIRECTION('',(1.,0.,0.));
#319=DIRECTION('',(-1.,0.,0.));
#320=DIRECTION('',(0.,0.,1.));
#321=DIRECTION('',(-1.,0.,0.));
#322=DIRECTION('',(0.,0.,1.));
#323=DIRECTION('',(0.,1.,0.));
#324=DIRECTION('',(0.,0.,-1.));
#325=DIRECTION('',(0.,1.,0.));
#326=DIRECTION('',(0.,1.,0.));
#327=DIRECTION('',(0.,0.,1.));
#328=DIRECTION('',(1.,0.,0.));
#329=DIRECTION('',(0.,0.,-1.));
#330=DIRECTION('',(1.,0.,0.));
#331=DIRECTION('',(1.,0.,0.));
#332=DIRECTION('',(0.,0.,-1.));
#333=DIRECTION('',(1.,0.,0.));
#334=DIRECTION('',(0.,0.,-1.));
#335=DIRECTION('',(0.,-1.,0.));
#336=DIRECTION('',(0.,0.,-1.));
#337=DIRECTION('',(0.,-1.,0.));
#338=DIRECTION('',(0.,1.,0.));
#339=DIRECTION('',(0.,0.,1.));
#340=DIRECTION('',(1.,0.,0.));
#341=DIRECTION('',(0.,0.,-1.));
#342=DIRECTION('',(1.,0.,0.));
#343=DIRECTION('',(1.,0.,0.));
#344=DIRECTION('',(0.,0.,-1.));
#345=DIRECTION('',(1.,0.,0.));
#346=DIRECTION('',(0.,0.,-1.));
#347=DIRECTION('',(0.,-1.,0.));
#348=DIRECTION('',(0.,0.,-1.));
#349=DIRECTION('',(0.,-1.,0.));
#350=DIRECTION('',(0.,1.,0.));
#351=DIRECTION('',(0.,0.,1.));
#352=DIRECTION('',(0.,1.,0.));
#353=DIRECTION('',(0.,0.,1.));
#354=DIRECTION('',(1.,0.,0.));
#355=DIRECTION('',(1.,0.,0.));
#356=DIRECTION('',(0.,0.,1.));
#357=DIRECTION('',(1.,0.,0.));
#358=DIRECTION('',(0.,0.,1.));
#359=DIRECTION('',(1.,0.,0.));
#360=DIRECTION('',(1.,0.,0.));
#361=DIRECTION('',(0.,0.,-1.));
#362=DIRECTION('',(1.,0.,0.));
#363=DIRECTION('',(0.,0.,-1.));
#364=DIRECTION('',(0.,-1.,0.));
#365=DIRECTION('',(0.,0.,-1.));
#366=DIRECTION('',(0.,1.,0.));
#367=DIRECTION('',(0.,0.,1.));
#368=DIRECTION('',(0.,1.,0.));
#369=DIRECTION('',(0.,0.,1.));
#370=DIRECTION('',(0.,1.,0.));
#371=DIRECTION('',(-1.,0.,0.));
#372=DIRECTION('',(0.,1.,0.));
#373=DIRECTION('',(0.,0.,1.));
#374=CARTESIAN_POINT('',(0.,0.,0.));
#375=CARTESIAN_POINT('',(-0.002,0.00725,0.0075));
#376=CARTESIAN_POINT('',(-0.002,0.00375,0.00375));
#377=CARTESIAN_POINT('',(-0.002,0.00375,0.0055));
#378=CARTESIAN_POINT('',(-0.002,0.00725,0.));
#379=CARTESIAN_POINT('',(-0.002,0.,0.));
#380=CARTESIAN_POINT('',(-0.002,0.0145,0.));
#381=CARTESIAN_POINT('',(-0.002,0.,0.0075));
#382=CARTESIAN_POINT('',(-0.002,0.,0.0075));
#383=CARTESIAN_POINT('',(-0.002,0.00725,0.0075));
#384=CARTESIAN_POINT('',(-0.002,0.0145,0.0075));
#385=CARTESIAN_POINT('',(-0.002,0.0145,0.0075));
#386=CARTESIAN_POINT('',(-0.001,0.,0.0075));
#387=CARTESIAN_POINT('',(-0.001,0.,0.));
#388=CARTESIAN_POINT('',(0.,0.,0.));
#389=CARTESIAN_POINT('',(0.,0.,0.0075));
#390=CARTESIAN_POINT('',(0.,0.,0.0075));
#391=CARTESIAN_POINT('',(-0.001,0.,0.0075));
#392=CARTESIAN_POINT('',(0.,0.00625,0.0075));
#393=CARTESIAN_POINT('',(0.,0.00375,0.00375));
#394=CARTESIAN_POINT('',(0.,0.00375,0.0055));
#395=CARTESIAN_POINT('',(0.,0.00625,0.));
#396=CARTESIAN_POINT('',(0.,0.0125,0.));
#397=CARTESIAN_POINT('',(0.,0.0125,0.0075));
#398=CARTESIAN_POINT('',(0.,0.0125,0.0075));
#399=CARTESIAN_POINT('',(0.,0.00625,0.0075));
#400=CARTESIAN_POINT('',(0.0125,0.0125,0.0075));
#401=CARTESIAN_POINT('',(0.0125,0.0125,0.));
#402=CARTESIAN_POINT('',(0.025,0.0125,0.));
#403=CARTESIAN_POINT('',(0.025,0.0125,0.0075));
#404=CARTESIAN_POINT('',(0.025,0.0125,0.0075));
#405=CARTESIAN_POINT('',(0.0125,0.0125,0.0075));
#406=CARTESIAN_POINT('',(0.025,0.00625,0.0075));
#407=CARTESIAN_POINT('',(0.025,0.00375,0.00375));
#408=CARTESIAN_POINT('',(0.025,0.00375,0.002));
#409=CARTESIAN_POINT('',(0.025,0.00625,0.));
#410=CARTESIAN_POINT('',(0.025,2.4492935982947E-18,0.));
#411=CARTESIAN_POINT('',(0.025,2.4492935982947E-18,0.0075));
#412=CARTESIAN_POINT('',(0.025,2.4492935982947E-18,0.0075));
#413=CARTESIAN_POINT('',(0.025,0.00625,0.0075));
#414=CARTESIAN_POINT('',(0.026,2.4492935982947E-18,0.0075));
#415=CARTESIAN_POINT('',(0.026,2.4492935982947E-18,0.));
#416=CARTESIAN_POINT('',(0.027,2.4492935982947E-18,0.));
#417=CARTESIAN_POINT('',(0.027,2.4492935982947E-18,0.0075));
#418=CARTESIAN_POINT('',(0.027,2.4492935982947E-18,0.0075));
#419=CARTESIAN_POINT('',(0.026,2.4492935982947E-18,0.0075));
#420=CARTESIAN_POINT('',(0.027,0.00725,0.0075));
#421=CARTESIAN_POINT('',(0.027,0.00375,0.00375));
#422=CARTESIAN_POINT('',(0.027,0.00375,0.002));
#423=CARTESIAN_POINT('',(0.027,0.00725,0.));
#424=CARTESIAN_POINT('',(0.027,0.0145,0.));
#425=CARTESIAN_POINT('',(0.027,0.0145,0.0075));
#426=CARTESIAN_POINT('',(0.027,0.0145,0.0075));
#427=CARTESIAN_POINT('',(0.027,0.00725,0.0075));
#428=CARTESIAN_POINT('',(0.0125,0.0145,0.0075));
#429=CARTESIAN_POINT('',(0.0125,0.0145,0.00375));
#430=CARTESIAN_POINT('',(0.0125,0.0145,0.00725));
#431=CARTESIAN_POINT('',(0.0125,0.0145,0.));
#432=CARTESIAN_POINT('',(0.0125,0.0145,0.0075));
#433=CARTESIAN_POINT('',(0.0125,0.00725,0.0075));
#434=CARTESIAN_POINT('',(0.0125,0.00725,0.));
#435=CARTESIAN_POINT('',(-0.002002,0.00375,0.00375));
#436=CARTESIAN_POINT('',(-0.002002,0.00375,0.00375));
#437=CARTESIAN_POINT('',(0.0125,0.0399,0.00375));
#438=CARTESIAN_POINT('',(0.0125,0.016,0.00375));
#439=CARTESIAN_POINT('',(0.0125,0.016,0.00575));
#440=CARTESIAN_POINT('',(0.0125,0.0399,0.00375));
#441=CARTESIAN_POINT('',(0.0125,0.0399,0.00575));
#442=CARTESIAN_POINT('',(0.0125,0.0399,0.00375));
#443=CARTESIAN_POINT('',(0.0125,0.016,0.00375));
#444=MECHANICAL_DESIGN_GEOMETRIC_PRESENTATION_REPRESENTATION('',(#270),
#445);
#445=(
GEOMETRIC_REPRESENTATION_CONTEXT(3)
GLOBAL_UNCERTAINTY_ASSIGNED_CONTEXT((#446))
GLOBAL_UNIT_ASSIGNED_CONTEXT((#449,#448,#447))
REPRESENTATION_CONTEXT('Rigid Body Frame','TOP_LEVEL_ASSEMBLY_PART')
);
#446=UNCERTAINTY_MEASURE_WITH_UNIT(LENGTH_MEASURE(1.E-8),#449,
'DISTANCE_ACCURACY_VALUE','Maximum Tolerance applied to model');
#447=(
NAMED_UNIT(*)
SI_UNIT($,.STERADIAN.)
SOLID_ANGLE_UNIT()
);
#448=(
NAMED_UNIT(*)
PLANE_ANGLE_UNIT()
SI_UNIT($,.RADIAN.)
);
#449=(
LENGTH_UNIT()
NAMED_UNIT(*)
SI_UNIT($,.METRE.)
);
#450=PRODUCT_DEFINITION_SHAPE('','',#451);
#451=PRODUCT_DEFINITION('','',#453,#452);
#452=PRODUCT_DEFINITION_CONTEXT('',#459,'design');
#453=PRODUCT_DEFINITION_FORMATION_WITH_SPECIFIED_SOURCE('','',#455,
 .NOT_KNOWN.);
#454=PRODUCT_RELATED_PRODUCT_CATEGORY('','',(#455));
#455=PRODUCT('Rigid Body Frame','Rigid Body Frame','Rigid Body Frame',(#457));
#456=PRODUCT_CATEGORY('','');
#457=PRODUCT_CONTEXT('',#459,'mechanical');
#458=APPLICATION_PROTOCOL_DEFINITION('international standard',
'automotive_design',2010,#459);
#459=APPLICATION_CONTEXT(
'core data for automotive mechanical design processes');
ENDSEC;
END-ISO-10303-21;
