ISO-10303-21;
HEADER;
/* Generated by software containing ST-Developer
 * from STEP Tools, Inc. (www.steptools.com) 
 */
/* OPTION: using custom renumber hook */

FILE_DESCRIPTION(
/* description */ ('STEP AP214',
'CAx-IF Rec.Pracs.---User Defined Attributes---1.5---2016-08-15'),
/* implementation_level */ '2;1');

FILE_NAME(
/* name */ '6a7e0c6eca83b69d0ab77a6f',
/* time_stamp */ '2026-08-13T18:26:54Z',
/* author */ (''),
/* organization */ (''),
/* preprocessor_version */ 'ST-DEVELOPER v20',
/* originating_system */ 'ONSHAPE BY PTC INC, 1.219',
/* authorisation */ '  ');

FILE_SCHEMA (('AUTOMOTIVE_DESIGN {1 0 10303 214 3 1 1}'));
ENDSEC;

DATA;
#10=PROPERTY_DEFINITION_REPRESENTATION(#14,#12);
#11=PROPERTY_DEFINITION_REPRESENTATION(#15,#13);
#12=REPRESENTATION('',(#16),#127);
#13=REPRESENTATION('',(#17),#127);
#14=PROPERTY_DEFINITION('pmi validation property','',#132);
#15=PROPERTY_DEFINITION('pmi validation property','',#132);
#16=VALUE_REPRESENTATION_ITEM('number of annotations',COUNT_MEASURE(0.));
#17=VALUE_REPRESENTATION_ITEM('number of views',COUNT_MEASURE(0.));
#18=SHAPE_REPRESENTATION_RELATIONSHIP('','',#58,#19);
#19=ADVANCED_BREP_SHAPE_REPRESENTATION('',(#56),#127);
#20=VERTEX_LOOP('',#31);
#21=B_SPLINE_SURFACE_WITH_KNOTS('',3,3,((#81,#82,#83,#84,#85,#86,#87,#88,
#89,#90,#91),(#92,#93,#94,#95,#96,#97,#98,#99,#100,#101,#102),(#103,#104,
#105,#106,#107,#108,#109,#110,#111,#112,#113),(#114,#115,#116,#117,#118,
#119,#120,#121,#122,#123,#124)),.UNSPECIFIED.,.F.,.T.,.F.,(4,4),(1,1,1,
1,1,1,1,1,1,1,1,1,1,1,1),(0.,1.),(-2.35619449019234,-1.5707963267949,-0.785398163397448,
0.,0.785398163397448,1.5707963267949,2.35619449019234,3.14159265358979,
3.92699081698724,4.71238898038469,5.49778714378214,6.28318530717959,7.06858347057703,
7.85398163397448,8.63937979737193),.UNSPECIFIED.);
#22=CYLINDRICAL_SURFACE('',#62,0.00075);
#23=ORIENTED_EDGE('',*,*,#27,.T.);
#24=ORIENTED_EDGE('',*,*,#28,.T.);
#25=ORIENTED_EDGE('',*,*,#27,.F.);
#26=ORIENTED_EDGE('',*,*,#28,.F.);
#27=EDGE_CURVE('',#29,#29,#32,.T.);
#28=EDGE_CURVE('',#30,#30,#33,.T.);
#29=VERTEX_POINT('',#77);
#30=VERTEX_POINT('',#80);
#31=VERTEX_POINT('',#125);
#32=CIRCLE('',#61,0.00075);
#33=CIRCLE('',#63,0.00075);
#34=EDGE_LOOP('',(#23));
#35=EDGE_LOOP('',(#24));
#36=EDGE_LOOP('',(#25));
#37=EDGE_LOOP('',(#26));
#38=FACE_BOUND('',#34,.T.);
#39=FACE_BOUND('',#35,.T.);
#40=FACE_BOUND('',#36,.T.);
#41=FACE_BOUND('',#20,.T.);
#42=FACE_BOUND('',#37,.T.);
#43=PLANE('',#60);
#44=ADVANCED_FACE('',(#38),#43,.T.);
#45=ADVANCED_FACE('',(#39,#40),#22,.T.);
#46=ADVANCED_FACE('',(#41,#42),#21,.T.);
#47=CLOSED_SHELL('',(#44,#45,#46));
#48=STYLED_ITEM('',(#49),#56);
#49=PRESENTATION_STYLE_ASSIGNMENT((#50));
#50=SURFACE_STYLE_USAGE(.BOTH.,#51);
#51=SURFACE_SIDE_STYLE('',(#52));
#52=SURFACE_STYLE_FILL_AREA(#53);
#53=FILL_AREA_STYLE('',(#54));
#54=FILL_AREA_STYLE_COLOUR('',#55);
#55=COLOUR_RGB('',0.6,0.580392156862745,0.529411764705882);
#56=MANIFOLD_SOLID_BREP('Steel Spine',#47);
#57=SHAPE_DEFINITION_REPRESENTATION(#132,#58);
#58=SHAPE_REPRESENTATION('Steel Spine',(#59),#127);
#59=AXIS2_PLACEMENT_3D('',#74,#64,#65);
#60=AXIS2_PLACEMENT_3D('',#75,#66,#67);
#61=AXIS2_PLACEMENT_3D('',#76,#68,#69);
#62=AXIS2_PLACEMENT_3D('',#78,#70,#71);
#63=AXIS2_PLACEMENT_3D('',#79,#72,#73);
#64=DIRECTION('',(0.,0.,1.));
#65=DIRECTION('',(1.,0.,0.));
#66=DIRECTION('',(0.,0.,1.));
#67=DIRECTION('',(1.,0.,0.));
#68=DIRECTION('',(0.,0.,1.));
#69=DIRECTION('',(1.,0.,0.));
#70=DIRECTION('',(0.,0.,1.));
#71=DIRECTION('',(1.,0.,0.));
#72=DIRECTION('',(0.,0.,1.));
#73=DIRECTION('',(1.,0.,0.));
#74=CARTESIAN_POINT('',(0.,0.,0.));
#75=CARTESIAN_POINT('',(-0.000375,0.,0.0075));
#76=CARTESIAN_POINT('',(0.,0.,0.0075));
#77=CARTESIAN_POINT('',(0.00075,0.,0.0075));
#78=CARTESIAN_POINT('',(0.,0.,0.00375));
#79=CARTESIAN_POINT('',(0.,0.,0.00375));
#80=CARTESIAN_POINT('',(0.00075,0.,0.00375));
#81=CARTESIAN_POINT('',(-0.000587708718668419,0.000587708718668418,0.00375));
#82=CARTESIAN_POINT('',(-0.000831145640665791,1.62630325872826E-19,0.00375));
#83=CARTESIAN_POINT('',(-0.000587708718668418,-0.000587708718668418,0.00375));
#84=CARTESIAN_POINT('',(-8.470329472543E-20,-0.000831145640665791,0.00375));
#85=CARTESIAN_POINT('',(0.000587708718668418,-0.000587708718668418,0.00375));
#86=CARTESIAN_POINT('',(0.000831145640665791,-1.41242743954655E-19,0.00375));
#87=CARTESIAN_POINT('',(0.000587708718668418,0.000587708718668418,0.00375));
#88=CARTESIAN_POINT('',(5.14996031930615E-19,0.000831145640665791,0.00375));
#89=CARTESIAN_POINT('',(-0.000587708718668419,0.000587708718668418,0.00375));
#90=CARTESIAN_POINT('',(-0.000831145640665791,1.62630325872826E-19,0.00375));
#91=CARTESIAN_POINT('',(-0.000587708718668418,-0.000587708718668418,0.00375));
#92=CARTESIAN_POINT('',(-0.000587708718668419,0.000587708718668417,0.00268577825640201));
#93=CARTESIAN_POINT('',(-0.00083114564066579,1.89735380184963E-19,0.00268577825640201));
#94=CARTESIAN_POINT('',(-0.000587708718668419,-0.000587708718668418,0.00268577825640201));
#95=CARTESIAN_POINT('',(7.11507675693612E-20,-0.00083114564066579,0.00268577825640201));
#96=CARTESIAN_POINT('',(0.000587708718668418,-0.000587708718668419,0.00268577825640201));
#97=CARTESIAN_POINT('',(0.000831145640665791,3.36695596533584E-20,0.00268577825640201));
#98=CARTESIAN_POINT('',(0.000587708718668418,0.000587708718668418,0.00268577825640201));
#99=CARTESIAN_POINT('',(7.86046575051991E-19,0.000831145640665791,0.00268577825640202));
#100=CARTESIAN_POINT('',(-0.000587708718668419,0.000587708718668417,0.00268577825640201));
#101=CARTESIAN_POINT('',(-0.00083114564066579,1.89735380184963E-19,0.00268577825640201));
#102=CARTESIAN_POINT('',(-0.000587708718668419,-0.000587708718668418,0.00268577825640201));
#103=CARTESIAN_POINT('',(-0.000622132337192751,0.000622132337192749,0.000793929438296821));
#104=CARTESIAN_POINT('',(-0.000879827988848858,1.62630325872826E-19,0.000793929438296821));
#105=CARTESIAN_POINT('',(-0.00062213233719275,-0.00062213233719275,0.000793929438296822));
#106=CARTESIAN_POINT('',(-2.13452302708084E-19,-0.000879827988848858,0.000793929438296821));
#107=CARTESIAN_POINT('',(0.00062213233719275,-0.00062213233719275,0.000793929438296822));
#108=CARTESIAN_POINT('',(0.000879827988848858,-1.21549227930992E-19,0.000793929438296822));
#109=CARTESIAN_POINT('',(0.00062213233719275,0.00062213233719275,0.000793929438296822));
#110=CARTESIAN_POINT('',(4.67562186884374E-19,0.000879827988848859,0.000793929438296822));
#111=CARTESIAN_POINT('',(-0.000622132337192751,0.000622132337192749,0.000793929438296821));
#112=CARTESIAN_POINT('',(-0.000879827988848858,1.62630325872826E-19,0.000793929438296821));
#113=CARTESIAN_POINT('',(-0.00062213233719275,-0.00062213233719275,0.000793929438296822));
#114=CARTESIAN_POINT('',(0.,0.,0.));
#115=CARTESIAN_POINT('',(0.,0.,0.));
#116=CARTESIAN_POINT('',(0.,0.,0.));
#117=CARTESIAN_POINT('',(0.,0.,0.));
#118=CARTESIAN_POINT('',(0.,0.,0.));
#119=CARTESIAN_POINT('',(0.,0.,0.));
#120=CARTESIAN_POINT('',(0.,0.,0.));
#121=CARTESIAN_POINT('',(0.,0.,0.));
#122=CARTESIAN_POINT('',(0.,0.,0.));
#123=CARTESIAN_POINT('',(0.,0.,0.));
#124=CARTESIAN_POINT('',(0.,0.,0.));
#125=CARTESIAN_POINT('',(0.,0.,0.));
#126=MECHANICAL_DESIGN_GEOMETRIC_PRESENTATION_REPRESENTATION('',(#48),#127);
#127=(
GEOMETRIC_REPRESENTATION_CONTEXT(3)
GLOBAL_UNCERTAINTY_ASSIGNED_CONTEXT((#128))
GLOBAL_UNIT_ASSIGNED_CONTEXT((#131,#130,#129))
REPRESENTATION_CONTEXT('Steel Spine','TOP_LEVEL_ASSEMBLY_PART')
);
#128=UNCERTAINTY_MEASURE_WITH_UNIT(LENGTH_MEASURE(2.E-5),#131,
'DISTANCE_ACCURACY_VALUE','Maximum Tolerance applied to model');
#129=(
NAMED_UNIT(*)
SI_UNIT($,.STERADIAN.)
SOLID_ANGLE_UNIT()
);
#130=(
NAMED_UNIT(*)
PLANE_ANGLE_UNIT()
SI_UNIT($,.RADIAN.)
);
#131=(
LENGTH_UNIT()
NAMED_UNIT(*)
SI_UNIT($,.METRE.)
);
#132=PRODUCT_DEFINITION_SHAPE('','',#133);
#133=PRODUCT_DEFINITION('','',#135,#134);
#134=PRODUCT_DEFINITION_CONTEXT('',#141,'design');
#135=PRODUCT_DEFINITION_FORMATION_WITH_SPECIFIED_SOURCE('','',#137,
 .NOT_KNOWN.);
#136=PRODUCT_RELATED_PRODUCT_CATEGORY('','',(#137));
#137=PRODUCT('Steel Spine','Steel Spine','Steel Spine',(#139));
#138=PRODUCT_CATEGORY('','');
#139=PRODUCT_CONTEXT('',#141,'mechanical');
#140=APPLICATION_PROTOCOL_DEFINITION('international standard',
'automotive_design',2010,#141);
#141=APPLICATION_CONTEXT(
'core data for automotive mechanical design processes');
ENDSEC;
END-ISO-10303-21;
